{
.appVersion = "1286";
DisplayStrings = (
"Ó  ",
"/c_t  /f_b  /f_f  /f_f_i  /f_f_l  /f_h  /f_j  /f_t  /fi  /fl  /s_t \012ct fb ff ffi ffl fh fj ft fi fl st",
"HHWHOWOOHHWOH\012WAFTING VATING OVO\012QUICK ZEPHYRS\012VEX BOLD JIM  \012zephyrs  nnynoyoo \012nxoeAHIFTJOhmrbpdqf\012nnynoyoonn\012AeBCDEFGHIJKLMNOPQRSTUVWXYZ\012abcdefghijklmnopqrstuvwxyz",
k,
wa,
"²",
"/foursuperior",
"1¹",
"1H¹H²H³H/foursuperior H\012nn¹n²n³n/foursuperior nn\012oo¹o²o³o/foursuperior oo",
"³",
w,
"¬",
"/circumflexcomb.case/Wcircumflex",
"/minus/greaterequal/lessequal",
"/minus/greaterequal",
"/caroncomb",
"/caroncomb/caron",
"/caroncomb.case",
"/caroncomb/circumflexcomb",
"/caroncomb/caroncomb/caroncomb/circumflexcomb/circumflex/circumflexcomb.case",
"/c_t  /f_b  /f_f  /f_f_i  /f_f_l  /f_h  /f_j  /f_t  /fi  /fl  /s_t \012ct fb ff ffi ffl fh fj ft fi fl st",
"/minus/greaterequal/lessequal",
"HHWHOWOOHHWOH\012WAFTING VATING OVO\012QUICK ZEPHYRS\012VEX BOLD JIM  \012zephyrs nnynoyoo \012nxoeAHIFTJOhmrbpdqf\012nnynoyoonn\012ABCDEFGHIJKLMNOPQRSTUVWXY\012abcdefghijklmnopqrstuvwxyz"
);
classes = (
{
code = "at bracketleft bracketright parenleft parenright braceleft braceright guillemetleft guillemetright guilsinglleft guilsinglright endash emdash";
name = case1;
},
{

glyphs = (
{
glyphname = A;
lastChange = "2015-12-04 17:57:05 +0000";
layers = (
{
anchors = (
{
name = topcase;
position = "{636, 690}";
}
);
background = {
paths = (
{
closed = 1;
nodes = (
"701 25 LINE",
"702 44 LINE",
"646 38 LINE SMOOTH",
"594 33 OFFCURVE",
"586 38 OFFCURVE",
"590 83 CURVE SMOOTH",
"636 617 LINE SMOOTH",
"640 662 OFFCURVE",
"650 672 OFFCURVE",
"703 699 CURVE SMOOTH",
"763 729 LINE",
"764 748 LINE",
"439 648 LINE",
"438 629 LINE",
"494 635 LINE SMOOTH",
"546 640 OFFCURVE",
"554 635 OFFCURVE",
"550 590 CURVE SMOOTH",
"504 56 LINE SMOOTH",
"500 11 OFFCURVE",
"490 1 OFFCURVE",
"437 -26 CURVE SMOOTH",
"377 -56 LINE",
"376 -75 LINE"
);
}
);
};
layerId = "A0758A2D-FE5C-4D8D-B7A5-83FAC1CB14BB";
paths = (
{
closed = 1;
nodes = (
"175 0 LINE",
"184 18 LINE",
"126 30 LINE SMOOTH",
"88 37 OFFCURVE",
"95 52 OFFCURVE",
"123 82 CURVE SMOOTH",
"555 564 LINE",
"547 564 LINE",
"508 102 LINE SMOOTH",
"504 49 OFFCURVE",
"487 36 OFFCURVE",
"426 27 CURVE SMOOTH",
"367 18 LINE",
"358 0 LINE",
"664 0 LINE",
"673 18 LINE",
"638 26 LINE SMOOTH",
"601 34 OFFCURVE",
"587 48 OFFCURVE",
"592 107 CURVE SMOOTH",
"645 698 LINE",
"636 698 LINE",
"626 677 OFFCURVE",
"587 637 OFFCURVE",
"548 635 CURVE",
"546 595 LINE",
"89 84 LINE SMOOTH",
"59 51 OFFCURVE",
"29 34 OFFCURVE",
"-20 26 CURVE SMOOTH",
"-72 18 LINE",
"-81 0 LINE"
);
},
{
closed = 1;
nodes = (
"547 229 LINE",
"563 261 LINE",
"270 261 LINE",
"247 229 LINE"
);
}
);
width = 757;
},
{
anchors = (
{
name = topcase;
position = "{605, 690}";
}
);
background = {
paths = (
{
closed = 1;
nodes = (
"178 0 LINE",
"187 22 LINE",
"107 37 LINE SMOOTH",
"87 41 OFFCURVE",
"83 51 OFFCURVE",
"87 63 CURVE SMOOTH",
"89 66 OFFCURVE",
"91 70 OFFCURVE",
"94 74 CURVE SMOOTH",
"525 533 LINE",
"503 533 LINE",
"463 87 LINE SMOOTH",
"462 79 OFFCURVE",
"462 72 OFFCURVE",
"460 66 CURVE SMOOTH",
"453 49 OFFCURVE",
"435 39 OFFCURVE",
"403 33 CURVE SMOOTH",
"348 22 LINE",
"339 0 LINE",
"669 0 LINE",
"678 22 LINE",
"631 33 LINE SMOOTH",
"602 40 OFFCURVE",
"591 46 OFFCURVE",
"592 62 CURVE SMOOTH",
"645 698 LINE",
"631 698 LINE",
"623 677 OFFCURVE",
"572 637 OFFCURVE",
"508 635 CURVE",
"505 558 LINE",
"56 75 LINE SMOOTH",
"37 55 OFFCURVE",
"20 42 OFFCURVE",
"-12 35 CURVE SMOOTH",
"-75 22 LINE",
"-84 0 LINE"
);
},
{
closed = 1;
nodes = (
"503 226 LINE",
"517 259 LINE",
"236 259 LINE",
"218 226 LINE"
);
}
);
};
layerId = "B3FC2A1D-D4D8-43EF-896F-5E7A9998234E";
paths = (
{
closed = 1;
nodes = (
"180 0 LINE",
"189 22 LINE",
"109 37 LINE SMOOTH",
"89 41 OFFCURVE",
"79 52 OFFCURVE",
"96 74 CURVE SMOOTH",
"527 533 LINE",
"503 533 LINE",
"463 87 LINE SMOOTH",
"459 52 OFFCURVE",
"449 42 OFFCURVE",
"403 33 CURVE SMOOTH",
"348 22 LINE",
"339 0 LINE",
"669 0 LINE",
"678 22 LINE",
"631 33 LINE SMOOTH",
"602 40 OFFCURVE",
"591 46 OFFCURVE",
"592 62 CURVE SMOOTH",
"645 698 LINE",
"631 698 LINE",
"623 677 OFFCURVE",
"572 637 OFFCURVE",
"508 635 CURVE",
"505 558 LINE",
"56 75 LINE SMOOTH",
"37 55 OFFCURVE",
"20 42 OFFCURVE",
"-12 35 CURVE SMOOTH",
"-75 22 LINE",
"-84 0 LINE"
);
},
{
closed = 1;
nodes = (
"503 226 LINE",
"517 259 LINE",
"236 259 LINE",
"218 226 LINE"
);
}
);
width = 763;
}
);
leftKerningGroup = A;
rightKerningGroup = A;
unicode = 0041;
},
{
color = 0;
glyphname = AE;
lastChange = "2015-12-04 17:57:05 +0000";
layers = (
{
background = {
paths = (
{
closed = 1;
nodes = (
"186 0 LINE",
"193 18 LINE",
"135 30 LINE SMOOTH",
"97 39 OFFCURVE",
"100 56 OFFCURVE",
"130 82 CURVE SMOOTH",
"673 570 LINE",
"687 615 LINE",
"96 86 LINE SMOOTH",
"61 55 OFFCURVE",
"22 32 OFFCURVE",
"-26 24 CURVE SMOOTH",
"-64 18 LINE",
"-71 0 LINE"
);
},
{
closed = 1;
nodes = (
"541 229 LINE",
"553 260 LINE",
"299 260 LINE",
"287 229 LINE"
);
},
{
closed = 1;
nodes = (
"877 0 LINE",
"899 52 OFFCURVE",
"934 118 OFFCURVE",
"976 180 CURVE",
"957 180 LINE",
"910 129 LINE SMOOTH",
"867 82 OFFCURVE",
"776 25 OFFCURVE",
"694 25 CURVE SMOOTH",
"602 25 LINE SMOOTH",
"538 25 OFFCURVE",
"531 41 OFFCURVE",
"550 90 CURVE SMOOTH",
"652 341 LINE",
"811 341 LINE SMOOTH",
"880 341 OFFCURVE",
"886 319 OFFCURVE",
"874 263 CURVE SMOOTH",
"864 216 LINE",
"882 216 LINE",
"995 494 LINE",
"977 494 LINE",
"949 447 LINE SMOOTH",
"915 391 OFFCURVE",
"891 369 OFFCURVE",
"822 369 CURVE SMOOTH",
"663 369 LINE",
"776 649 LINE",
"950 649 LINE SMOOTH",
"1052 649 OFFCURVE",
"1063 583 OFFCURVE",
"1057 496 CURVE",
"1077 496 LINE",
"1085 524 OFFCURVE",
"1091 568 OFFCURVE",
"1110 617 CURVE SMOOTH",
"1118 635 OFFCURVE",
"1127 654 OFFCURVE",
"1139 673 CURVE",
"570 673 LINE",
"563 655 LINE",
"619 644 LINE SMOOTH",
"670 634 OFFCURVE",
"676 627 OFFCURVE",
"659 585 CURVE SMOOTH",
"459 88 LINE SMOOTH",
"442 46 OFFCURVE",
"430 39 OFFCURVE",
"371 29 CURVE SMOOTH",
"305 18 LINE",
"298 0 LINE"
);
}
);
};
components = (
{
name = E;
transform = "{1, 0, 0, 1, 345, 0}";
}
);
layerId = "A0758A2D-FE5C-4D8D-B7A5-83FAC1CB14BB";
paths = (
{
closed = 1;
nodes = (
"175 0 LINE",
"184 18 LINE",
"126 30 LINE SMOOTH",
"88 37 OFFCURVE",
"92 55 OFFCURVE",
"123 82 CURVE SMOOTH",
"675 564 LINE",
"666 595 LINE",
"89 84 LINE SMOOTH",
"56 54 OFFCURVE",
"29 34 OFFCURVE",
"-20 26 CURVE SMOOTH",
"-72 18 LINE",
"-81 0 LINE"
);
},
{
closed = 1;
nodes = (
"547 229 LINE",
"563 261 LINE",
"300 261 LINE",
"277 229 LINE"
);
}
);
width = 1030;
},
{
background = {
paths = (
{
closed = 1;
nodes = (
"175 0 LINE",
"184 18 LINE",
"126 30 LINE SMOOTH",
"88 37 OFFCURVE",
"92 55 OFFCURVE",
"123 82 CURVE SMOOTH",
"675 564 LINE",
"666 595 LINE",
"89 84 LINE SMOOTH",
"56 54 OFFCURVE",
"29 34 OFFCURVE",
"-20 26 CURVE SMOOTH",
"-72 18 LINE",
"-81 0 LINE"
);
},
{
closed = 1;
nodes = (
"547 229 LINE",
"563 261 LINE",
"300 261 LINE",
"277 229 LINE"
);
},
{
closed = 1;
nodes = (
"878 0 LINE",
"900 52 OFFCURVE",
"935 118 OFFCURVE",
"977 180 CURVE",
"958 180 LINE",
"911 129 LINE SMOOTH",
"868 82 OFFCURVE",
"777 25 OFFCURVE",
"695 25 CURVE SMOOTH",
"603 25 LINE SMOOTH",
"539 25 OFFCURVE",
"532 41 OFFCURVE",
"551 90 CURVE SMOOTH",
"653 341 LINE",
"812 341 LINE SMOOTH",
"881 341 OFFCURVE",
"887 319 OFFCURVE",
"875 263 CURVE SMOOTH",
"865 216 LINE",
"883 216 LINE",
"996 494 LINE",
"978 494 LINE",
"950 447 LINE SMOOTH",
"916 391 OFFCURVE",
"892 369 OFFCURVE",
"823 369 CURVE SMOOTH",
"664 369 LINE",
"777 649 LINE",
"951 649 LINE SMOOTH",
"1053 649 OFFCURVE",
"1064 583 OFFCURVE",
"1058 496 CURVE",
"1078 496 LINE",
"1086 524 OFFCURVE",
"1092 568 OFFCURVE",
"1111 617 CURVE SMOOTH",
"1119 635 OFFCURVE",
"1128 654 OFFCURVE",
"1140 673 CURVE",
"571 673 LINE",
"564 655 LINE",
"620 644 LINE SMOOTH",
"671 634 OFFCURVE",
"677 627 OFFCURVE",
"660 585 CURVE SMOOTH",
"460 88 LINE SMOOTH",
"443 46 OFFCURVE",
"431 39 OFFCURVE",
"372 29 CURVE SMOOTH",
"306 18 LINE",
"299 0 LINE"
);
},
{
closed = 1;
nodes = (
"1032 0 LINE",
"1040 59 OFFCURVE",
"1064 121 OFFCURVE",
"1100 180 CURVE",
"1070 180 LINE",
"1014 98 OFFCURVE",
"949 26 OFFCURVE",
"851 26 CURVE SMOOTH",
"653 26 LINE SMOOTH",
"611 26 OFFCURVE",
"593 31 OFFCURVE",
"593 48 CURVE SMOOTH",
"593 59 OFFCURVE",
"593 74 OFFCURVE",
"601 97 CURVE",
"697 342 LINE",
"884 342 LINE SMOOTH",
"924 342 OFFCURVE",
"939 313 OFFCURVE",
"939 280 CURVE",
"935 217 LINE",
"955 217 LINE",
"1057 494 LINE",
"1037 494 LINE",
"1011 448 LINE",
"980 403 OFFCURVE",
"948 369 OFFCURVE",
"891 369 CURVE SMOOTH",
"707 369 LINE",
"813 649 LINE",
"986 649 LINE SMOOTH",
"1077 649 OFFCURVE",
"1120 554 OFFCURVE",
"1120 496 CURVE",
"1150 496 LINE",
"1158 539 OFFCURVE",
"1161 577 OFFCURVE",
"1176 618 CURVE SMOOTH",
"1183 636 OFFCURVE",
"1191 654 OFFCURVE",
"1202 673 CURVE",
"581 673 LINE",
"576 658 LINE",
"599 654 LINE SMOOTH",
"648 645 OFFCURVE",
"661 632 OFFCURVE",
"661 615 CURVE SMOOTH",
"661 606 OFFCURVE",
"664 617 OFFCURVE",
"657 599 CURVE",
"132 100 LINE",
"88 52 OFFCURVE",
"59 34 OFFCURVE",
"0 23 CURVE SMOOTH",
"-45 15 LINE",
"-52 0 LINE",
"227 0 LINE",
"233 16 LINE",
"152 32 LINE",
"143 36 OFFCURVE",
"139 46 OFFCURVE",
"139 53 CURVE",
"144 75 OFFCURVE",
"162 87 OFFCURVE",
"170 95 CURVE SMOOTH",
"341 259 LINE",
"529 259 LINE",
"460 79 LINE SMOOTH",
"447 43 OFFCURVE",
"430 34 OFFCURVE",
"358 20 CURVE SMOOTH",
"332 15 LINE",
"327 0 LINE"
);
},
{
closed = 1;
nodes = (
"366 286 LINE",
"632 534 LINE",
"539 286 LINE"
);
}
);
};
components = (
{
alignment = -1;
name = E;
transform = "{1, 0, 0, 1, 378, 0}";
}
);
layerId = "B3FC2A1D-D4D8-43EF-896F-5E7A9998234E";
paths = (
{
closed = 1;
nodes = (
"215 0 LINE",
"224 22 LINE",
"150 37 LINE SMOOTH",
"124 42 OFFCURVE",
"119 58 OFFCURVE",
"137 74 CURVE SMOOTH",
"687 567 LINE",
"668 597 LINE",
"87 75 LINE SMOOTH",
"65 55 OFFCURVE",
"51 42 OFFCURVE",
"19 35 CURVE SMOOTH",
"-40 22 LINE",
"-49 0 LINE"
);
},
{
closed = 1;
nodes = (
"553 226 LINE",
"567 259 LINE",
"296 259 LINE",
"278 226 LINE"
);
}
);
width = 1049;
}
);
leftKerningGroup = A;
rightKerningGroup = E;
unicode = 00C6;
},
{
glyphname = B;
lastChange = "2015-12-04 17:57:05 +0000";
layers = (
{
background = {
paths = (
{
closed = 1;
nodes = (
"263 0 LINE SMOOTH",
"419 0 OFFCURVE",
"570 63 OFFCURVE",
"625 198 CURVE SMOOTH",
"670 310 OFFCURVE",
"583 360 OFFCURVE",
"495 373 CURVE",
"496 375 LINE",
"596 392 OFFCURVE",
"683 433 OFFCURVE",
"717 517 CURVE SMOOTH",
"755 611 OFFCURVE",
"692 673 OFFCURVE",
"555 673 CURVE SMOOTH",
"227 673 LINE",
"220 655 LINE",
"276 644 LINE SMOOTH",
"327 634 OFFCURVE",
"333 627 OFFCURVE",
"316 585 CURVE SMOOTH",
"116 88 LINE SMOOTH",
"99 46 OFFCURVE",
"87 39 OFFCURVE",
"28 29 CURVE SMOOTH",
"-38 18 LINE",
"-45 0 LINE"
);
},
{
closed = 1;
nodes = (
"194 25 OFFCURVE",
"188 46 OFFCURVE",
"205 90 CURVE SMOOTH",
"313 357 LINE",
"411 357 LINE SMOOTH",
"521 357 OFFCURVE",
"556 283 OFFCURVE",
"519 190 CURVE SMOOTH",
"476 85 OFFCURVE",
"368 24 OFFCURVE",
"277 24 CURVE SMOOTH",
"253 24 LINE SMOOTH"
);
},
{
closed = 1;
nodes = (
"431 649 LINE",
"527 649 LINE SMOOTH",
"624 649 OFFCURVE",
"658 601 OFFCURVE",
"623 514 CURVE SMOOTH",
"594 443 OFFCURVE",
"516 383 OFFCURVE",
"428 383 CURVE SMOOTH",
"324 383 LINE"
);
}
);
};
layerId = "A0758A2D-FE5C-4D8D-B7A5-83FAC1CB14BB";
paths = (
{
closed = 1;
nodes = (
"263 0 LINE SMOOTH",
"524 0 OFFCURVE",
"637 111 OFFCURVE",
"637 240 CURVE SMOOTH",
"637 316 OFFCURVE",
"592 360 OFFCURVE",
"492 371 CURVE",
"493 373 LINE",
"616 389 OFFCURVE",
"727 459 OFFCURVE",
"727 568 CURVE SMOOTH",
"727 633 OFFCURVE",
"670 673 OFFCURVE",
"529 673 CURVE SMOOTH",
"226 673 LINE",
"219 655 LINE",
"276 644 LINE SMOOTH",
"328 634 OFFCURVE",
"333 629 OFFCURVE",
"316 585 CURVE SMOOTH",
"115 88 LINE SMOOTH",
"98 46 OFFCURVE",
"86 39 OFFCURVE",
"28 29 CURVE SMOOTH",
"-37 18 LINE",
"-44 0 LINE"
);
},
{
closed = 1;
nodes = (
"199 24 OFFCURVE",
"184 42 OFFCURVE",
"205 90 CURVE SMOOTH",
"313 357 LINE",
"412 357 LINE SMOOTH",
"499 357 OFFCURVE",
"533 311 OFFCURVE",
"533 247 CURVE SMOOTH",
"533 128 OFFCURVE",
"445 24 OFFCURVE",
"276 24 CURVE SMOOTH",
"252 24 LINE SMOOTH"
);
},
{
closed = 1;
nodes = (
"431 649 LINE",
"510 649 LINE SMOOTH",
"601 649 OFFCURVE",
"636 623 OFFCURVE",
"636 570 CURVE SMOOTH",
"636 466 OFFCURVE",
"535 383 OFFCURVE",
"427 383 CURVE SMOOTH",
"323 383 LINE"
);
}
);
width = 703;
},
{
background = {
paths = (
{
closed = 1;
nodes = (
"320 0 LINE SMOOTH",
"518 0 OFFCURVE",
"670 82 OFFCURVE",
"670 247 CURVE SMOOTH",
"670 315 OFFCURVE",
"613 365 OFFCURVE",
"530 374 CURVE",
"531 376 LINE",
"658 396 OFFCURVE",
"759 451 OFFCURVE",
"759 556 CURVE SMOOTH",
"759 627 OFFCURVE",
"693 673 OFFCURVE",
"583 673 CURVE SMOOTH",
"213 673 LINE",
"204 651 LINE",
"251 640 LINE SMOOTH",
"293 630 OFFCURVE",
"298 623 OFFCURVE",
"281 581 CURVE SMOOTH",
"83 92 LINE SMOOTH",
"66 50 OFFCURVE",
"55 43 OFFCURVE",
"5 33 CURVE SMOOTH",
"-50 22 LINE",
"-59 0 LINE"
);
},
{
closed = 1;
nodes = (
"213 33 OFFCURVE",
"204 44 OFFCURVE",
"222 88 CURVE SMOOTH",
"329 353 LINE",
"411 353 LINE SMOOTH",
"485 353 OFFCURVE",
"519 314 OFFCURVE",
"519 252 CURVE SMOOTH",
"519 135 OFFCURVE",
"409 33 OFFCURVE",
"285 33 CURVE SMOOTH",
"258 33 LINE SMOOTH"
);
},
{
closed = 1;
nodes = (
"445 640 LINE",
"512 640 LINE SMOOTH",
"575 640 OFFCURVE",
"607 610 OFFCURVE",
"607 559 CURVE SMOOTH",
"607 466 OFFCURVE",
"536 386 OFFCURVE",
"417 386 CURVE SMOOTH",
"342 386 LINE"
);
}
);
};
layerId = "B3FC2A1D-D4D8-43EF-896F-5E7A9998234E";
paths = (
{
closed = 1;
nodes = (
"320 0 LINE SMOOTH",
"518 0 OFFCURVE",
"670 82 OFFCURVE",
"670 247 CURVE SMOOTH",
"670 315 OFFCURVE",
"606 362 OFFCURVE",
"523 371 CURVE",
"524 373 LINE",
"651 393 OFFCURVE",
"759 451 OFFCURVE",
"759 556 CURVE SMOOTH",
"759 642 OFFCURVE",
"682 673 OFFCURVE",
"533 673 CURVE SMOOTH",
"213 673 LINE",
"204 651 LINE",
"251 640 LINE SMOOTH",
"293 630 OFFCURVE",
"298 623 OFFCURVE",
"281 581 CURVE SMOOTH",
"83 92 LINE SMOOTH",
"66 50 OFFCURVE",
"55 43 OFFCURVE",
"5 33 CURVE SMOOTH",
"-50 22 LINE",
"-59 0 LINE"
);
},
{
closed = 1;
nodes = (
"213 33 OFFCURVE",
"204 44 OFFCURVE",
"222 88 CURVE SMOOTH",
"329 353 LINE",
"411 353 LINE SMOOTH",
"485 353 OFFCURVE",
"519 314 OFFCURVE",
"519 252 CURVE SMOOTH",
"519 135 OFFCURVE",
"409 33 OFFCURVE",
"285 33 CURVE SMOOTH",
"258 33 LINE SMOOTH"
);
},
{
closed = 1;
nodes = (
"445 640 LINE",
"493 640 LINE SMOOTH",
"575 640 OFFCURVE",
"607 614 OFFCURVE",
"607 559 CURVE SMOOTH",
"607 466 OFFCURVE",
"536 386 OFFCURVE",
"417 386 CURVE SMOOTH",
"342 386 LINE"
);
}
);
width = 728;
}
);
leftKerningGroup = H;
leftMetricsKey = H;
unicode = 0042;
},
{
glyphname = C;
lastChange = "2016-01-08 16:18:02 +0000";
layers = (
{
anchors = (
{
name = topcase;
position = "{550, 690}";
}
);
background = {
paths = (
{
closed = 1;
nodes = (
"432 -8 OFFCURVE",
"494 4 OFFCURVE",
"547 14 CURVE SMOOTH",
"587 21 OFFCURVE",
"621 28 OFFCURVE",
"638 28 CURVE SMOOTH",
"648 28 OFFCURVE",
"655 27 OFFCURVE",
"655 27 CURVE",
"666 80 OFFCURVE",
"690 143 OFFCURVE",
"714 207 CURVE",
"694 207 LINE",
"599 35 OFFCURVE",
"459 18 OFFCURVE",
"402 18 CURVE SMOOTH",
"281 18 OFFCURVE",
"195 97 OFFCURVE",
"195 248 CURVE SMOOTH",
"195 431 OFFCURVE",
"328 657 OFFCURVE",
"540 657 CURVE SMOOTH",
"699 657 OFFCURVE",
"748 565 OFFCURVE",
"776 469 CURVE",
"796 469 LINE",
"792 536 OFFCURVE",
"793 589 OFFCURVE",
"816 641 CURVE",
"814 643 LINE",
"801 641 OFFCURVE",
"792 638 OFFCURVE",
"777 638 CURVE SMOOTH",
"750 638 OFFCURVE",
"730 646 OFFCURVE",
"704 656 CURVE SMOOTH",
"672 668 OFFCURVE",
"626 682 OFFCURVE",
"550 682 CURVE SMOOTH",
"296 682 OFFCURVE",
"102 480 OFFCURVE",
"102 255 CURVE SMOOTH",
"102 114 OFFCURVE",
"214 -8 OFFCURVE",
"390 -8 CURVE SMOOTH"
);
}
);
};
guideLines = (
{
angle = 68;
position = "{781, 368}";
}
);
layerId = "A0758A2D-FE5C-4D8D-B7A5-83FAC1CB14BB";
paths = (
{
closed = 1;
nodes = (
"432 -8 OFFCURVE",
"494 4 OFFCURVE",
"547 14 CURVE SMOOTH",
"587 21 OFFCURVE",
"621 28 OFFCURVE",
"638 28 CURVE SMOOTH",
"648 28 OFFCURVE",
"655 27 OFFCURVE",
"655 27 CURVE",
"666 80 OFFCURVE",
"690 143 OFFCURVE",
"714 207 CURVE",
"694 207 LINE",
"599 35 OFFCURVE",
"459 18 OFFCURVE",
"402 18 CURVE SMOOTH",
"281 18 OFFCURVE",
"195 97 OFFCURVE",
"195 248 CURVE SMOOTH",
"195 431 OFFCURVE",
"337 657 OFFCURVE",
"549 657 CURVE SMOOTH",
"707 657 OFFCURVE",
"770 573 OFFCURVE",
"798 469 CURVE",
"818 469 LINE",
"814 536 OFFCURVE",
"822 589 OFFCURVE",
"845 641 CURVE",
"843 643 LINE",
"830 641 OFFCURVE",
"821 638 OFFCURVE",
"806 638 CURVE SMOOTH",
"779 638 OFFCURVE",
"759 646 OFFCURVE",
"733 656 CURVE SMOOTH",
"701 668 OFFCURVE",
"635 682 OFFCURVE",
"559 682 CURVE SMOOTH",
"305 682 OFFCURVE",
"102 480 OFFCURVE",
"102 255 CURVE SMOOTH",
"102 114 OFFCURVE",
"214 -8 OFFCURVE",
"390 -8 CURVE SMOOTH"
);
}
);
width = 767;
},
{
anchors = (
{
name = topcase;
position = "{579, 690}";
}
);
background = {
paths = (
{
closed = 1;
nodes = (
"444 -8 OFFCURVE",
"506 4 OFFCURVE",
"559 14 CURVE SMOOTH",
"599 21 OFFCURVE",
"633 28 OFFCURVE",
"650 28 CURVE SMOOTH",
"660 28 OFFCURVE",
"667 27 OFFCURVE",
"667 27 CURVE",
"678 80 OFFCURVE",
"702 143 OFFCURVE",
"726 207 CURVE",
"706 207 LINE",
"611 35 OFFCURVE",
"471 18 OFFCURVE",
"414 18 CURVE SMOOTH",
"293 18 OFFCURVE",
"207 97 OFFCURVE",
"207 248 CURVE SMOOTH",
"207 431 OFFCURVE",
"349 657 OFFCURVE",
"561 657 CURVE SMOOTH",
"720 657 OFFCURVE",
"782 565 OFFCURVE",
"810 469 CURVE",
"830 469 LINE",
"826 536 OFFCURVE",
"827 589 OFFCURVE",
"850 641 CURVE",
"848 643 LINE",
"835 641 OFFCURVE",
"826 638 OFFCURVE",
"811 638 CURVE SMOOTH",
"784 638 OFFCURVE",
"764 646 OFFCURVE",
"738 656 CURVE SMOOTH",
"706 668 OFFCURVE",
"647 682 OFFCURVE",
"571 682 CURVE SMOOTH",
"317 682 OFFCURVE",
"114 480 OFFCURVE",
"114 255 CURVE SMOOTH",
"114 114 OFFCURVE",
"226 -8 OFFCURVE",
"402 -8 CURVE SMOOTH"
);
}
);
};
layerId = "B3FC2A1D-D4D8-43EF-896F-5E7A9998234E";
paths = (
{
closed = 1;
nodes = (
"474 -8 OFFCURVE",
"527 2 OFFCURVE",
"564 12 CURVE SMOOTH",
"594 20 OFFCURVE",
"623 29 OFFCURVE",
"659 29 CURVE SMOOTH",
"663 29 OFFCURVE",
"666 29 OFFCURVE",
"670 29 CURVE",
"684 92 OFFCURVE",
"708 160 OFFCURVE",
"753 224 CURVE",
"722 224 LINE",
"652 114 OFFCURVE",
"542 26 OFFCURVE",
"418 26 CURVE SMOOTH",
"300 26 OFFCURVE",
"234 107 OFFCURVE",
"234 234 CURVE SMOOTH",
"234 407 OFFCURVE",
"368 648 OFFCURVE",
"565 648 CURVE SMOOTH",
"693 648 OFFCURVE",
"763 576 OFFCURVE",
"797 451 CURVE",
"822 451 LINE",
"817 514 OFFCURVE",
"816 585 OFFCURVE",
"842 640 CURVE",
"838 643 LINE",
"825 640 OFFCURVE",
"815 638 OFFCURVE",
"800 638 CURVE SMOOTH",
"770 638 OFFCURVE",
"747 647 OFFCURVE",
"720 657 CURVE SMOOTH",
"686 669 OFFCURVE",
"646 683 OFFCURVE",
"582 683 CURVE SMOOTH",
"326 683 OFFCURVE",
"85 494 OFFCURVE",
"85 262 CURVE SMOOTH",
"85 107 OFFCURVE",
"205 -8 OFFCURVE",
"409 -8 CURVE SMOOTH"
);
}
);
width = 777;
}
);
leftKerningGroup = O;
leftMetricsKey = O;
rightKerningGroup = C;
unicode = 0043;
},
{
glyphname = D;
lastChange = "2017-01-02 17:26:00 +0000";
layers = (
{
anchors = (
{
name = topcase;
position = "{548, 690}";
}
);
background = {
paths = (
{
closed = 1;
nodes = (
"270 0 LINE SMOOTH",
"501 0 OFFCURVE",
"724 123 OFFCURVE",
"809 335 CURVE SMOOTH",
"881 512 OFFCURVE",
"798 673 OFFCURVE",
"547 673 CURVE SMOOTH",
"226 673 LINE",
"219 655 LINE",
"275 644 LINE SMOOTH",
"326 634 OFFCURVE",
"332 627 OFFCURVE",
"315 585 CURVE SMOOTH",
"115 88 LINE SMOOTH",
"98 46 OFFCURVE",
"86 39 OFFCURVE",
"27 29 CURVE SMOOTH",
"-39 18 LINE",
"-46 0 LINE"
);
},
{
closed = 1;
nodes = (
"199 25 OFFCURVE",
"186 42 OFFCURVE",
"201 78 CURVE SMOOTH",
"431 649 LINE",
"513 649 LINE SMOOTH",
"717 649 OFFCURVE",
"793 540 OFFCURVE",
"710 335 CURVE SMOOTH",
"629 133 OFFCURVE",
"450 24 OFFCURVE",
"280 24 CURVE SMOOTH"
);
}
);
};
layerId = "A0758A2D-FE5C-4D8D-B7A5-83FAC1CB14BB";
paths = (
{
closed = 1;
nodes = (
"334 0 LINE SMOOTH",
"601 0 OFFCURVE",
"812 195 OFFCURVE",
"812 406 CURVE SMOOTH",
"812 581 OFFCURVE",
"689 673 OFFCURVE",
"519 673 CURVE SMOOTH",
"226 673 LINE",
"219 655 LINE",
"275 644 LINE SMOOTH",
"326 634 OFFCURVE",
"332 627 OFFCURVE",
"315 585 CURVE SMOOTH",
"115 88 LINE SMOOTH",
"98 46 OFFCURVE",
"86 39 OFFCURVE",
"27 29 CURVE SMOOTH",
"-39 18 LINE",
"-46 0 LINE"
);
},
{
closed = 1;
nodes = (
"212 24 OFFCURVE",
"185 38 OFFCURVE",
"203 83 CURVE SMOOTH",
"431 649 LINE",
"528 649 LINE SMOOTH",
"637 649 OFFCURVE",
"722 578 OFFCURVE",
"722 446 CURVE SMOOTH",
"722 179 OFFCURVE",
"550 24 OFFCURVE",
"305 24 CURVE SMOOTH"
);
}
);
width = 805;
},
{
anchors = (
{
name = topcase;
position = "{549, 690}";
}
);
background = {
paths = (
{
closed = 1;
nodes = (
"325 0 LINE SMOOTH",
"617 0 OFFCURVE",
"819 186 OFFCURVE",
"819 434 CURVE SMOOTH",
"819 558 OFFCURVE",
"720 673 OFFCURVE",
"519 673 CURVE SMOOTH",
"213 673 LINE",
"204 651 LINE",
"251 640 LINE SMOOTH",
"293 630 OFFCURVE",
"298 623 OFFCURVE",
"281 581 CURVE SMOOTH",
"83 92 LINE SMOOTH",
"66 50 OFFCURVE",
"55 43 OFFCURVE",
"5 33 CURVE SMOOTH",
"-50 22 LINE",
"-59 0 LINE"
);
},
{
closed = 1;
nodes = (
"230 33 OFFCURVE",
"207 53 OFFCURVE",
"223 92 CURVE SMOOTH",
"445 642 LINE",
"490 642 LINE SMOOTH",
"624 642 OFFCURVE",
"672 580 OFFCURVE",
"672 450 CURVE SMOOTH",
"672 229 OFFCURVE",
"552 33 OFFCURVE",
"289 33 CURVE SMOOTH"
);
}
);
};
layerId = "B3FC2A1D-D4D8-43EF-896F-5E7A9998234E";
paths = (
{
closed = 1;
nodes = (
"325 0 LINE SMOOTH",
"617 0 OFFCURVE",
"819 186 OFFCURVE",
"819 434 CURVE SMOOTH",
"819 558 OFFCURVE",
"720 673 OFFCURVE",
"519 673 CURVE SMOOTH",
"213 673 LINE",
"204 651 LINE",
"251 640 LINE SMOOTH",
"293 630 OFFCURVE",
"298 623 OFFCURVE",
"281 581 CURVE SMOOTH",
"83 92 LINE SMOOTH",
"66 50 OFFCURVE",
"55 43 OFFCURVE",
"5 33 CURVE SMOOTH",
"-50 22 LINE",
"-59 0 LINE"
);
},
{
closed = 1;
nodes = (
"230 33 OFFCURVE",
"207 53 OFFCURVE",
"223 92 CURVE SMOOTH",
"445 642 LINE",
"490 642 LINE SMOOTH",
"624 642 OFFCURVE",
"672 580 OFFCURVE",
"672 450 CURVE SMOOTH",
"672 229 OFFCURVE",
"552 33 OFFCURVE",
"289 33 CURVE SMOOTH"
);
}
);
width = 791;
}
);
leftKerningGroup = H;
leftMetricsKey = H;
rightKerningGroup = O;
rightMetricsKey = O;
unicode = 0044;
},
{
glyphname = Eth;
lastChange = "2017-01-02 17:27:56 +0000";
layers = (
{
components = (
{
name = D;
}
);
guideLines = (
{
angle = 68;
position = "{159, 503}";
}
);
layerId = "A0758A2D-FE5C-4D8D-B7A5-83FAC1CB14BB";
paths = (
{
closed = 1;
nodes = (
"428 321 LINE",
"442 356 LINE",
"99 356 LINE",
"85 321 LINE"
);
}
);
width = 805;
},
{
components = (
{
name = D;
}
);
guideLines = (
{
angle = 68;
position = "{145, 503}";
}
);
layerId = "B3FC2A1D-D4D8-43EF-896F-5E7A9998234E";
paths = (
{
closed = 1;
nodes = (
"429 323 LINE",
"451 378 LINE",
"94 378 LINE",
"72 323 LINE"
);
}
);
width = 791;
}
);
leftKerningGroup = H;
leftMetricsKey = D;
rightKerningGroup = O;
rightMetricsKey = D;
unicode = 00D0;
},
{
glyphname = E;
lastChange = "2015-12-04 17:57:05 +0000";
layers = (
{
anchors = (
{
name = topcase;
position = "{568, 690}";
}
);
layerId = "A0758A2D-FE5C-4D8D-B7A5-83FAC1CB14BB";
paths = (
{
closed = 1;
nodes = (
"533 0 LINE",
"555 52 OFFCURVE",
"590 118 OFFCURVE",
"632 180 CURVE",
"613 180 LINE",
"566 129 LINE SMOOTH",
"523 82 OFFCURVE",
"432 25 OFFCURVE",
"350 25 CURVE SMOOTH",
"258 25 LINE SMOOTH",
"194 25 OFFCURVE",
"187 41 OFFCURVE",
"206 90 CURVE SMOOTH",
"308 341 LINE",
"467 341 LINE SMOOTH",
"536 341 OFFCURVE",
"542 319 OFFCURVE",
"530 263 CURVE SMOOTH",
"520 216 LINE",
"538 216 LINE",
"651 494 LINE",
"633 494 LINE",
"605 447 LINE SMOOTH",
"571 391 OFFCURVE",
"547 369 OFFCURVE",
"478 369 CURVE SMOOTH",
"319 369 LINE",
"432 649 LINE",
"606 649 LINE SMOOTH",
"708 649 OFFCURVE",
"719 583 OFFCURVE",
"713 496 CURVE",
"733 496 LINE",
"741 524 OFFCURVE",
"747 568 OFFCURVE",
"766 617 CURVE SMOOTH",
"774 635 OFFCURVE",
"783 654 OFFCURVE",
"795 673 CURVE",
"226 673 LINE",
"219 655 LINE",
"275 644 LINE SMOOTH",
"326 634 OFFCURVE",
"332 627 OFFCURVE",
"315 585 CURVE SMOOTH",
"115 88 LINE SMOOTH",
"98 46 OFFCURVE",
"86 39 OFFCURVE",
"27 29 CURVE SMOOTH",
"-39 18 LINE",
"-46 0 LINE"
);
}
);
width = 685;
},
{
anchors = (
{
name = topcase;
position = "{516, 690}";
}
);
background = {
paths = (
{
closed = 1;
nodes = (
"526 0 LINE",
"551 61 OFFCURVE",
"586 121 OFFCURVE",
"624 180 CURVE",
"602 180 LINE",
"535 120 LINE SMOOTH",
"473 65 OFFCURVE",
"414 33 OFFCURVE",
"342 33 CURVE SMOOTH",
"268 33 LINE SMOOTH",
"199 33 OFFCURVE",
"210 60 OFFCURVE",
"234 119 CURVE SMOOTH",
"323 339 LINE",
"453 339 LINE SMOOTH",
"517 339 OFFCURVE",
"530 312 OFFCURVE",
"519 265 CURVE SMOOTH",
"509 217 LINE",
"531 217 LINE",
"643 494 LINE",
"621 494 LINE",
"594 448 LINE SMOOTH",
"567 400 OFFCURVE",
"531 372 OFFCURVE",
"464 372 CURVE SMOOTH",
"336 372 LINE",
"445 640 LINE",
"578 640 LINE SMOOTH",
"667 640 OFFCURVE",
"701 575 OFFCURVE",
"702 496 CURVE",
"724 496 LINE",
"735 539 OFFCURVE",
"742 577 OFFCURVE",
"759 618 CURVE SMOOTH",
"766 636 OFFCURVE",
"774 654 OFFCURVE",
"786 673 CURVE",
"213 673 LINE",
"204 651 LINE",
"251 640 LINE SMOOTH",
"293 630 OFFCURVE",
"298 623 OFFCURVE",
"281 581 CURVE SMOOTH",
"83 92 LINE SMOOTH",
"66 50 OFFCURVE",
"55 43 OFFCURVE",
"5 33 CURVE SMOOTH",
"-50 22 LINE",
"-59 0 LINE"
);
}
);
};
layerId = "B3FC2A1D-D4D8-43EF-896F-5E7A9998234E";
paths = (
{
closed = 1;
nodes = (
"526 0 LINE",
"551 61 OFFCURVE",
"586 121 OFFCURVE",
"624 180 CURVE",
"602 180 LINE",
"535 120 LINE SMOOTH",
"473 65 OFFCURVE",
"414 33 OFFCURVE",
"342 33 CURVE SMOOTH",
"268 33 LINE SMOOTH",
"199 33 OFFCURVE",
"210 60 OFFCURVE",
"234 119 CURVE SMOOTH",
"323 339 LINE",
"453 339 LINE SMOOTH",
"517 339 OFFCURVE",
"530 312 OFFCURVE",
"519 265 CURVE SMOOTH",
"509 217 LINE",
"531 217 LINE",
"643 494 LINE",
"621 494 LINE",
"594 448 LINE SMOOTH",
"567 400 OFFCURVE",
"531 372 OFFCURVE",
"464 372 CURVE SMOOTH",
"336 372 LINE",
"445 640 LINE",
"578 640 LINE SMOOTH",
"667 640 OFFCURVE",
"701 575 OFFCURVE",
"702 496 CURVE",
"724 496 LINE",
"735 539 OFFCURVE",
"742 577 OFFCURVE",
"759 618 CURVE SMOOTH",
"766 636 OFFCURVE",
"774 654 OFFCURVE",
"786 673 CURVE",
"213 673 LINE",
"204 651 LINE",
"251 640 LINE SMOOTH",
"293 630 OFFCURVE",
"298 623 OFFCURVE",
"281 581 CURVE SMOOTH",
"83 92 LINE SMOOTH",
"66 50 OFFCURVE",
"55 43 OFFCURVE",
"5 33 CURVE SMOOTH",
"-50 22 LINE",
"-59 0 LINE"
);
}
);
width = 671;
}
);
leftKerningGroup = H;
leftMetricsKey = H;
rightKerningGroup = E;
unicode = 0045;
},
{
glyphname = F;
lastChange = "2015-12-04 17:57:05 +0000";
layers = (
{
layerId = "A0758A2D-FE5C-4D8D-B7A5-83FAC1CB14BB";
paths = (
{
closed = 1;
nodes = (
"299 0 LINE",
"306 18 LINE",
"245 29 LINE SMOOTH",
"193 38 OFFCURVE",
"188 46 OFFCURVE",
"205 88 CURVE SMOOTH",
"299 321 LINE",
"433 321 LINE SMOOTH",
"491 321 OFFCURVE",
"539 321 OFFCURVE",
"521 241 CURVE SMOOTH",
"512 197 LINE",
"530 198 LINE",
"642 474 LINE",
"624 474 LINE",
"597 427 LINE SMOOTH",
"552 349 OFFCURVE",
"506 349 OFFCURVE",
"445 349 CURVE SMOOTH",
"311 349 LINE",
"432 649 LINE",
"619 649 LINE SMOOTH",
"710 649 OFFCURVE",
"721 554 OFFCURVE",
"713 496 CURVE",
"733 496 LINE",
"741 524 OFFCURVE",
"747 568 OFFCURVE",
"766 617 CURVE SMOOTH",
"774 635 OFFCURVE",
"783 654 OFFCURVE",
"795 673 CURVE",
"226 673 LINE",
"219 655 LINE",
"275 644 LINE SMOOTH",
"326 634 OFFCURVE",
"332 627 OFFCURVE",
"315 585 CURVE SMOOTH",
"115 88 LINE SMOOTH",
"98 46 OFFCURVE",
"86 39 OFFCURVE",
"27 29 CURVE SMOOTH",
"-39 18 LINE",
"-46 0 LINE"
);
}
);
width = 644;
},
{
layerId = "B3FC2A1D-D4D8-43EF-896F-5E7A9998234E";
paths = (
{
closed = 1;
nodes = (
"298 0 LINE",
"307 22 LINE",
"253 33 LINE SMOOTH",
"211 42 OFFCURVE",
"206 50 OFFCURVE",
"223 92 CURVE SMOOTH",
"315 319 LINE",
"445 319 LINE SMOOTH",
"509 319 OFFCURVE",
"522 292 OFFCURVE",
"511 245 CURVE SMOOTH",
"501 197 LINE",
"523 197 LINE",
"635 474 LINE",
"613 474 LINE",
"586 428 LINE SMOOTH",
"559 380 OFFCURVE",
"523 352 OFFCURVE",
"456 352 CURVE SMOOTH",
"328 352 LINE",
"445 640 LINE",
"577 640 LINE SMOOTH",
"666 640 OFFCURVE",
"700 575 OFFCURVE",
"701 496 CURVE",
"723 496 LINE",
"734 539 OFFCURVE",
"741 577 OFFCURVE",
"758 618 CURVE SMOOTH",
"765 636 OFFCURVE",
"773 654 OFFCURVE",
"785 673 CURVE",
"213 673 LINE",
"204 651 LINE",
"251 640 LINE SMOOTH",
"293 630 OFFCURVE",
"298 623 OFFCURVE",
"281 581 CURVE SMOOTH",
"83 92 LINE SMOOTH",
"66 50 OFFCURVE",
"55 43 OFFCURVE",
"5 33 CURVE SMOOTH",
"-50 22 LINE",
"-59 0 LINE"
);
}
);
width = 647;
}
);
leftKerningGroup = H;
leftMetricsKey = H;
unicode = 0046;
},
{
glyphname = G;
lastChange = "2017-01-02 17:26:00 +0000";
layers = (
{
anchors = (
{
name = topcase;
position = "{552, 690}";
}
);
background = {
paths = (
{
closed = 1;
nodes = (
"431 -8 OFFCURVE",
"493 4 OFFCURVE",
"546 14 CURVE SMOOTH",
"586 21 OFFCURVE",
"620 28 OFFCURVE",
"637 28 CURVE SMOOTH",
"647 28 OFFCURVE",
"654 27 OFFCURVE",
"654 27 CURVE",
"665 80 OFFCURVE",
"689 143 OFFCURVE",
"713 207 CURVE",
"693 207 LINE",
"598 35 OFFCURVE",
"458 18 OFFCURVE",
"401 18 CURVE SMOOTH",
"280 18 OFFCURVE",
"194 97 OFFCURVE",
"194 248 CURVE SMOOTH",
"194 431 OFFCURVE",
"336 657 OFFCURVE",
"548 657 CURVE SMOOTH",
"706 657 OFFCURVE",
"769 573 OFFCURVE",
"797 469 CURVE",
"817 469 LINE",
"813 536 OFFCURVE",
"821 589 OFFCURVE",
"844 641 CURVE",
"842 643 LINE",
"829 641 OFFCURVE",
"820 638 OFFCURVE",
"805 638 CURVE SMOOTH",
"778 638 OFFCURVE",
"758 646 OFFCURVE",
"732 656 CURVE SMOOTH",
"700 668 OFFCURVE",
"634 682 OFFCURVE",
"558 682 CURVE SMOOTH",
"304 682 OFFCURVE",
"101 480 OFFCURVE",
"101 255 CURVE SMOOTH",
"101 114 OFFCURVE",
"213 -8 OFFCURVE",
"389 -8 CURVE SMOOTH"
);
}
);
};
layerId = "A0758A2D-FE5C-4D8D-B7A5-83FAC1CB14BB";
paths = (
{
closed = 1;
nodes = (
"418 -6 OFFCURVE",
"452 -1 OFFCURVE",
"485 8 CURVE SMOOTH",
"526 17 OFFCURVE",
"563 25 OFFCURVE",
"584 25 CURVE SMOOTH",
"599 25 OFFCURVE",
"614 24 OFFCURVE",
"623 21 CURVE",
"629 24 LINE",
"706 215 LINE SMOOTH",
"723 257 OFFCURVE",
"735 264 OFFCURVE",
"794 274 CURVE SMOOTH",
"850 283 LINE",
"857 301 LINE",
"521 301 LINE",
"514 283 LINE",
"570 272 LINE SMOOTH",
"619 262 OFFCURVE",
"628 257 OFFCURVE",
"611 213 CURVE SMOOTH",
"557 75 LINE",
"501 37 OFFCURVE",
"442 21 OFFCURVE",
"390 21 CURVE SMOOTH",
"278 21 OFFCURVE",
"197 88 OFFCURVE",
"197 253 CURVE SMOOTH",
"197 462 OFFCURVE",
"357 657 OFFCURVE",
"551 657 CURVE SMOOTH",
"659 657 OFFCURVE",
"762 605 OFFCURVE",
"804 473 CURVE",
"824 472 LINE",
"822 484 OFFCURVE",
"821 497 OFFCURVE",
"821 510 CURVE SMOOTH",
"821 557 OFFCURVE",
"835 608 OFFCURVE",
"852 643 CURVE",
"850 645 LINE",
"845 643 OFFCURVE",
"828 642 OFFCURVE",
"811 642 CURVE SMOOTH",
"779 642 OFFCURVE",
"758 646 OFFCURVE",
"730 655 CURVE SMOOTH",
"678 672 OFFCURVE",
"615 681 OFFCURVE",
"548 681 CURVE SMOOTH",
"327 681 OFFCURVE",
"104 500 OFFCURVE",
"104 260 CURVE SMOOTH",
"104 84 OFFCURVE",
"242 -6 OFFCURVE",
"385 -6 CURVE SMOOTH"
);
}
);
width = 842;
},
{
anchors = (
{
name = topcase;
position = "{596, 690}";
}
);
background = {
paths = (
{
closed = 1;
nodes = (
"580 -11 OFFCURVE",
"826 147 OFFCURVE",
"826 408 CURVE SMOOTH",
"826 598 OFFCURVE",
"690 683 OFFCURVE",
"536 683 CURVE SMOOTH",
"328 683 OFFCURVE",
"85 527 OFFCURVE",
"85 265 CURVE SMOOTH",
"85 74 OFFCURVE",
"218 -11 OFFCURVE",
"371 -11 CURVE SMOOTH"
);
},
{
closed = 1;
nodes = (
"295 24 OFFCURVE",
"232 96 OFFCURVE",
"232 227 CURVE SMOOTH",
"232 508 OFFCURVE",
"396 648 OFFCURVE",
"522 648 CURVE SMOOTH",
"608 648 OFFCURVE",
"680 581 OFFCURVE",
"680 441 CURVE SMOOTH",
"680 178 OFFCURVE",
"531 24 OFFCURVE",
"396 24 CURVE SMOOTH"
);
}
);
};
layerId = "B3FC2A1D-D4D8-43EF-896F-5E7A9998234E";
paths = (
{
closed = 1;
nodes = (
"455 -11 OFFCURVE",
"512 4 OFFCURVE",
"551 16 CURVE SMOOTH",
"577 24 OFFCURVE",
"603 33 OFFCURVE",
"627 33 CURVE SMOOTH",
"650 33 OFFCURVE",
"655 31 OFFCURVE",
"672 27 CURVE",
"675 29 LINE",
"752 218 LINE SMOOTH",
"769 260 OFFCURVE",
"778 267 OFFCURVE",
"824 277 CURVE SMOOTH",
"874 288 LINE",
"883 310 LINE",
"544 310 LINE",
"535 288 LINE",
"582 277 LINE SMOOTH",
"624 267 OFFCURVE",
"629 260 OFFCURVE",
"612 218 CURVE SMOOTH",
"551 66 LINE",
"516 38 OFFCURVE",
"466 23 OFFCURVE",
"424 23 CURVE SMOOTH",
"295 24 OFFCURVE",
"232 96 OFFCURVE",
"232 221 CURVE SMOOTH",
"232 461 OFFCURVE",
"393 647 OFFCURVE",
"573 647 CURVE SMOOTH",
"696 647 OFFCURVE",
"772 584 OFFCURVE",
"794 468 CURVE",
"829 468 LINE",
"827 485 OFFCURVE",
"825 504 OFFCURVE",
"825 524 CURVE SMOOTH",
"825 564 OFFCURVE",
"832 606 OFFCURVE",
"851 637 CURVE",
"847 640 LINE",
"835 637 OFFCURVE",
"826 635 OFFCURVE",
"812 635 CURVE SMOOTH",
"784 635 OFFCURVE",
"765 644 OFFCURVE",
"741 654 CURVE SMOOTH",
"710 668 OFFCURVE",
"669 683 OFFCURVE",
"584 683 CURVE SMOOTH",
"282 683 OFFCURVE",
"84 476 OFFCURVE",
"84 249 CURVE SMOOTH",
"84 112 OFFCURVE",
"176 -11 OFFCURVE",
"390 -11 CURVE SMOOTH"
);
}
);
width = 852;
}
);
leftKerningGroup = O;
leftMetricsKey = O;
rightKerningGroup = G;
unicode = 0047;
},
{
glyphname = H;
lastChange = "2015-12-04 17:57:05 +0000";
layers = (
{
layerId = "A0758A2D-FE5C-4D8D-B7A5-83FAC1CB14BB";
paths = (
{
closed = 1;
nodes = (
"710 0 LINE",
"717 18 LINE",
"661 29 LINE SMOOTH",
"610 39 OFFCURVE",
"604 46 OFFCURVE",
"621 88 CURVE SMOOTH",
"821 585 LINE SMOOTH",
"838 627 OFFCURVE",
"850 634 OFFCURVE",
"909 644 CURVE SMOOTH",
"975 655 LINE",
"982 673 LINE",
"642 673 LINE",
"635 655 LINE",
"691 644 LINE SMOOTH",
"742 634 OFFCURVE",
"748 627 OFFCURVE",
"731 585 CURVE SMOOTH",
"531 88 LINE SMOOTH",
"514 46 OFFCURVE",
"502 39 OFFCURVE",
"443 29 CURVE SMOOTH",
"377 18 LINE",
"370 0 LINE"
);
},
{
closed = 1;
nodes = (
"294 0 LINE",
"301 18 LINE",
"245 29 LINE SMOOTH",
"194 39 OFFCURVE",
"188 46 OFFCURVE",
"205 88 CURVE SMOOTH",
"405 585 LINE SMOOTH",
"422 627 OFFCURVE",
"434 634 OFFCURVE",
"493 644 CURVE SMOOTH",
"559 655 LINE",
"566 673 LINE",
"226 673 LINE",
"219 655 LINE",
"275 644 LINE SMOOTH",
"326 634 OFFCURVE",
"332 627 OFFCURVE",
"315 585 CURVE SMOOTH",
"115 88 LINE SMOOTH",
"98 46 OFFCURVE",
"86 39 OFFCURVE",
"27 29 CURVE SMOOTH",
"-39 18 LINE",
"-46 0 LINE"
);
},
{
closed = 1;
nodes = (
"666 341 LINE",
"674 369 LINE",
"289 369 LINE",
"282 341 LINE"
);
}
);
width = 836;
},
{
layerId = "B3FC2A1D-D4D8-43EF-896F-5E7A9998234E";
paths = (
{
closed = 1;
nodes = (
"757 0 LINE",
"766 22 LINE",
"719 33 LINE SMOOTH",
"677 43 OFFCURVE",
"672 50 OFFCURVE",
"689 92 CURVE SMOOTH",
"887 581 LINE SMOOTH",
"904 623 OFFCURVE",
"915 630 OFFCURVE",
"965 640 CURVE SMOOTH",
"1020 651 LINE",
"1029 673 LINE",
"679 673 LINE",
"670 651 LINE",
"717 640 LINE SMOOTH",
"759 630 OFFCURVE",
"764 623 OFFCURVE",
"747 581 CURVE SMOOTH",
"549 92 LINE SMOOTH",
"532 50 OFFCURVE",
"521 43 OFFCURVE",
"471 33 CURVE SMOOTH",
"416 22 LINE",
"407 0 LINE"
);
},
{
closed = 1;
nodes = (
"291 0 LINE",
"300 22 LINE",
"253 33 LINE SMOOTH",
"211 43 OFFCURVE",
"206 50 OFFCURVE",
"223 92 CURVE SMOOTH",
"421 581 LINE SMOOTH",
"438 623 OFFCURVE",
"449 630 OFFCURVE",
"499 640 CURVE SMOOTH",
"554 651 LINE",
"563 673 LINE",
"213 673 LINE",
"204 651 LINE",
"251 640 LINE SMOOTH",
"293 630 OFFCURVE",
"298 623 OFFCURVE",
"281 581 CURVE SMOOTH",
"83 92 LINE SMOOTH",
"66 50 OFFCURVE",
"55 43 OFFCURVE",
"5 33 CURVE SMOOTH",
"-50 22 LINE",
"-59 0 LINE"
);
},
{
closed = 1;
nodes = (
"690 341 LINE",
"703 374 LINE",
"319 374 LINE",
"306 341 LINE"
);
}
);
width = 876;
}
);
leftKerningGroup = H;
leftMetricsKey = I;
rightKerningGroup = H;
rightMetricsKey = I;
unicode = 0048;
},
{
glyphname = Hbar;
lastChange = "2015-12-04 17:57:05 +0000";
layers = (
{
components = (
{
name = H;
}
);
layerId = "A0758A2D-FE5C-4D8D-B7A5-83FAC1CB14BB";
paths = (
{
closed = 1;
nodes = (
"872 490 LINE",
"887 528 LINE",
"202 528 LINE",
"187 490 LINE"
);
}
);
width = 836;
},
{
components = (
{
name = H;
}
);
layerId = "B3FC2A1D-D4D8-43EF-896F-5E7A9998234E";
paths = (
{
closed = 1;
nodes = (
"915 478 LINE",
"937 533 LINE",
"191 533 LINE",
"169 478 LINE"
);
}
);
width = 876;
}
);
leftKerningGroup = H;
leftMetricsKey = H;
rightKerningGroup = H;
rightMetricsKey = H;
unicode = 0126;
},
{
glyphname = I;
lastChange = "2015-12-04 17:57:05 +0000";
layers = (
{
anchors = (
{
name = topcase;
position = "{405, 690}";
}
);
layerId = "A0758A2D-FE5C-4D8D-B7A5-83FAC1CB14BB";
paths = (
{
closed = 1;
nodes = (
"294 0 LINE",
"301 18 LINE",
"245 29 LINE SMOOTH",
"194 39 OFFCURVE",
"188 46 OFFCURVE",
"205 88 CURVE SMOOTH",
"405 585 LINE SMOOTH",
"422 627 OFFCURVE",
"434 634 OFFCURVE",
"493 644 CURVE SMOOTH",
"559 655 LINE",
"566 673 LINE",
"226 673 LINE",
"219 655 LINE",
"275 644 LINE SMOOTH",
"326 634 OFFCURVE",
"332 627 OFFCURVE",
"315 585 CURVE SMOOTH",
"115 88 LINE SMOOTH",
"98 46 OFFCURVE",
"86 39 OFFCURVE",
"27 29 CURVE SMOOTH",
"-39 18 LINE",
"-46 0 LINE"
);
}
);
width = 420;
},
{
anchors = (
{
name = topcase;
position = "{392, 690}";
}
);
background = {
paths = (
{
closed = 1;
nodes = (
"288 0 LINE",
"295 18 LINE",
"239 29 LINE SMOOTH",
"188 39 OFFCURVE",
"182 46 OFFCURVE",
"199 88 CURVE SMOOTH",
"399 585 LINE SMOOTH",
"416 627 OFFCURVE",
"428 634 OFFCURVE",
"487 644 CURVE SMOOTH",
"553 655 LINE",
"560 673 LINE",
"220 673 LINE",
"213 655 LINE",
"269 644 LINE SMOOTH",
"320 634 OFFCURVE",
"326 627 OFFCURVE",
"309 585 CURVE SMOOTH",
"109 88 LINE SMOOTH",
"92 46 OFFCURVE",
"80 39 OFFCURVE",
"21 29 CURVE SMOOTH",
"-45 18 LINE",
"-52 0 LINE"
);
}
);
};
layerId = "B3FC2A1D-D4D8-43EF-896F-5E7A9998234E";
paths = (
{
closed = 1;
nodes = (
"291 0 LINE",
"300 22 LINE",
"253 33 LINE SMOOTH",
"211 43 OFFCURVE",
"206 50 OFFCURVE",
"223 92 CURVE SMOOTH",
"421 581 LINE SMOOTH",
"438 623 OFFCURVE",
"449 630 OFFCURVE",
"499 640 CURVE SMOOTH",
"554 651 LINE",
"563 673 LINE",
"213 673 LINE",
"204 651 LINE",
"251 640 LINE SMOOTH",
"293 630 OFFCURVE",
"298 623 OFFCURVE",
"281 581 CURVE SMOOTH",
"83 92 LINE SMOOTH",
"66 50 OFFCURVE",
"55 43 OFFCURVE",
"5 33 CURVE SMOOTH",
"-50 22 LINE",
"-59 0 LINE"
);
}
);
width = 410;
}
);
leftKerningGroup = H;
rightKerningGroup = H;
unicode = 0049;
},
{
glyphname = Igrave;
lastChange = "2015-12-04 17:57:05 +0000";
layers = (
{
components = (
{
name = I;
},
{
name = gravecomb.case;
transform = "{1, 0, 0, 1, -90, 0}";
}
);
layerId = "A0758A2D-FE5C-4D8D-B7A5-83FAC1CB14BB";
width = 420;
},
{
background = {
paths = (
{
closed = 1;
nodes = (
"617 779 LINE SMOOTH",
"641 784 OFFCURVE",
"656 798 OFFCURVE",
"661 815 CURVE SMOOTH",
"667 838 OFFCURVE",
"653 862 OFFCURVE",
"630 868 CURVE SMOOTH",
"615 872 OFFCURVE",
"602 868 OFFCURVE",
"586 860 CURVE SMOOTH",
"365 755 LINE",
"374 732 LINE"
);
}
);
};
components = (
{
name = I;
},
{
name = gravecomb.case;
transform = "{1, 0, 0, 1, -113, 0}";
}
);
layerId = "B3FC2A1D-D4D8-43EF-896F-5E7A9998234E";
width = 410;
}
);
leftKerningGroup = H;
rightKerningGroup = H;
unicode = 00CC;
},
{
glyphname = J;
lastChange = "2016-03-30 08:30:43 +0000";
layers = (
{
anchors = (
{
name = topcase;
position = "{445, 690}";
}
);
background = {
paths = (
{
closed = 1;
nodes = (
"45 -180 OFFCURVE",
"86 -131 OFFCURVE",
"113 -90 CURVE SMOOTH",
"133 -60 OFFCURVE",
"146 -35 OFFCURVE",
"166 -35 CURVE SMOOTH",
"168 -35 LINE",
"421 585 LINE SMOOTH",
"438 627 OFFCURVE",
"450 634 OFFCURVE",
"509 644 CURVE SMOOTH",
"575 655 LINE",
"582 673 LINE",
"242 673 LINE",
"235 655 LINE",
"291 644 LINE SMOOTH",
"342 634 OFFCURVE",
"348 627 OFFCURVE",
"331 585 CURVE SMOOTH",
"75 -50 LINE SMOOTH",
"48 -117 OFFCURVE",
"-4 -154 OFFCURVE",
"-45 -154 CURVE SMOOTH",
"-73 -154 OFFCURVE",
"-79 -144 OFFCURVE",
"-79 -136 CURVE SMOOTH",
"-79 -125 OFFCURVE",
"-71 -118 OFFCURVE",
"-62 -109 CURVE SMOOTH",
"-52 -99 OFFCURVE",
"-41 -87 OFFCURVE",
"-41 -68 CURVE SMOOTH",
"-41 -35 OFFCURVE",
"-62 -21 OFFCURVE",
"-89 -21 CURVE SMOOTH",
"-116 -21 OFFCURVE",
"-149 -39 OFFCURVE",
"-149 -79 CURVE SMOOTH",
"-149 -133 OFFCURVE",
"-105 -180 OFFCURVE",
"-42 -180 CURVE SMOOTH"
);
},
{
closed = 1;
nodes = (
"158 -178 OFFCURVE",
"195 -127 OFFCURVE",
"218 -86 CURVE SMOOTH",
"234 -58 OFFCURVE",
"245 -35 OFFCURVE",
"261 -35 CURVE SMOOTH",
"265 -35 LINE",
"265 585 LINE SMOOTH",
"265 627 OFFCURVE",
"274 634 OFFCURVE",
"329 644 CURVE SMOOTH",
"390 655 LINE",
"390 673 LINE",
"50 673 LINE",
"50 655 LINE",
"111 644 LINE SMOOTH",
"166 634 OFFCURVE",
"175 627 OFFCURVE",
"175 585 CURVE SMOOTH",
"175 -21 LINE SMOOTH",
"175 -120 OFFCURVE",
"132 -154 OFFCURVE",
"77 -154 CURVE SMOOTH",
"47 -154 OFFCURVE",
"23 -140 OFFCURVE",
"23 -129 CURVE SMOOTH",
"23 -128 OFFCURVE",
"24 -127 OFFCURVE",
"29 -127 CURVE SMOOTH",
"56 -127 OFFCURVE",
"75 -101 OFFCURVE",
"75 -75 CURVE SMOOTH",
"75 -47 OFFCURVE",
"57 -19 OFFCURVE",
"21 -19 CURVE SMOOTH",
"-7 -19 OFFCURVE",
"-35 -38 OFFCURVE",
"-35 -77 CURVE SMOOTH",
"-35 -123 OFFCURVE",
"10 -178 OFFCURVE",
"72 -178 CURVE SMOOTH"
);
}
);
};
guideLines = (
{
position = "{69, 25}";
}
);
layerId = "A0758A2D-FE5C-4D8D-B7A5-83FAC1CB14BB";
paths = (
{
closed = 1;
nodes = (
"46 -180 OFFCURVE",
"87 -131 OFFCURVE",
"114 -90 CURVE SMOOTH",
"134 -60 OFFCURVE",
"147 -35 OFFCURVE",
"167 -35 CURVE SMOOTH",
"169 -35 LINE",
"421 585 LINE SMOOTH",
"438 627 OFFCURVE",
"450 634 OFFCURVE",
"509 644 CURVE SMOOTH",
"575 655 LINE",
"582 673 LINE",
"242 673 LINE",
"235 655 LINE",
"291 644 LINE SMOOTH",
"342 634 OFFCURVE",
"348 627 OFFCURVE",
"331 585 CURVE SMOOTH",
"76 -50 LINE SMOOTH",
"49 -117 OFFCURVE",
"-3 -154 OFFCURVE",
"-44 -154 CURVE SMOOTH",
"-72 -154 OFFCURVE",
"-78 -144 OFFCURVE",
"-78 -136 CURVE SMOOTH",
"-78 -125 OFFCURVE",
"-70 -118 OFFCURVE",
"-61 -109 CURVE SMOOTH",
"-51 -99 OFFCURVE",
"-40 -87 OFFCURVE",
"-40 -68 CURVE SMOOTH",
"-40 -35 OFFCURVE",
"-61 -21 OFFCURVE",
"-88 -21 CURVE SMOOTH",
"-115 -21 OFFCURVE",
"-148 -39 OFFCURVE",
"-148 -79 CURVE SMOOTH",
"-148 -133 OFFCURVE",
"-104 -180 OFFCURVE",
"-41 -180 CURVE SMOOTH"
);
}
);
width = 421;
},
{
associatedMasterId = "A0758A2D-FE5C-4D8D-B7A5-83FAC1CB14BB";
layerId = "C5FE9A3E-6C03-413C-938E-03526F7CB2F4";
name = "Regular Italic Jun 11 15, 00:03";
paths = (
{
closed = 1;
nodes = (
"448 572 LINE SMOOTH",
"468 627 OFFCURVE",
"469 634 OFFCURVE",
"551 649 CURVE SMOOTH",
"601 658 LINE",
"606 673 LINE",
"272 673 LINE",
"267 658 LINE",
"322 647 LINE SMOOTH",
"371 638 OFFCURVE",
"374 630 OFFCURVE",
"374 616 CURVE SMOOTH",
"374 605 OFFCURVE",
"366 589 OFFCURVE",
"358 568 CURVE SMOOTH",
"135 2 LINE SMOOTH",
"103 -82 OFFCURVE",
"55 -93 OFFCURVE",
"18 -93 CURVE SMOOTH",
"-11 -93 OFFCURVE",
"-21 -80 OFFCURVE",
"-21 -72 CURVE SMOOTH",
"-21 -69 OFFCURVE",
"-19 -67 OFFCURVE",
"-14 -67 CURVE SMOOTH",
"14 -67 OFFCURVE",
"30 -35 OFFCURVE",
"30 -13 CURVE SMOOTH",
"30 13 OFFCURVE",
"9 41 OFFCURVE",
"-27 41 CURVE SMOOTH",
"-46 41 OFFCURVE",
"-80 26 OFFCURVE",
"-80 -18 CURVE SMOOTH",
"-80 -59 OFFCURVE",
"-52 -119 OFFCURVE",
"26 -119 CURVE SMOOTH",
"184 -119 OFFCURVE",
"191 42 OFFCURVE",
"240 42 CURVE"
);
}
);
width = 481;
},
{
anchors = (
{
name = topcase;
position = "{457, 690}";
}
);
background = {
paths = (
{
closed = 1;
nodes = (
"143 -203 OFFCURVE",
"185 -165 OFFCURVE",
"217 -113 CURVE SMOOTH",
"234 -88 OFFCURVE",
"244 -67 OFFCURVE",
"266 -67 CURVE SMOOTH",
"275 -67 LINE",
"275 581 LINE SMOOTH",
"275 623 OFFCURVE",
"283 630 OFFCURVE",
"329 640 CURVE SMOOTH",
"380 651 LINE",
"380 673 LINE",
"30 673 LINE",
"30 651 LINE",
"81 640 LINE SMOOTH",
"127 630 OFFCURVE",
"135 623 OFFCURVE",
"135 581 CURVE SMOOTH",
"135 -52 LINE SMOOTH",
"135 -137 OFFCURVE",
"96 -166 OFFCURVE",
"46 -166 CURVE SMOOTH",
"22 -166 OFFCURVE",
"3 -156 OFFCURVE",
"3 -149 CURVE SMOOTH",
"3 -146 OFFCURVE",
"6 -144 OFFCURVE",
"10 -144 CURVE SMOOTH",
"43 -144 OFFCURVE",
"71 -112 OFFCURVE",
"71 -80 CURVE SMOOTH",
"71 -44 OFFCURVE",
"50 -11 OFFCURVE",
"-3 -11 CURVE SMOOTH",
"-40 -11 OFFCURVE",
"-79 -39 OFFCURVE",
"-79 -95 CURVE SMOOTH",
"-79 -143 OFFCURVE",
"-23 -203 OFFCURVE",
"50 -203 CURVE SMOOTH"
);
},
{
closed = 1;
nodes = (
"29 -181 OFFCURVE",
"102 -144 OFFCURVE",
"155 -89 CURVE SMOOTH",
"182 -60 OFFCURVE",
"205 -37 OFFCURVE",
"224 -37 CURVE SMOOTH",
"226 -37 LINE",
"475 581 LINE SMOOTH",
"492 623 OFFCURVE",
"503 630 OFFCURVE",
"553 640 CURVE SMOOTH",
"608 651 LINE",
"617 673 LINE",
"267 673 LINE",
"258 651 LINE",
"305 640 LINE SMOOTH",
"347 630 OFFCURVE",
"352 623 OFFCURVE",
"335 581 CURVE SMOOTH",
"90 -27 LINE SMOOTH",
"57 -108 OFFCURVE",
"15 -138 OFFCURVE",
"-8 -138 CURVE SMOOTH",
"-24 -138 OFFCURVE",
"-40 -135 OFFCURVE",
"-40 -123 CURVE SMOOTH",
"-40 -116 OFFCURVE",
"-31 -109 OFFCURVE",
"-21 -100 CURVE SMOOTH",
"-8 -87 OFFCURVE",
"8 -71 OFFCURVE",
"8 -45 CURVE SMOOTH",
"8 -4 OFFCURVE",
"-21 14 OFFCURVE",
"-55 14 CURVE SMOOTH",
"-100 14 OFFCURVE",
"-146 -11 OFFCURVE",
"-146 -85 CURVE SMOOTH",
"-146 -145 OFFCURVE",
"-92 -181 OFFCURVE",
"-38 -181 CURVE SMOOTH"
);
}
);
};
layerId = "B3FC2A1D-D4D8-43EF-896F-5E7A9998234E";
paths = (
{
closed = 1;
nodes = (
"19 -202 OFFCURVE",
"92 -165 OFFCURVE",
"145 -110 CURVE SMOOTH",
"172 -81 OFFCURVE",
"195 -58 OFFCURVE",
"214 -58 CURVE SMOOTH",
"216 -58 LINE",
"475 581 LINE SMOOTH",
"492 623 OFFCURVE",
"503 630 OFFCURVE",
"553 640 CURVE SMOOTH",
"608 651 LINE",
"617 673 LINE",
"267 673 LINE",
"258 651 LINE",
"305 640 LINE SMOOTH",
"347 630 OFFCURVE",
"352 623 OFFCURVE",
"335 581 CURVE SMOOTH",
"80 -48 LINE SMOOTH",
"47 -129 OFFCURVE",
"5 -159 OFFCURVE",
"-18 -159 CURVE SMOOTH",
"-34 -159 OFFCURVE",
"-50 -156 OFFCURVE",
"-50 -144 CURVE SMOOTH",
"-50 -137 OFFCURVE",
"-41 -130 OFFCURVE",
"-31 -121 CURVE SMOOTH",
"-18 -108 OFFCURVE",
"-2 -92 OFFCURVE",
"-2 -66 CURVE SMOOTH",
"-2 -25 OFFCURVE",
"-31 -7 OFFCURVE",
"-65 -7 CURVE SMOOTH",
"-110 -7 OFFCURVE",
"-156 -32 OFFCURVE",
"-156 -106 CURVE SMOOTH",
"-156 -166 OFFCURVE",
"-102 -202 OFFCURVE",
"-48 -202 CURVE SMOOTH"
);
}
);
width = 454;
}
);
leftKerningGroup = J;
rightKerningGroup = U;
unicode = 004A;
},
{
glyphname = K;
lastChange = "2015-12-04 17:57:05 +0000";
layers = (
{
background = {
paths = (
{
closed = 1;
nodes = (
"293 0 LINE",
"300 18 LINE",
"244 29 LINE SMOOTH",
"193 39 OFFCURVE",
"187 46 OFFCURVE",
"204 88 CURVE SMOOTH",
"278 272 LINE",
"370 333 LINE",
"516 51 LINE SMOOTH",
"535 13 OFFCURVE",
"563 0 OFFCURVE",
"619 0 CURVE SMOOTH",
"697 0 LINE",
"704 18 LINE",
"674 24 OFFCURVE",
"658 30 OFFCURVE",
"645 55 CURVE SMOOTH",
"475 404 LINE",
"725 564 LINE SMOOTH",
"806 616 OFFCURVE",
"840 634 OFFCURVE",
"896 645 CURVE SMOOTH",
"946 655 LINE",
"953 673 LINE",
"692 673 LINE",
"685 655 LINE",
"722 647 LINE SMOOTH",
"772 636 OFFCURVE",
"773 623 OFFCURVE",
"718 588 CURVE SMOOTH",
"294 311 LINE",
"404 585 LINE SMOOTH",
"421 627 OFFCURVE",
"433 634 OFFCURVE",
"492 644 CURVE SMOOTH",
"558 655 LINE",
"565 673 LINE",
"225 673 LINE",
"218 655 LINE",
"274 644 LINE SMOOTH",
"325 634 OFFCURVE",
"331 627 OFFCURVE",
"314 585 CURVE SMOOTH",
"114 88 LINE SMOOTH",
"97 46 OFFCURVE",
"85 39 OFFCURVE",
"26 29 CURVE SMOOTH",
"-40 18 LINE",
"-47 0 LINE"
);
}
);
};
layerId = "A0758A2D-FE5C-4D8D-B7A5-83FAC1CB14BB";
paths = (
{
closed = 1;
nodes = (
"708 0 LINE",
"715 18 LINE",
"685 24 OFFCURVE",
"674 33 OFFCURVE",
"656 55 CURVE SMOOTH",
"404 351 LINE",
"706 564 LINE SMOOTH",
"784 619 OFFCURVE",
"821 634 OFFCURVE",
"877 645 CURVE SMOOTH",
"927 655 LINE",
"934 673 LINE",
"669 673 LINE",
"662 655 LINE",
"699 647 LINE SMOOTH",
"726 641 OFFCURVE",
"739 636 OFFCURVE",
"739 628 CURVE SMOOTH",
"739 616 OFFCURVE",
"716 602 OFFCURVE",
"695 588 CURVE SMOOTH",
"323 329 LINE",
"320 321 LINE",
"550 48 LINE SMOOTH",
"577 15 OFFCURVE",
"607 0 OFFCURVE",
"663 0 CURVE SMOOTH"
);
},
{
closed = 1;
nodes = (
"294 0 LINE",
"301 18 LINE",
"245 29 LINE SMOOTH",
"193 39 OFFCURVE",
"188 44 OFFCURVE",
"205 88 CURVE SMOOTH",
"405 585 LINE SMOOTH",
"422 627 OFFCURVE",
"434 634 OFFCURVE",
"493 644 CURVE SMOOTH",
"559 655 LINE",
"566 673 LINE",
"226 673 LINE",
"219 655 LINE",
"275 644 LINE SMOOTH",
"327 634 OFFCURVE",
"332 629 OFFCURVE",
"315 585 CURVE SMOOTH",
"115 88 LINE SMOOTH",
"98 46 OFFCURVE",
"86 39 OFFCURVE",
"27 29 CURVE SMOOTH",
"-39 18 LINE",
"-46 0 LINE"
);
}
);
width = 809;
},
{
associatedMasterId = "A0758A2D-FE5C-4D8D-B7A5-83FAC1CB14BB";
layerId = "1B82B6D3-9D3A-4F71-9816-689B3AF746D8";
name = "Regular Italic Jun 10 15, 22:55";
paths = (
{
closed = 1;
nodes = (
"298 349 LINE",
"544 78 LINE",
"589 21 OFFCURVE",
"634 0 OFFCURVE",
"723 0 CURVE SMOOTH",
"734 0 OFFCURVE",
"759 0 OFFCURVE",
"759 0 CURVE",
"764 15 LINE",
"713 16 OFFCURVE",
"672 53 OFFCURVE",
"644 85 CURVE SMOOTH",
"382 376 LINE",
"608 547 LINE SMOOTH",
"684 604 OFFCURVE",
"757 657 OFFCURVE",
"839 657 CURVE",
"844 673 LINE",
"591 673 LINE",
"586 658 LINE",
"618 658 OFFCURVE",
"645 645 OFFCURVE",
"645 626 CURVE SMOOTH",
"645 608 OFFCURVE",
"627 594 OFFCURVE",
"612 582 CURVE"
);
},
{
closed = 1;
nodes = (
"386 575 LINE SMOOTH",
"408 634 OFFCURVE",
"408 635 OFFCURVE",
"495 650 CURVE SMOOTH",
"537 658 LINE",
"542 673 LINE",
"208 673 LINE",
"203 658 LINE",
"243 650 LINE SMOOTH",
"293 640 OFFCURVE",
"310 637 OFFCURVE",
"310 619 CURVE SMOOTH",
"310 609 OFFCURVE",
"305 596 OFFCURVE",
"297 575 CURVE SMOOTH",
"109 99 LINE SMOOTH",
"88 40 OFFCURVE",
"88 38 OFFCURVE",
"0 23 CURVE SMOOTH",
"-42 15 LINE",
"-47 0 LINE",
"288 0 LINE",
"293 15 LINE",
"253 23 LINE SMOOTH",
"204 33 OFFCURVE",
"185 34 OFFCURVE",
"185 52 CURVE SMOOTH",
"185 62 OFFCURVE",
"189 76 OFFCURVE",
"197 96 CURVE SMOOTH"
);
}
);
width = 860;
},
{
background = {
paths = (
{
closed = 1;
nodes = (
"690 0 LINE",
"699 23 LINE",
"663 23 OFFCURVE",
"650 37 OFFCURVE",
"634 64 CURVE SMOOTH",
"454 373 LINE",
"743 582 LINE SMOOTH",
"802 625 OFFCURVE",
"832 635 OFFCURVE",
"874 644 CURVE SMOOTH",
"907 651 LINE",
"916 673 LINE",
"647 673 LINE",
"638 651 LINE",
"711 636 LINE SMOOTH",
"723 634 OFFCURVE",
"728 629 OFFCURVE",
"728 622 CURVE SMOOTH",
"728 614 OFFCURVE",
"720 605 OFFCURVE",
"709 597 CURVE SMOOTH",
"339 333 LINE",
"335 324 LINE",
"491 61 LINE SMOOTH",
"514 22 OFFCURVE",
"542 0 OFFCURVE",
"598 0 CURVE SMOOTH"
);
},
{
closed = 1;
nodes = (
"291 0 LINE",
"300 22 LINE",
"253 33 LINE SMOOTH",
"213 43 OFFCURVE",
"205 48 OFFCURVE",
"223 92 CURVE SMOOTH",
"421 581 LINE SMOOTH",
"438 623 OFFCURVE",
"449 630 OFFCURVE",
"499 640 CURVE SMOOTH",
"554 651 LINE",
"563 673 LINE",
"213 673 LINE",
"204 651 LINE",
"251 640 LINE SMOOTH",
"291 630 OFFCURVE",
"299 625 OFFCURVE",
"281 581 CURVE SMOOTH",
"83 92 LINE SMOOTH",
"66 50 OFFCURVE",
"55 43 OFFCURVE",
"5 33 CURVE SMOOTH",
"-50 22 LINE",
"-59 0 LINE"
);
}
);
};
layerId = "B3FC2A1D-D4D8-43EF-896F-5E7A9998234E";
paths = (
{
closed = 1;
nodes = (
"690 0 LINE",
"699 23 LINE",
"663 23 OFFCURVE",
"650 37 OFFCURVE",
"634 64 CURVE SMOOTH",
"454 373 LINE",
"743 582 LINE SMOOTH",
"802 625 OFFCURVE",
"832 635 OFFCURVE",
"874 644 CURVE SMOOTH",
"907 651 LINE",
"916 673 LINE",
"647 673 LINE",
"638 651 LINE",
"711 636 LINE SMOOTH",
"723 634 OFFCURVE",
"728 629 OFFCURVE",
"728 622 CURVE SMOOTH",
"728 614 OFFCURVE",
"720 605 OFFCURVE",
"709 597 CURVE SMOOTH",
"339 333 LINE",
"335 324 LINE",
"485 71 LINE SMOOTH",
"511 28 OFFCURVE",
"552 0 OFFCURVE",
"624 0 CURVE SMOOTH"
);
},
{
closed = 1;
nodes = (
"291 0 LINE",
"300 22 LINE",
"253 33 LINE SMOOTH",
"213 43 OFFCURVE",
"205 48 OFFCURVE",
"223 92 CURVE SMOOTH",
"421 581 LINE SMOOTH",
"438 623 OFFCURVE",
"449 630 OFFCURVE",
"499 640 CURVE SMOOTH",
"554 651 LINE",
"563 673 LINE",
"213 673 LINE",
"204 651 LINE",
"251 640 LINE SMOOTH",
"291 630 OFFCURVE",
"299 625 OFFCURVE",
"281 581 CURVE SMOOTH",
"83 92 LINE SMOOTH",
"66 50 OFFCURVE",
"55 43 OFFCURVE",
"5 33 CURVE SMOOTH",
"-50 22 LINE",
"-59 0 LINE"
);
}
);
width = 789;
}
);
leftKerningGroup = H;
leftMetricsKey = H;
rightKerningGroup = K;
unicode = 004B;
},
{
glyphname = L;
lastChange = "2015-12-04 17:57:05 +0000";
layers = (
{
anchors = (
{
name = topcase;
position = "{396, 690}";
}
);
background = {
paths = (
{
closed = 1;
nodes = (
"631 0 LINE",
"654 57 OFFCURVE",
"691 117 OFFCURVE",
"726 173 CURVE",
"727 176 OFFCURVE",
"729 177 OFFCURVE",
"730 180 CURVE",
"711 180 LINE",
"700 167 LINE",
"656 111 OFFCURVE",
"548 25 OFFCURVE",
"454 25 CURVE SMOOTH",
"231 25 OFFCURVE",
"223 11 OFFCURVE",
"259 98 CURVE SMOOTH",
"450 571 LINE SMOOTH",
"474 630 OFFCURVE",
"474 632 OFFCURVE",
"562 647 CURVE SMOOTH",
"609 655 LINE",
"616 673 LINE",
"276 673 LINE",
"269 655 LINE",
"308 647 LINE SMOOTH",
"384 632 OFFCURVE",
"384 630 OFFCURVE",
"360 571 CURVE SMOOTH",
"170 101 LINE SMOOTH",
"146 42 OFFCURVE",
"146 41 OFFCURVE",
"58 26 CURVE SMOOTH",
"11 18 LINE",
"4 0 LINE"
);
}
);
};
layerId = "A0758A2D-FE5C-4D8D-B7A5-83FAC1CB14BB";
paths = (
{
closed = 1;
nodes = (
"582 0 LINE",
"604 52 OFFCURVE",
"639 118 OFFCURVE",
"681 180 CURVE",
"662 180 LINE",
"615 129 LINE SMOOTH",
"572 82 OFFCURVE",
"481 25 OFFCURVE",
"399 25 CURVE SMOOTH",
"258 25 LINE SMOOTH",
"194 25 OFFCURVE",
"186 41 OFFCURVE",
"205 90 CURVE SMOOTH",
"405 585 LINE SMOOTH",
"422 627 OFFCURVE",
"434 634 OFFCURVE",
"493 644 CURVE SMOOTH",
"559 655 LINE",
"566 673 LINE",
"226 673 LINE",
"219 655 LINE",
"275 644 LINE SMOOTH",
"326 634 OFFCURVE",
"332 627 OFFCURVE",
"315 585 CURVE SMOOTH",
"115 88 LINE SMOOTH",
"98 46 OFFCURVE",
"86 39 OFFCURVE",
"27 29 CURVE SMOOTH",
"-39 18 LINE",
"-46 0 LINE"
);
}
);
width = 704;
},
{
anchors = (
{
name = topcase;
position = "{392, 690}";
}
);
background = {
paths = (
{
closed = 1;
nodes = (
"628 0 LINE",
"653 61 OFFCURVE",
"699 138 OFFCURVE",
"737 197 CURVE",
"715 197 LINE",
"637 120 LINE SMOOTH",
"578 62 OFFCURVE",
"520 33 OFFCURVE",
"444 33 CURVE SMOOTH",
"318 33 LINE SMOOTH",
"265 33 OFFCURVE",
"259 56 OFFCURVE",
"273 92 CURVE SMOOTH",
"471 581 LINE SMOOTH",
"488 623 OFFCURVE",
"499 630 OFFCURVE",
"549 640 CURVE SMOOTH",
"604 651 LINE",
"613 673 LINE",
"263 673 LINE",
"254 651 LINE",
"301 640 LINE SMOOTH",
"343 630 OFFCURVE",
"348 623 OFFCURVE",
"331 581 CURVE SMOOTH",
"133 92 LINE SMOOTH",
"116 50 OFFCURVE",
"105 43 OFFCURVE",
"55 33 CURVE SMOOTH",
"0 22 LINE",
"-9 0 LINE"
);
}
);
};
layerId = "B3FC2A1D-D4D8-43EF-896F-5E7A9998234E";
paths = (
{
closed = 1;
nodes = (
"578 0 LINE",
"603 61 OFFCURVE",
"649 138 OFFCURVE",
"687 197 CURVE",
"665 197 LINE",
"587 120 LINE SMOOTH",
"528 62 OFFCURVE",
"470 33 OFFCURVE",
"394 33 CURVE SMOOTH",
"268 33 LINE SMOOTH",
"215 33 OFFCURVE",
"209 56 OFFCURVE",
"223 92 CURVE SMOOTH",
"421 581 LINE SMOOTH",
"438 623 OFFCURVE",
"449 630 OFFCURVE",
"499 640 CURVE SMOOTH",
"554 651 LINE",
"563 673 LINE",
"213 673 LINE",
"204 651 LINE",
"251 640 LINE SMOOTH",
"293 630 OFFCURVE",
"298 623 OFFCURVE",
"281 581 CURVE SMOOTH",
"83 92 LINE SMOOTH",
"66 50 OFFCURVE",
"55 43 OFFCURVE",
"5 33 CURVE SMOOTH",
"-50 22 LINE",
"-59 0 LINE"
);
}
);
width = 702;
}
);
leftKerningGroup = H;
leftMetricsKey = H;
rightKerningGroup = L;
unicode = 004C;
},
{
glyphname = Lcaron;
lastChange = "2015-12-04 17:57:05 +0000";
layers = (
{
background = {
paths = (
{
closed = 1;
nodes = (
"584 0 LINE",
"606 52 OFFCURVE",
"640 118 OFFCURVE",
"683 180 CURVE",
"664 180 LINE",
"617 129 LINE SMOOTH",
"574 82 OFFCURVE",
"483 25 OFFCURVE",
"401 25 CURVE SMOOTH",
"260 25 LINE SMOOTH",
"196 25 OFFCURVE",
"187 41 OFFCURVE",
"207 90 CURVE SMOOTH",
"407 585 LINE SMOOTH",
"424 627 OFFCURVE",
"436 634 OFFCURVE",
"495 644 CURVE SMOOTH",
"560 655 LINE",
"568 673 LINE",
"228 673 LINE",
"220 655 LINE",
"277 644 LINE SMOOTH",
"328 634 OFFCURVE",
"334 627 OFFCURVE",
"317 585 CURVE SMOOTH",
"116 88 LINE SMOOTH",
"99 46 OFFCURVE",
"88 39 OFFCURVE",
"29 29 CURVE SMOOTH",
"-37 18 LINE",
"-44 0 LINE"
);
},
{
closed = 1;
nodes = (
"750 643 LINE SMOOTH",
"755 649 OFFCURVE",
"762 656 OFFCURVE",
"765 665 CURVE SMOOTH",
"772 682 OFFCURVE",
"767 699 OFFCURVE",
"744 699 CURVE SMOOTH",
"729 699 OFFCURVE",
"711 688 OFFCURVE",
"702 673 CURVE SMOOTH",
"577 479 LINE",
"599 473 LINE"
);
}
);
};
components = (
{
name = L;
},
{
name = caroncomb.alt;
transform = "{1, 0, 0, 1, 270, 0}";
}
);
layerId = "A0758A2D-FE5C-4D8D-B7A5-83FAC1CB14BB";
width = 704;
},
{
components = (
{
name = L;
},
{
name = caroncomb.alt;
transform = "{1, 0, 0, 1, 214, -4}";
}
);
layerId = "B3FC2A1D-D4D8-43EF-896F-5E7A9998234E";
width = 702;
}
);
leftKerningGroup = H;
rightKerningGroup = L;
unicode = 013D;
},
{
glyphname = Lslash;
lastChange = "2015-12-04 17:57:05 +0000";
layers = (
{
background = {
paths = (
{
closed = 1;
nodes = (
"547 365 LINE",
"564 409 LINE",
"6 252 LINE",
"-12 208 LINE"
);
},
{
closed = 1;
nodes = (
"532 0 LINE",
"554 52 OFFCURVE",
"589 118 OFFCURVE",
"631 180 CURVE",
"612 180 LINE",
"565 129 LINE SMOOTH",
"522 82 OFFCURVE",
"431 25 OFFCURVE",
"349 25 CURVE SMOOTH",
"208 25 LINE SMOOTH",
"144 25 OFFCURVE",
"136 41 OFFCURVE",
"155 90 CURVE SMOOTH",
"355 585 LINE SMOOTH",
"372 627 OFFCURVE",
"384 634 OFFCURVE",
"443 644 CURVE SMOOTH",
"509 655 LINE",
"516 673 LINE",
"176 673 LINE",
"169 655 LINE",
"225 644 LINE SMOOTH",
"276 634 OFFCURVE",
"282 627 OFFCURVE",
"265 585 CURVE SMOOTH",
"65 88 LINE SMOOTH",
"48 46 OFFCURVE",
"36 39 OFFCURVE",
"-23 29 CURVE SMOOTH",
"-89 18 LINE",
"-96 0 LINE"
);
}
);
};
components = (
{
name = L;
}
);
guideLines = (
{
angle = 68;
position = "{105, 372}";
}
);
layerId = "A0758A2D-FE5C-4D8D-B7A5-83FAC1CB14BB";
paths = (
{
closed = 1;
nodes = (
"596 362 LINE",
"616 412 LINE",
"58 255 LINE",
"37 205 LINE"
);
}
);
width = 704;
},
{
components = (
{
name = L;
}
);
layerId = "B3FC2A1D-D4D8-43EF-896F-5E7A9998234E";
paths = (
{
closed = 1;
nodes = (
"625 371 LINE",
"648 428 LINE",
"47 259 LINE",
"24 202 LINE"
);
}
);
width = 702;
}
);
leftKerningGroup = H;
rightKerningGroup = L;
unicode = 0141;
},
{
glyphname = M;
lastChange = "2015-12-04 17:57:05 +0000";
layers = (
{
layerId = "A0758A2D-FE5C-4D8D-B7A5-83FAC1CB14BB";
paths = (
{
closed = 1;
nodes = (
"366 -9 LINE",
"829 562 LINE",
"639 65 LINE SMOOTH",
"631 44 OFFCURVE",
"621 36 OFFCURVE",
"593 31 CURVE SMOOTH",
"518 18 LINE",
"510 0 LINE",
"833 0 LINE",
"841 18 LINE",
"784 29 LINE SMOOTH",
"733 39 OFFCURVE",
"728 46 OFFCURVE",
"744 88 CURVE SMOOTH",
"929 578 LINE SMOOTH",
"946 623 OFFCURVE",
"963 636 OFFCURVE",
"1020 645 CURVE SMOOTH",
"1084 655 LINE",
"1091 673 LINE",
"883 673 LINE",
"447 143 LINE",
"442 673 LINE",
"250 673 LINE",
"243 655 LINE",
"282 647 LINE SMOOTH",
"330 636 OFFCURVE",
"336 621 OFFCURVE",
"318 579 CURVE SMOOTH",
"109 89 LINE SMOOTH",
"91 47 OFFCURVE",
"81 41 OFFCURVE",
"22 30 CURVE SMOOTH",
"-43 18 LINE",
"-51 0 LINE",
"227 0 LINE",
"235 18 LINE",
"177 30 LINE SMOOTH",
"127 41 OFFCURVE",
"119 48 OFFCURVE",
"137 89 CURVE SMOOTH",
"352 586 LINE",
"359 -9 LINE"
);
}
);
width = 955;
},
{
layerId = "B3FC2A1D-D4D8-43EF-896F-5E7A9998234E";
paths = (
{
closed = 1;
nodes = (
"365 -6 LINE",
"825 561 LINE",
"654 92 LINE SMOOTH",
"639 50 OFFCURVE",
"626 43 OFFCURVE",
"576 33 CURVE SMOOTH",
"521 22 LINE",
"512 0 LINE",
"860 0 LINE",
"869 22 LINE",
"822 33 LINE SMOOTH",
"780 43 OFFCURVE",
"777 50 OFFCURVE",
"792 92 CURVE SMOOTH",
"971 581 LINE SMOOTH",
"986 623 OFFCURVE",
"999 630 OFFCURVE",
"1049 640 CURVE SMOOTH",
"1105 651 LINE",
"1114 673 LINE",
"872 673 LINE",
"478 185 LINE",
"472 673 LINE",
"239 673 LINE",
"230 651 LINE",
"274 640 LINE SMOOTH",
"316 630 OFFCURVE",
"323 623 OFFCURVE",
"304 581 CURVE SMOOTH",
"89 92 LINE SMOOTH",
"73 56 OFFCURVE",
"51 43 OFFCURVE",
"13 35 CURVE SMOOTH",
"-50 22 LINE",
"-59 0 LINE",
"215 0 LINE",
"224 22 LINE",
"157 37 LINE SMOOTH",
"124 44 OFFCURVE",
"110 59 OFFCURVE",
"125 92 CURVE SMOOTH",
"342 578 LINE",
"350 -6 LINE"
);
}
);
width = 979;
}
);
leftKerningGroup = M;
rightKerningGroup = M;
unicode = 004D;
},
{
glyphname = N;
lastChange = "2015-12-04 17:57:05 +0000";
layers = (
{
anchors = (
{
name = topcase;
position = "{612, 690}";
}
);
layerId = "A0758A2D-FE5C-4D8D-B7A5-83FAC1CB14BB";
paths = (
{
closed = 1;
nodes = (
"614 -16 LINE",
"855 581 LINE SMOOTH",
"872 623 OFFCURVE",
"885 634 OFFCURVE",
"944 644 CURVE SMOOTH",
"1010 655 LINE",
"1017 673 LINE",
"738 673 LINE",
"731 655 LINE",
"787 644 LINE SMOOTH",
"838 634 OFFCURVE",
"842 620 OFFCURVE",
"825 578 CURVE SMOOTH",
"642 122 LINE",
"390 673 LINE",
"226 673 LINE",
"219 656 LINE",
"263 647 LINE SMOOTH",
"332 633 OFFCURVE",
"332 624 OFFCURVE",
"314 578 CURVE SMOOTH",
"117 92 LINE SMOOTH",
"100 50 OFFCURVE",
"87 39 OFFCURVE",
"28 29 CURVE SMOOTH",
"-37 18 LINE",
"-45 0 LINE",
"234 0 LINE",
"242 18 LINE",
"185 29 LINE SMOOTH",
"134 39 OFFCURVE",
"131 53 OFFCURVE",
"148 95 CURVE SMOOTH",
"340 567 LINE",
"606 -16 LINE"
);
}
);
width = 856;
},
{
anchors = (
{
name = topcase;
position = "{613, 690}";
}
);
background = {
paths = (
{
closed = 1;
nodes = (
"749 205 LINE",
"738 227 LINE",
"699 199 LINE SMOOTH",
"663 176 OFFCURVE",
"654 177 OFFCURVE",
"635 216 CURVE SMOOTH",
"403 691 LINE SMOOTH",
"385 732 OFFCURVE",
"386 745 OFFCURVE",
"413 788 CURVE SMOOTH",
"441 837 LINE",
"430 858 LINE",
"195 598 LINE",
"206 577 LINE",
"245 604 LINE SMOOTH",
"281 627 OFFCURVE",
"290 627 OFFCURVE",
"310 587 CURVE SMOOTH",
"541 113 LINE SMOOTH",
"560 71 OFFCURVE",
"558 58 OFFCURVE",
"532 15 CURVE SMOOTH",
"503 -33 LINE",
"514 -55 LINE"
);
}
);
};
layerId = "B3FC2A1D-D4D8-43EF-896F-5E7A9998234E";
paths = (
{
closed = 1;
nodes = (
"610 -16 LINE",
"850 581 LINE SMOOTH",
"865 617 OFFCURVE",
"888 630 OFFCURVE",
"927 638 CURVE SMOOTH",
"991 651 LINE",
"999 673 LINE",
"724 673 LINE",
"716 651 LINE",
"782 636 LINE SMOOTH",
"816 629 OFFCURVE",
"827 614 OFFCURVE",
"814 581 CURVE SMOOTH",
"654 177 LINE",
"410 673 LINE",
"220 673 LINE",
"212 651 LINE",
"258 640 LINE SMOOTH",
"300 630 OFFCURVE",
"305 623 OFFCURVE",
"288 581 CURVE SMOOTH",
"91 92 LINE SMOOTH",
"76 56 OFFCURVE",
"53 43 OFFCURVE",
"14 35 CURVE SMOOTH",
"-50 22 LINE",
"-59 0 LINE",
"216 0 LINE",
"225 22 LINE",
"158 37 LINE SMOOTH",
"125 44 OFFCURVE",
"114 59 OFFCURVE",
"127 92 CURVE SMOOTH",
"319 567 LINE",
"598 -16 LINE"
);
}
);
width = 832;
}
);
leftKerningGroup = H;
leftMetricsKey = H;
rightKerningGroup = N;
rightMetricsKey = "=H-15";
unicode = 004E;
},
{
glyphname = Eng;
lastChange = "2015-12-04 17:57:05 +0000";
layers = (
{
layerId = "A0758A2D-FE5C-4D8D-B7A5-83FAC1CB14BB";
paths = (
{
closed = 1;
nodes = (
"461 -228 OFFCURVE",
"502 -199 OFFCURVE",
"529 -173 CURVE SMOOTH",
"549 -154 OFFCURVE",
"556 -143 OFFCURVE",
"569 -143 CURVE",
"855 581 LINE SMOOTH",
"872 623 OFFCURVE",
"885 634 OFFCURVE",
"944 644 CURVE SMOOTH",
"1010 655 LINE",
"1017 673 LINE",
"738 673 LINE",
"731 655 LINE",
"787 644 LINE SMOOTH",
"838 634 OFFCURVE",
"842 620 OFFCURVE",
"825 578 CURVE SMOOTH",
"642 122 LINE",
"390 673 LINE",
"226 673 LINE",
"219 656 LINE",
"263 647 LINE SMOOTH",
"332 633 OFFCURVE",
"332 624 OFFCURVE",
"314 578 CURVE SMOOTH",
"117 92 LINE SMOOTH",
"100 50 OFFCURVE",
"87 39 OFFCURVE",
"28 29 CURVE SMOOTH",
"-37 18 LINE",
"-45 0 LINE",
"234 0 LINE",
"242 18 LINE",
"185 29 LINE SMOOTH",
"134 39 OFFCURVE",
"131 53 OFFCURVE",
"148 95 CURVE SMOOTH",
"340 567 LINE",
"597 3 LINE",
"569 -69 LINE SMOOTH",
"537 -152 OFFCURVE",
"488 -204 OFFCURVE",
"423 -204 CURVE SMOOTH",
"405 -204 OFFCURVE",
"395 -197 OFFCURVE",
"395 -186 CURVE SMOOTH",
"395 -174 OFFCURVE",
"403 -166 OFFCURVE",
"412 -158 CURVE SMOOTH",
"422 -149 OFFCURVE",
"432 -135 OFFCURVE",
"432 -116 CURVE SMOOTH",
"432 -82 OFFCURVE",
"412 -69 OFFCURVE",
"385 -69 CURVE SMOOTH",
"358 -69 OFFCURVE",
"325 -87 OFFCURVE",
"325 -127 CURVE SMOOTH",
"325 -181 OFFCURVE",
"361 -228 OFFCURVE",
"412 -228 CURVE SMOOTH"
);
}
);
width = 856;
},
{
layerId = "B3FC2A1D-D4D8-43EF-896F-5E7A9998234E";
paths = (
{
closed = 1;
nodes = (
"455 -228 OFFCURVE",
"490 -204 OFFCURVE",
"514 -182 CURVE SMOOTH",
"529 -168 OFFCURVE",
"542 -157 OFFCURVE",
"552 -157 CURVE",
"850 581 LINE SMOOTH",
"864 617 OFFCURVE",
"888 630 OFFCURVE",
"927 638 CURVE SMOOTH",
"990 651 LINE",
"999 673 LINE",
"724 673 LINE",
"715 651 LINE",
"782 636 LINE SMOOTH",
"815 629 OFFCURVE",
"827 614 OFFCURVE",
"814 581 CURVE SMOOTH",
"664 211 LINE",
"432 673 LINE",
"220 673 LINE",
"211 651 LINE",
"258 640 LINE SMOOTH",
"300 630 OFFCURVE",
"305 623 OFFCURVE",
"288 581 CURVE SMOOTH",
"90 92 LINE SMOOTH",
"76 56 OFFCURVE",
"52 43 OFFCURVE",
"13 35 CURVE SMOOTH",
"-50 22 LINE",
"-59 0 LINE",
"216 0 LINE",
"225 22 LINE",
"158 37 LINE SMOOTH",
"125 44 OFFCURVE",
"113 59 OFFCURVE",
"126 92 CURVE SMOOTH",
"310 546 LINE",
"581 4 LINE",
"548 -77 LINE SMOOTH",
"514 -162 OFFCURVE",
"458 -191 OFFCURVE",
"419 -191 CURVE SMOOTH",
"404 -191 OFFCURVE",
"394 -185 OFFCURVE",
"394 -174 CURVE SMOOTH",
"394 -166 OFFCURVE",
"406 -157 OFFCURVE",
"417 -147 CURVE",
"430 -134 OFFCURVE",
"446 -118 OFFCURVE",
"446 -92 CURVE SMOOTH",
"446 -51 OFFCURVE",
"417 -33 OFFCURVE",
"383 -33 CURVE SMOOTH",
"338 -33 OFFCURVE",
"292 -58 OFFCURVE",
"292 -132 CURVE SMOOTH",
"292 -192 OFFCURVE",
"346 -228 OFFCURVE",
"400 -228 CURVE SMOOTH"
);
}
);
width = 831;
}
);
leftKerningGroup = H;
leftMetricsKey = N;
rightKerningGroup = N;
rightMetricsKey = N;
unicode = 014A;
},
{
glyphname = O;
lastChange = "2015-12-04 17:57:05 +0000";
layers = (
{
anchors = (
{
name = topcase;
position = "{562, 690}";
}
);
background = {
paths = (
{
closed = 1;
nodes = (
"607 -8 OFFCURVE",
"827 178 OFFCURVE",
"827 389 CURVE SMOOTH",
"827 588 OFFCURVE",
"695 682 OFFCURVE",
"532 682 CURVE SMOOTH",
"325 682 OFFCURVE",
"105 497 OFFCURVE",
"105 285 CURVE SMOOTH",
"105 87 OFFCURVE",
"237 -8 OFFCURVE",
"400 -8 CURVE SMOOTH"
);
},
{
closed = 1;
nodes = (
"282 18 OFFCURVE",
"191 93 OFFCURVE",
"191 227 CURVE SMOOTH",
"191 497 OFFCURVE",
"375 659 OFFCURVE",
"541 659 CURVE SMOOTH",
"652 659 OFFCURVE",
"741 582 OFFCURVE",
"741 447 CURVE SMOOTH",
"741 178 OFFCURVE",
"559 18 OFFCURVE",
"393 18 CURVE SMOOTH"
);
}
);
};
layerId = "A0758A2D-FE5C-4D8D-B7A5-83FAC1CB14BB";
paths = (
{
closed = 1;
nodes = (
"607 -8 OFFCURVE",
"827 177 OFFCURVE",
"827 408 CURVE SMOOTH",
"827 579 OFFCURVE",
"695 682 OFFCURVE",
"532 682 CURVE SMOOTH",
"325 682 OFFCURVE",
"105 497 OFFCURVE",
"105 266 CURVE SMOOTH",
"105 95 OFFCURVE",
"237 -8 OFFCURVE",
"400 -8 CURVE SMOOTH"
);
},
{
closed = 1;
nodes = (
"286 17 OFFCURVE",
"198 95 OFFCURVE",
"198 226 CURVE SMOOTH",
"198 496 OFFCURVE",
"377 658 OFFCURVE",
"540 658 CURVE SMOOTH",
"648 658 OFFCURVE",
"734 577 OFFCURVE",
"734 446 CURVE SMOOTH",
"734 176 OFFCURVE",
"557 17 OFFCURVE",
"394 17 CURVE SMOOTH"
);
}
);
width = 822;
},
{
anchors = (
{
name = topcase;
position = "{549, 690}";
}
);
background = {
paths = (
{
closed = 0;
nodes = (
"400 24 LINE",
"284 24 OFFCURVE",
"236 96 OFFCURVE",
"236 227 CURVE SMOOTH",
"236 535 OFFCURVE",
"400 648 OFFCURVE",
"526 648 CURVE"
);
},
{
closed = 1;
nodes = (
"-234 -8 OFFCURVE",
"-14 177 OFFCURVE",
"-14 408 CURVE SMOOTH",
"-14 579 OFFCURVE",
"-146 682 OFFCURVE",
"-309 682 CURVE SMOOTH",
"-516 682 OFFCURVE",
"-736 497 OFFCURVE",
"-736 266 CURVE SMOOTH",
"-736 95 OFFCURVE",
"-604 -8 OFFCURVE",
"-441 -8 CURVE SMOOTH"
);
},
{
closed = 1;
nodes = (
"-555 18 OFFCURVE",
"-645 96 OFFCURVE",
"-645 227 CURVE SMOOTH",
"-645 497 OFFCURVE",
"-464 659 OFFCURVE",
"-301 659 CURVE SMOOTH",
"-193 659 OFFCURVE",
"-105 578 OFFCURVE",
"-105 447 CURVE SMOOTH",
"-105 177 OFFCURVE",
"-284 18 OFFCURVE",
"-447 18 CURVE SMOOTH"
);
},
{
closed = 1;
nodes = (
"583 -11 OFFCURVE",
"826 145 OFFCURVE",
"826 407 CURVE SMOOTH",
"826 598 OFFCURVE",
"693 683 OFFCURVE",
"540 683 CURVE SMOOTH",
"332 683 OFFCURVE",
"89 527 OFFCURVE",
"89 265 CURVE SMOOTH",
"89 74 OFFCURVE",
"222 -11 OFFCURVE",
"375 -11 CURVE SMOOTH"
);
},
{
closed = 0;
nodes = (
"515 648 LINE",
"631 648 OFFCURVE",
"679 576 OFFCURVE",
"679 445 CURVE SMOOTH",
"679 137 OFFCURVE",
"515 24 OFFCURVE",
"389 24 CURVE"
);
}
);
};
guideLines = (
{
angle = 90;
position = "{520, 659}";
}
);
layerId = "B3FC2A1D-D4D8-43EF-896F-5E7A9998234E";
paths = (
{
closed = 1;
nodes = (
"626 -8 OFFCURVE",
"850 181 OFFCURVE",
"850 413 CURVE SMOOTH",
"850 568 OFFCURVE",
"739 683 OFFCURVE",
"549 683 CURVE SMOOTH",
"311 683 OFFCURVE",
"87 494 OFFCURVE",
"87 262 CURVE SMOOTH",
"87 107 OFFCURVE",
"198 -8 OFFCURVE",
"388 -8 CURVE SMOOTH"
);
},
{
closed = 1;
nodes = (
"295 27 OFFCURVE",
"237 107 OFFCURVE",
"237 234 CURVE SMOOTH",
"237 408 OFFCURVE",
"356 649 OFFCURVE",
"534 649 CURVE SMOOTH",
"648 649 OFFCURVE",
"706 569 OFFCURVE",
"706 442 CURVE SMOOTH",
"706 268 OFFCURVE",
"587 27 OFFCURVE",
"409 27 CURVE SMOOTH"
);
}
);
width = 825;
}
);
leftKerningGroup = O;
rightKerningGroup = O;
unicode = 004F;
},
{
glyphname = Oslash;
lastChange = "2017-01-02 17:26:01 +0000";
layers = (
{
components = (
{
name = O;
transform = "{1, 0, 0, 1, 7, 0}";
}
);
guideLines = (
{
angle = 68;
position = "{123, 366}";
},
{
angle = 68;
position = "{855, 393}";
},
{
position = "{827, 681}";
}
);
layerId = "A0758A2D-FE5C-4D8D-B7A5-83FAC1CB14BB";
paths = (
{
closed = 1;
nodes = (
"958 651 LINE",
"936 681 LINE",
"-22 22 LINE",
"-1 -8 LINE"
);
}
);
width = 829;
},
{
components = (
{
name = O;
}
);
guideLines = (
{
angle = 68;
position = "{937, 606}";
},
{
position = "{799, 683}";
}
);
layerId = "B3FC2A1D-D4D8-43EF-896F-5E7A9998234E";
paths = (
{
closed = 1;
nodes = (
"954 648 LINE",
"928 684 LINE",
"-34 30 LINE",
"-12 -10 LINE"
);
}
);
width = 825;
}
);
leftKerningGroup = O;
leftMetricsKey = O;
rightKerningGroup = O;
rightMetricsKey = O;
unicode = 00D8;
},
{
color = 4;
glyphname = OE;
lastChange = "2015-12-04 17:57:05 +0000";
layers = (
{
background = {
paths = (
{
closed = 1;
nodes = (
"898 0 LINE",
"920 52 OFFCURVE",
"955 118 OFFCURVE",
"997 180 CURVE",
"978 180 LINE",
"931 129 LINE SMOOTH",
"888 82 OFFCURVE",
"797 25 OFFCURVE",
"715 25 CURVE SMOOTH",
"623 25 LINE SMOOTH",
"559 25 OFFCURVE",
"552 41 OFFCURVE",
"571 90 CURVE SMOOTH",
"673 341 LINE",
"832 341 LINE SMOOTH",
"901 341 OFFCURVE",
"907 319 OFFCURVE",
"895 263 CURVE SMOOTH",
"885 216 LINE",
"903 216 LINE",
"1016 494 LINE",
"998 494 LINE",
"970 447 LINE SMOOTH",
"936 391 OFFCURVE",
"912 369 OFFCURVE",
"843 369 CURVE SMOOTH",
"684 369 LINE",
"797 649 LINE",
"971 649 LINE SMOOTH",
"1073 649 OFFCURVE",
"1084 583 OFFCURVE",
"1078 496 CURVE",
"1098 496 LINE",
"1106 524 OFFCURVE",
"1112 568 OFFCURVE",
"1131 617 CURVE SMOOTH",
"1139 635 OFFCURVE",
"1148 654 OFFCURVE",
"1160 673 CURVE",
"591 673 LINE",
"697 628 LINE",
"455 30 LINE",
"395 0 LINE"
);
},
{
closed = 1;
nodes = (
"476 -8 OFFCURVE",
"520 0 OFFCURVE",
"562 15 CURVE",
"539 77 LINE",
"503 41 OFFCURVE",
"461 24 OFFCURVE",
"419 24 CURVE SMOOTH",
"317 23 OFFCURVE",
"230 109 OFFCURVE",
"230 226 CURVE SMOOTH",
"230 496 OFFCURVE",
"409 658 OFFCURVE",
"572 658 CURVE SMOOTH",
"636 658 OFFCURVE",
"692 630 OFFCURVE",
"727 580 CURVE",
"749 627 LINE",
"699 663 OFFCURVE",
"634 682 OFFCURVE",
"564 682 CURVE SMOOTH",
"357 682 OFFCURVE",
"137 497 OFFCURVE",
"137 266 CURVE SMOOTH",
"137 95 OFFCURVE",
"269 -8 OFFCURVE",
"432 -8 CURVE SMOOTH"
);
}
);
};
layerId = "A0758A2D-FE5C-4D8D-B7A5-83FAC1CB14BB";
paths = (
{
closed = 1;
nodes = (
"898 0 LINE",
"920 52 OFFCURVE",
"955 118 OFFCURVE",
"997 180 CURVE",
"978 180 LINE",
"931 129 LINE SMOOTH",
"888 82 OFFCURVE",
"797 25 OFFCURVE",
"715 25 CURVE SMOOTH",
"623 25 LINE SMOOTH",
"559 25 OFFCURVE",
"552 41 OFFCURVE",
"571 90 CURVE SMOOTH",
"673 341 LINE",
"832 341 LINE SMOOTH",
"901 341 OFFCURVE",
"907 319 OFFCURVE",
"895 263 CURVE SMOOTH",
"885 216 LINE",
"903 216 LINE",
"1016 494 LINE",
"998 494 LINE",
"970 447 LINE SMOOTH",
"936 391 OFFCURVE",
"912 369 OFFCURVE",
"843 369 CURVE SMOOTH",
"684 369 LINE",
"797 649 LINE",
"971 649 LINE SMOOTH",
"1073 649 OFFCURVE",
"1084 583 OFFCURVE",
"1078 496 CURVE",
"1098 496 LINE",
"1106 524 OFFCURVE",
"1112 568 OFFCURVE",
"1131 617 CURVE SMOOTH",
"1139 635 OFFCURVE",
"1148 654 OFFCURVE",
"1160 673 CURVE",
"591 673 LINE",
"697 628 LINE",
"455 30 LINE",
"395 0 LINE"
);
},
{
closed = 1;
nodes = (
"449 -8 OFFCURVE",
"498 2 OFFCURVE",
"545 21 CURVE",
"516 46 LINE",
"476 27 OFFCURVE",
"435 17 OFFCURVE",
"394 17 CURVE SMOOTH",
"286 17 OFFCURVE",
"198 95 OFFCURVE",
"198 226 CURVE SMOOTH",
"198 496 OFFCURVE",
"377 658 OFFCURVE",
"540 658 CURVE SMOOTH",
"613 658 OFFCURVE",
"676 621 OFFCURVE",
"709 556 CURVE",
"737 612 LINE",
"684 657 OFFCURVE",
"612 682 OFFCURVE",
"532 682 CURVE SMOOTH",
"325 682 OFFCURVE",
"105 497 OFFCURVE",
"105 266 CURVE SMOOTH",
"105 95 OFFCURVE",
"237 -8 OFFCURVE",
"400 -8 CURVE SMOOTH"
);
}
);
width = 1050;
},
{
background = {
paths = (
{
closed = 1;
nodes = (
"964 0 LINE",
"989 61 OFFCURVE",
"1024 121 OFFCURVE",
"1062 180 CURVE",
"1040 180 LINE",
"973 120 LINE SMOOTH",
"911 65 OFFCURVE",
"852 33 OFFCURVE",
"780 33 CURVE SMOOTH",
"706 33 LINE SMOOTH",
"637 33 OFFCURVE",
"648 60 OFFCURVE",
"672 119 CURVE SMOOTH",
"761 339 LINE",
"891 339 LINE SMOOTH",
"955 339 OFFCURVE",
"968 312 OFFCURVE",
"957 265 CURVE SMOOTH",
"947 217 LINE",
"969 217 LINE",
"1081 494 LINE",
"1059 494 LINE",
"1032 448 LINE SMOOTH",
"1005 400 OFFCURVE",
"969 372 OFFCURVE",
"902 372 CURVE SMOOTH",
"774 372 LINE",
"883 640 LINE",
"1016 640 LINE SMOOTH",
"1105 640 OFFCURVE",
"1139 575 OFFCURVE",
"1140 496 CURVE",
"1162 496 LINE",
"1173 539 OFFCURVE",
"1180 577 OFFCURVE",
"1197 618 CURVE SMOOTH",
"1204 636 OFFCURVE",
"1212 654 OFFCURVE",
"1224 673 CURVE",
"651 673 LINE",
"734 618 LINE",
"504 50 LINE",
"379 0 LINE"
);
},
{
closed = 1;
nodes = (
"468 -8 OFFCURVE",
"546 13 OFFCURVE",
"614 50 CURVE",
"588 120 LINE",
"540 64 OFFCURVE",
"479 27 OFFCURVE",
"409 27 CURVE SMOOTH",
"295 27 OFFCURVE",
"237 107 OFFCURVE",
"237 234 CURVE SMOOTH",
"237 408 OFFCURVE",
"356 649 OFFCURVE",
"534 649 CURVE SMOOTH",
"637 649 OFFCURVE",
"694 584 OFFCURVE",
"704 479 CURVE",
"789 587 LINE",
"738 646 OFFCURVE",
"656 683 OFFCURVE",
"549 683 CURVE SMOOTH",
"311 683 OFFCURVE",
"87 494 OFFCURVE",
"87 262 CURVE SMOOTH",
"87 107 OFFCURVE",
"198 -8 OFFCURVE",
"388 -8 CURVE SMOOTH"
);
}
);
};
guideLines = (
{
position = "{404, 33}";
}
);
layerId = "B3FC2A1D-D4D8-43EF-896F-5E7A9998234E";
paths = (
{
closed = 1;
nodes = (
"964 0 LINE",
"989 61 OFFCURVE",
"1024 121 OFFCURVE",
"1062 180 CURVE",
"1040 180 LINE",
"973 120 LINE SMOOTH",
"911 65 OFFCURVE",
"852 33 OFFCURVE",
"780 33 CURVE SMOOTH",
"706 33 LINE SMOOTH",
"637 33 OFFCURVE",
"648 60 OFFCURVE",
"672 119 CURVE SMOOTH",
"761 339 LINE",
"891 339 LINE SMOOTH",
"955 339 OFFCURVE",
"968 312 OFFCURVE",
"957 265 CURVE SMOOTH",
"947 217 LINE",
"969 217 LINE",
"1081 494 LINE",
"1059 494 LINE",
"1032 448 LINE SMOOTH",
"1005 400 OFFCURVE",
"969 372 OFFCURVE",
"902 372 CURVE SMOOTH",
"774 372 LINE",
"883 640 LINE",
"1016 640 LINE SMOOTH",
"1105 640 OFFCURVE",
"1139 575 OFFCURVE",
"1140 496 CURVE",
"1162 496 LINE",
"1173 539 OFFCURVE",
"1180 577 OFFCURVE",
"1197 618 CURVE SMOOTH",
"1204 636 OFFCURVE",
"1212 654 OFFCURVE",
"1224 673 CURVE",
"636 673 LINE",
"734 618 LINE",
"504 50 LINE",
"379 0 LINE"
);
},
{
closed = 1;
nodes = (
"468 -8 OFFCURVE",
"546 13 OFFCURVE",
"614 50 CURVE",
"588 120 LINE",
"540 64 OFFCURVE",
"479 27 OFFCURVE",
"409 27 CURVE SMOOTH",
"295 27 OFFCURVE",
"237 107 OFFCURVE",
"237 234 CURVE SMOOTH",
"237 408 OFFCURVE",
"356 649 OFFCURVE",
"534 649 CURVE SMOOTH",
"637 649 OFFCURVE",
"687 616 OFFCURVE",
"721 539 CURVE",
"789 587 LINE",
"738 646 OFFCURVE",
"656 683 OFFCURVE",
"549 683 CURVE SMOOTH",
"311 683 OFFCURVE",
"87 494 OFFCURVE",
"87 262 CURVE SMOOTH",
"87 107 OFFCURVE",
"198 -8 OFFCURVE",
"388 -8 CURVE SMOOTH"
);
}
);
width = 1109;
}
);
leftKerningGroup = O;
leftMetricsKey = O;
rightKerningGroup = E;
rightMetricsKey = E;
unicode = 0152;
},
{
glyphname = P;
lastChange = "2015-12-04 17:57:05 +0000";
layers = (
{
layerId = "A0758A2D-FE5C-4D8D-B7A5-83FAC1CB14BB";
paths = (
{
closed = 1;
nodes = (
"296 0 LINE",
"303 18 LINE",
"246 29 LINE SMOOTH",
"195 39 OFFCURVE",
"189 46 OFFCURVE",
"206 88 CURVE SMOOTH",
"433 649 LINE",
"519 649 LINE SMOOTH",
"605 649 OFFCURVE",
"655 618 OFFCURVE",
"655 551 CURVE SMOOTH",
"655 403 OFFCURVE",
"504 323 OFFCURVE",
"397 317 CURVE",
"393 310 LINE",
"410 305 OFFCURVE",
"429 302 OFFCURVE",
"449 302 CURVE SMOOTH",
"597 302 OFFCURVE",
"754 416 OFFCURVE",
"754 540 CURVE SMOOTH",
"754 620 OFFCURVE",
"677 673 OFFCURVE",
"544 673 CURVE SMOOTH",
"226 673 LINE",
"219 655 LINE",
"261 647 LINE SMOOTH",
"329 634 OFFCURVE",
"336 632 OFFCURVE",
"312 572 CURVE SMOOTH",
"116 88 LINE SMOOTH",
"99 46 OFFCURVE",
"87 39 OFFCURVE",
"29 29 CURVE SMOOTH",
"-36 18 LINE",
"-43 0 LINE"
);
}
);
width = 674;
},
{
background = {
paths = (
{
closed = 1;
nodes = (
"300 0 LINE",
"309 22 LINE",
"253 33 LINE SMOOTH",
"211 41 OFFCURVE",
"206 50 OFFCURVE",
"223 92 CURVE SMOOTH",
"445 640 LINE",
"481 640 LINE SMOOTH",
"594 640 OFFCURVE",
"643 591 OFFCURVE",
"592 464 CURVE SMOOTH",
"539 333 OFFCURVE",
"441 287 OFFCURVE",
"347 281 CURVE",
"345 274 LINE",
"443 244 OFFCURVE",
"666 303 OFFCURVE",
"733 467 CURVE SMOOTH",
"782 589 OFFCURVE",
"708 673 OFFCURVE",
"525 673 CURVE SMOOTH",
"213 673 LINE",
"204 651 LINE",
"251 640 LINE SMOOTH",
"293 630 OFFCURVE",
"298 623 OFFCURVE",
"281 581 CURVE SMOOTH",
"83 92 LINE SMOOTH",
"66 50 OFFCURVE",
"55 43 OFFCURVE",
"5 33 CURVE SMOOTH",
"-50 22 LINE",
"-59 0 LINE"
);
}
);
};
layerId = "B3FC2A1D-D4D8-43EF-896F-5E7A9998234E";
paths = (
{
closed = 1;
nodes = (
"300 0 LINE",
"309 22 LINE",
"253 33 LINE SMOOTH",
"210 41 OFFCURVE",
"207 51 OFFCURVE",
"223 92 CURVE SMOOTH",
"445 640 LINE",
"481 640 LINE SMOOTH",
"560 640 OFFCURVE",
"608 612 OFFCURVE",
"608 541 CURVE SMOOTH",
"608 407 OFFCURVE",
"487 290 OFFCURVE",
"347 281 CURVE",
"345 274 LINE",
"361 269 OFFCURVE",
"381 266 OFFCURVE",
"403 266 CURVE SMOOTH",
"559 266 OFFCURVE",
"748 374 OFFCURVE",
"748 523 CURVE SMOOTH",
"748 624 OFFCURVE",
"653 673 OFFCURVE",
"507 673 CURVE SMOOTH",
"213 673 LINE",
"204 651 LINE",
"251 640 LINE SMOOTH",
"291 630 OFFCURVE",
"299 625 OFFCURVE",
"281 581 CURVE SMOOTH",
"83 92 LINE SMOOTH",
"66 50 OFFCURVE",
"55 43 OFFCURVE",
"5 33 CURVE SMOOTH",
"-50 22 LINE",
"-59 0 LINE"
);
}
);
width = 665;
}
);
leftKerningGroup = H;
leftMetricsKey = H;
unicode = 0050;
},
{
color = 4;
glyphname = Thorn;
lastChange = "2015-12-04 17:57:05 +0000";
layers = (
{
background = {
paths = (
{
closed = 1;
nodes = (
"244 0 LINE",
"251 18 LINE",
"195 29 LINE SMOOTH",
"144 39 OFFCURVE",
"138 46 OFFCURVE",
"155 88 CURVE SMOOTH",
"329 519 LINE",
"415 519 LINE SMOOTH",
"530 519 OFFCURVE",
"581 473 OFFCURVE",
"534 356 CURVE SMOOTH",
"485 235 OFFCURVE",
"388 192 OFFCURVE",
"293 187 CURVE",
"289 180 LINE",
"376 153 OFFCURVE",
"577 207 OFFCURVE",
"637 356 CURVE SMOOTH",
"682 467 OFFCURVE",
"604 543 OFFCURVE",
"440 543 CURVE SMOOTH",
"338 543 LINE",
"355 585 LINE SMOOTH",
"372 627 OFFCURVE",
"384 634 OFFCURVE",
"443 644 CURVE SMOOTH",
"509 655 LINE",
"516 673 LINE",
"176 673 LINE",
"169 655 LINE",
"225 644 LINE SMOOTH",
"276 634 OFFCURVE",
"282 627 OFFCURVE",
"265 585 CURVE SMOOTH",
"65 88 LINE SMOOTH",
"48 46 OFFCURVE",
"36 39 OFFCURVE",
"-23 29 CURVE SMOOTH",
"-89 18 LINE",
"-96 0 LINE"
);
}
);
};
layerId = "A0758A2D-FE5C-4D8D-B7A5-83FAC1CB14BB";
paths = (
{
closed = 1;
nodes = (
"294 0 LINE",
"301 18 LINE",
"245 29 LINE SMOOTH",
"194 39 OFFCURVE",
"188 46 OFFCURVE",
"205 88 CURVE SMOOTH",
"378 519 LINE",
"414 519 LINE SMOOTH",
"500 519 OFFCURVE",
"550 488 OFFCURVE",
"550 421 CURVE SMOOTH",
"550 273 OFFCURVE",
"399 193 OFFCURVE",
"292 187 CURVE",
"288 180 LINE",
"305 175 OFFCURVE",
"324 172 OFFCURVE",
"344 172 CURVE SMOOTH",
"492 172 OFFCURVE",
"649 286 OFFCURVE",
"649 410 CURVE SMOOTH",
"649 490 OFFCURVE",
"572 543 OFFCURVE",
"439 543 CURVE SMOOTH",
"388 543 LINE",
"405 585 LINE SMOOTH",
"422 627 OFFCURVE",
"434 634 OFFCURVE",
"493 644 CURVE SMOOTH",
"559 655 LINE",
"566 673 LINE",
"226 673 LINE",
"219 655 LINE",
"275 644 LINE SMOOTH",
"326 634 OFFCURVE",
"332 627 OFFCURVE",
"315 585 CURVE SMOOTH",
"115 88 LINE SMOOTH",
"98 46 OFFCURVE",
"86 39 OFFCURVE",
"27 29 CURVE SMOOTH",
"-39 18 LINE",
"-46 0 LINE"
);
}
);
width = 612;
},
{
background = {
paths = (
{
closed = 1;
nodes = (
"302 0 LINE",
"311 22 LINE",
"255 33 LINE SMOOTH",
"213 41 OFFCURVE",
"208 50 OFFCURVE",
"225 92 CURVE SMOOTH",
"396 515 LINE",
"432 515 LINE SMOOTH",
"545 515 OFFCURVE",
"594 466 OFFCURVE",
"543 339 CURVE SMOOTH",
"490 208 OFFCURVE",
"392 162 OFFCURVE",
"298 156 CURVE",
"296 149 LINE",
"394 119 OFFCURVE",
"618 178 OFFCURVE",
"684 342 CURVE SMOOTH",
"734 464 OFFCURVE",
"659 548 OFFCURVE",
"476 548 CURVE SMOOTH",
"409 548 LINE",
"423 581 LINE SMOOTH",
"440 623 OFFCURVE",
"451 630 OFFCURVE",
"501 640 CURVE SMOOTH",
"556 651 LINE",
"565 673 LINE",
"215 673 LINE",
"206 651 LINE",
"253 640 LINE SMOOTH",
"295 630 OFFCURVE",
"300 623 OFFCURVE",
"283 581 CURVE SMOOTH",
"85 92 LINE SMOOTH",
"68 50 OFFCURVE",
"57 43 OFFCURVE",
"7 33 CURVE SMOOTH",
"-48 22 LINE",
"-57 0 LINE"
);
}
);
};
layerId = "B3FC2A1D-D4D8-43EF-896F-5E7A9998234E";
paths = (
{
closed = 1;
nodes = (
"291 0 LINE",
"300 22 LINE",
"253 33 LINE SMOOTH",
"211 43 OFFCURVE",
"206 50 OFFCURVE",
"223 92 CURVE SMOOTH",
"395 516 LINE",
"431 516 LINE SMOOTH",
"510 516 OFFCURVE",
"558 488 OFFCURVE",
"558 417 CURVE SMOOTH",
"558 283 OFFCURVE",
"437 166 OFFCURVE",
"297 157 CURVE",
"295 150 LINE",
"311 145 OFFCURVE",
"331 142 OFFCURVE",
"353 142 CURVE SMOOTH",
"509 142 OFFCURVE",
"698 250 OFFCURVE",
"698 399 CURVE SMOOTH",
"698 500 OFFCURVE",
"603 549 OFFCURVE",
"457 549 CURVE SMOOTH",
"408 549 LINE",
"421 581 LINE SMOOTH",
"438 623 OFFCURVE",
"449 630 OFFCURVE",
"499 640 CURVE SMOOTH",
"554 651 LINE",
"563 673 LINE",
"213 673 LINE",
"204 651 LINE",
"251 640 LINE SMOOTH",
"293 630 OFFCURVE",
"298 623 OFFCURVE",
"281 581 CURVE SMOOTH",
"83 92 LINE SMOOTH",
"66 50 OFFCURVE",
"55 43 OFFCURVE",
"5 33 CURVE SMOOTH",
"-50 22 LINE",
"-59 0 LINE"
);
}
);
width = 655;
}
);
leftKerningGroup = H;
leftMetricsKey = H;
rightMetricsKey = "=P-10";
unicode = 00DE;
},
{
glyphname = Q;
lastChange = "2018-03-01 12:22:19 +0000";
layers = (
{
background = {
paths = (
{
closed = 1;
nodes = (
"689 -202 OFFCURVE",
"739 -167 OFFCURVE",
"771 -75 CURVE",
"748 -69 LINE",
"731 -101 OFFCURVE",
"706 -135 OFFCURVE",
"648 -135 CURVE SMOOTH",
"587 -135 OFFCURVE",
"529 -98 OFFCURVE",
"463 -54 CURVE SMOOTH",
"382 -2 OFFCURVE",
"289 56 OFFCURVE",
"166 56 CURVE SMOOTH",
"92 56 OFFCURVE",
"35 22 OFFCURVE",
"35 -24 CURVE SMOOTH",
"35 -54 OFFCURVE",
"55 -69 OFFCURVE",
"78 -69 CURVE SMOOTH",
"116 -69 OFFCURVE",
"119 -45 OFFCURVE",
"123 -21 CURVE SMOOTH",
"126 2 OFFCURVE",
"127 25 OFFCURVE",
"168 25 CURVE SMOOTH",
"269 25 OFFCURVE",
"336 -34 OFFCURVE",
"400 -91 CURVE SMOOTH",
"462 -147 OFFCURVE",
"523 -202 OFFCURVE",
"603 -202 CURVE SMOOTH"
);
}
);
};
components = (
{
name = O;
}
);
guideLines = (
{
angle = 68;
position = "{78, 94}";
},
{
angle = 68;
position = "{834, 82}";
}
);
layerId = "A0758A2D-FE5C-4D8D-B7A5-83FAC1CB14BB";
paths = (
{
closed = 1;
nodes = (
"668 -256 OFFCURVE",
"718 -221 OFFCURVE",
"750 -129 CURVE",
"727 -123 LINE",
"710 -155 OFFCURVE",
"682 -182 OFFCURVE",
"624 -182 CURVE SMOOTH",
"563 -182 OFFCURVE",
"508 -152 OFFCURVE",
"442 -108 CURVE SMOOTH",
"361 -56 OFFCURVE",
"268 2 OFFCURVE",
"145 2 CURVE SMOOTH",
"71 2 OFFCURVE",
"14 -32 OFFCURVE",
"14 -78 CURVE SMOOTH",
"14 -108 OFFCURVE",
"34 -123 OFFCURVE",
"57 -123 CURVE SMOOTH",
"95 -123 OFFCURVE",
"98 -99 OFFCURVE",
"102 -75 CURVE SMOOTH",
"105 -52 OFFCURVE",
"106 -29 OFFCURVE",
"147 -29 CURVE SMOOTH",
"248 -29 OFFCURVE",
"315 -88 OFFCURVE",
"379 -145 CURVE SMOOTH",
"441 -201 OFFCURVE",
"502 -256 OFFCURVE",
"582 -256 CURVE SMOOTH"
);
}
);
width = 822;
},
{
background = {
paths = (
{
closed = 1;
nodes = (
"663 -206 OFFCURVE",
"726 -166 OFFCURVE",
"755 -65 CURVE",
"728 -58 LINE",
"712 -85 OFFCURVE",
"689 -113 OFFCURVE",
"637 -113 CURVE SMOOTH",
"575 -113 OFFCURVE",
"509 -76 OFFCURVE",
"442 -36 CURVE SMOOTH",
"368 9 OFFCURVE",
"281 56 OFFCURVE",
"169 56 CURVE SMOOTH",
"71 56 OFFCURVE",
"15 17 OFFCURVE",
"15 -36 CURVE SMOOTH",
"15 -71 OFFCURVE",
"38 -89 OFFCURVE",
"64 -89 CURVE SMOOTH",
"95 -89 OFFCURVE",
"114 -65 OFFCURVE",
"114 -36 CURVE SMOOTH",
"114 -4 OFFCURVE",
"137 22 OFFCURVE",
"166 23 CURVE SMOOTH",
"211 24 OFFCURVE",
"268 -19 OFFCURVE",
"330 -68 CURVE SMOOTH",
"411 -132 OFFCURVE",
"499 -206 OFFCURVE",
"577 -206 CURVE SMOOTH"
);
}
);
};
components = (
{
name = O;
}
);
guideLines = (
{
angle = 68;
position = "{62, 94}";
},
{
angle = 68;
position = "{817, 82}";
}
);
layerId = "B3FC2A1D-D4D8-43EF-896F-5E7A9998234E";
paths = (
{
closed = 1;
nodes = (
"643 -259 OFFCURVE",
"706 -219 OFFCURVE",
"735 -118 CURVE",
"708 -111 LINE",
"692 -138 OFFCURVE",
"669 -166 OFFCURVE",
"617 -166 CURVE SMOOTH",
"555 -166 OFFCURVE",
"489 -129 OFFCURVE",
"422 -89 CURVE SMOOTH",
"348 -44 OFFCURVE",
"261 3 OFFCURVE",
"149 3 CURVE SMOOTH",
"51 3 OFFCURVE",
"-5 -36 OFFCURVE",
"-5 -89 CURVE SMOOTH",
"-5 -124 OFFCURVE",
"18 -142 OFFCURVE",
"44 -142 CURVE SMOOTH",
"84 -142 OFFCURVE",
"90 -114 OFFCURVE",
"96 -87 CURVE SMOOTH",
"103 -58 OFFCURVE",
"102 -30 OFFCURVE",
"146 -30 CURVE SMOOTH",
"191 -30 OFFCURVE",
"248 -72 OFFCURVE",
"310 -121 CURVE SMOOTH",
"388 -183 OFFCURVE",
"478 -259 OFFCURVE",
"557 -259 CURVE SMOOTH"
);
}
);
width = 825;
},
{
associatedMasterId = "A0758A2D-FE5C-4D8D-B7A5-83FAC1CB14BB";
background = {
paths = (
{
closed = 1;
nodes = (
"650 -265 OFFCURVE",
"714 -230 OFFCURVE",
"746 -138 CURVE",
"723 -132 LINE",
"706 -164 OFFCURVE",
"681 -200 OFFCURVE",
"623 -200 CURVE SMOOTH",
"561 -200 OFFCURVE",
"485 -146 OFFCURVE",
"416 -102 CURVE SMOOTH",
"343 -55 OFFCURVE",
"261 -7 OFFCURVE",
"141 -7 CURVE SMOOTH",
"67 -7 OFFCURVE",
"10 -41 OFFCURVE",
"10 -87 CURVE SMOOTH",
"10 -117 OFFCURVE",
"28 -132 OFFCURVE",
"51 -132 CURVE SMOOTH",
"76 -132 OFFCURVE",
"98 -112 OFFCURVE",
"98 -87 CURVE SMOOTH",
"98 -59 OFFCURVE",
"108 -41 OFFCURVE",
"140 -41 CURVE SMOOTH",
"197 -41 OFFCURVE",
"261 -88 OFFCURVE",
"328 -141 CURVE SMOOTH",
"413 -209 OFFCURVE",
"481 -265 OFFCURVE",
"563 -265 CURVE SMOOTH"
);
},
{
closed = 1;
nodes = (
"437 -5 LINE",
"435 21 LINE",
"114 -9 LINE",
"69 -36 LINE"
);
}
);
};
components = (
{
name = O;
}
);
layerId = "0E23E020-24EF-4B49-88FC-BD5F57C870C8";
name = "Regular Italic Jul 21 15, 20:57";
paths = (
{
closed = 1;
nodes = (
"657 -265 OFFCURVE",
"714 -230 OFFCURVE",
"746 -138 CURVE",
"723 -132 LINE",
"706 -164 OFFCURVE",
"681 -200 OFFCURVE",
"623 -200 CURVE SMOOTH",
"561 -200 OFFCURVE",
"496 -153 OFFCURVE",
"416 -102 CURVE SMOOTH",
"343 -56 OFFCURVE",
"261 -7 OFFCURVE",
"141 -7 CURVE SMOOTH",
"67 -7 OFFCURVE",
"10 -41 OFFCURVE",
"10 -87 CURVE SMOOTH",
"10 -117 OFFCURVE",
"28 -132 OFFCURVE",
"51 -132 CURVE SMOOTH",
"76 -132 OFFCURVE",
"98 -112 OFFCURVE",
"98 -87 CURVE SMOOTH",
"98 -59 OFFCURVE",
"108 -41 OFFCURVE",
"140 -41 CURVE SMOOTH",
"197 -41 OFFCURVE",
"260 -87 OFFCURVE",
"328 -141 CURVE SMOOTH",
"446 -234 OFFCURVE",
"496 -265 OFFCURVE",
"570 -265 CURVE SMOOTH"
);
},
{
closed = 1;
nodes = (
"434 -6 LINE",
"432 20 LINE",
"114 -9 LINE",
"69 -36 LINE"
);
}
);
width = 815;
},
{
associatedMasterId = "B3FC2A1D-D4D8-43EF-896F-5E7A9998234E";
components = (
{
name = O;
}
);
layerId = "BD368B8F-3E26-4DC6-AD79-0D6D20CD125E";
name = "Bold Italic Jul 21 15, 20:59";
paths = (
{
closed = 1;
nodes = (
"647 -265 OFFCURVE",
"710 -225 OFFCURVE",
"739 -124 CURVE",
"697 -113 LINE",
"681 -140 OFFCURVE",
"658 -172 OFFCURVE",
"606 -172 CURVE SMOOTH",
"548 -172 OFFCURVE",
"489 -131 OFFCURVE",
"416 -86 CURVE SMOOTH",
"349 -46 OFFCURVE",
"263 -3 OFFCURVE",
"153 -3 CURVE SMOOTH",
"55 -3 OFFCURVE",
"-1 -42 OFFCURVE",
"-1 -95 CURVE SMOOTH",
"-1 -130 OFFCURVE",
"19 -147 OFFCURVE",
"45 -147 CURVE SMOOTH",
"73 -147 OFFCURVE",
"98 -124 OFFCURVE",
"98 -95 CURVE SMOOTH",
"98 -63 OFFCURVE",
"116 -43 OFFCURVE",
"142 -43 CURVE SMOOTH",
"187 -43 OFFCURVE",
"250 -94 OFFCURVE",
"316 -148 CURVE SMOOTH",
"430 -242 OFFCURVE",
"487 -265 OFFCURVE",
"561 -265 CURVE SMOOTH"
);
},
{
closed = 1;
nodes = (
"426 -9 LINE",
"390 23 LINE",
"122 -4 LINE",
"69 -39 LINE"
);
}
);
width = 825;
}
);
leftKerningGroup = O;
leftMetricsKey = O;
rightKerningGroup = O;
unicode = 0051;
},
{
glyphname = R;
lastChange = "2016-01-04 10:13:07 +0000";
layers = (
{
anchors = (
{
name = topcase;
position = "{513, 690}";
}
);
background = {
paths = (
{
closed = 1;
nodes = (
"680 -13 OFFCURVE",
"699 -10 OFFCURVE",
"716 -5 CURVE",
"723 13 LINE",
"659 13 OFFCURVE",
"620 88 OFFCURVE",
"576 161 CURVE SMOOTH",
"531 236 OFFCURVE",
"495 301 OFFCURVE",
"424 312 CURVE",
"425 315 LINE",
"556 325 OFFCURVE",
"725 420 OFFCURVE",
"725 546 CURVE SMOOTH",
"725 623 OFFCURVE",
"651 673 OFFCURVE",
"506 673 CURVE SMOOTH",
"226 673 LINE",
"219 655 LINE",
"275 644 LINE SMOOTH",
"326 634 OFFCURVE",
"333 627 OFFCURVE",
"316 585 CURVE SMOOTH",
"115 88 LINE SMOOTH",
"98 46 OFFCURVE",
"86 39 OFFCURVE",
"28 29 CURVE SMOOTH",
"-38 18 LINE",
"-45 0 LINE",
"294 0 LINE",
"301 18 LINE",
"245 29 LINE SMOOTH",
"194 39 OFFCURVE",
"188 46 OFFCURVE",
"205 88 CURVE SMOOTH",
"291 301 LINE",
"311 301 LINE SMOOTH",
"390 301 OFFCURVE",
"434 221 OFFCURVE",
"484 142 CURVE SMOOTH",
"534 63 OFFCURVE",
"588 -13 OFFCURVE",
"662 -13 CURVE SMOOTH"
);
},
{
closed = 1;
nodes = (
"302 329 LINE",
"432 650 LINE",
"484 650 LINE SMOOTH",
"576 650 OFFCURVE",
"628 610 OFFCURVE",
"628 546 CURVE SMOOTH",
"628 418 OFFCURVE",
"501 329 OFFCURVE",
"367 329 CURVE SMOOTH"
);
}
);
};
layerId = "A0758A2D-FE5C-4D8D-B7A5-83FAC1CB14BB";
paths = (
{
closed = 1;
nodes = (
"680 -13 OFFCURVE",
"699 -10 OFFCURVE",
"716 -5 CURVE",
"723 13 LINE",
"659 13 OFFCURVE",
"620 88 OFFCURVE",
"576 161 CURVE SMOOTH",
"531 236 OFFCURVE",
"495 301 OFFCURVE",
"424 312 CURVE",
"425 315 LINE",
"556 325 OFFCURVE",
"725 420 OFFCURVE",
"725 546 CURVE SMOOTH",
"725 623 OFFCURVE",
"651 673 OFFCURVE",
"506 673 CURVE SMOOTH",
"226 673 LINE",
"219 655 LINE",
"275 644 LINE SMOOTH",
"326 634 OFFCURVE",
"333 627 OFFCURVE",
"316 585 CURVE SMOOTH",
"115 88 LINE SMOOTH",
"98 46 OFFCURVE",
"86 39 OFFCURVE",
"28 29 CURVE SMOOTH",
"-38 18 LINE",
"-45 0 LINE",
"294 0 LINE",
"301 18 LINE",
"245 29 LINE SMOOTH",
"194 39 OFFCURVE",
"188 46 OFFCURVE",
"205 88 CURVE SMOOTH",
"291 301 LINE",
"311 301 LINE SMOOTH",
"390 301 OFFCURVE",
"434 221 OFFCURVE",
"484 142 CURVE SMOOTH",
"534 63 OFFCURVE",
"588 -13 OFFCURVE",
"662 -13 CURVE SMOOTH"
);
},
{
closed = 1;
nodes = (
"432 650 LINE",
"484 650 LINE SMOOTH",
"576 650 OFFCURVE",
"628 610 OFFCURVE",
"628 546 CURVE SMOOTH",
"628 418 OFFCURVE",
"501 329 OFFCURVE",
"367 329 CURVE SMOOTH",
"302 329 LINE"
);
}
);
width = 809;
},
{
anchors = (
{
name = topcase;
position = "{536, 690}";
}
);
background = {
guideLines = (
{
angle = 90;
position = "{749, 96}";
}
);
paths = (
{
closed = 1;
nodes = (
"685 -15 OFFCURVE",
"712 -12 OFFCURVE",
"743 -5 CURVE",
"752 19 LINE",
"687 19 OFFCURVE",
"657 88 OFFCURVE",
"622 159 CURVE SMOOTH",
"584 235 OFFCURVE",
"542 314 OFFCURVE",
"460 314 CURVE",
"461 316 LINE",
"597 329 OFFCURVE",
"750 423 OFFCURVE",
"750 545 CURVE SMOOTH",
"750 627 OFFCURVE",
"659 673 OFFCURVE",
"480 673 CURVE SMOOTH",
"213 673 LINE",
"205 651 LINE",
"251 640 LINE SMOOTH",
"293 630 OFFCURVE",
"298 623 OFFCURVE",
"281 581 CURVE SMOOTH",
"84 92 LINE SMOOTH",
"67 50 OFFCURVE",
"56 43 OFFCURVE",
"7 33 CURVE SMOOTH",
"-49 22 LINE",
"-57 0 LINE",
"292 0 LINE",
"300 22 LINE",
"254 33 LINE SMOOTH",
"212 43 OFFCURVE",
"207 50 OFFCURVE",
"224 92 CURVE SMOOTH",
"305 294 LINE",
"336 294 LINE SMOOTH",
"411 294 OFFCURVE",
"443 221 OFFCURVE",
"482 146 CURVE SMOOTH",
"542 31 OFFCURVE",
"581 -15 OFFCURVE",
"660 -15 CURVE SMOOTH"
);
},
{
closed = 1;
nodes = (
"445 640 LINE",
"467 640 LINE SMOOTH",
"558 640 OFFCURVE",
"608 604 OFFCURVE",
"608 543 CURVE SMOOTH",
"608 413 OFFCURVE",
"486 327 OFFCURVE",
"354 327 CURVE SMOOTH",
"319 327 LINE"
);
}
);
};
layerId = "B3FC2A1D-D4D8-43EF-896F-5E7A9998234E";
paths = (
{
closed = 1;
nodes = (
"692 -16 OFFCURVE",
"714 -14 OFFCURVE",
"743 -5 CURVE",
"752 19 LINE",
"687 19 OFFCURVE",
"657 88 OFFCURVE",
"622 159 CURVE SMOOTH",
"584 235 OFFCURVE",
"542 314 OFFCURVE",
"460 314 CURVE",
"461 316 LINE",
"597 329 OFFCURVE",
"750 423 OFFCURVE",
"750 545 CURVE SMOOTH",
"750 627 OFFCURVE",
"659 673 OFFCURVE",
"480 673 CURVE SMOOTH",
"213 673 LINE",
"205 651 LINE",
"251 640 LINE SMOOTH",
"293 630 OFFCURVE",
"298 623 OFFCURVE",
"281 581 CURVE SMOOTH",
"84 92 LINE SMOOTH",
"67 50 OFFCURVE",
"56 43 OFFCURVE",
"7 33 CURVE SMOOTH",
"-49 22 LINE",
"-57 0 LINE",
"292 0 LINE",
"300 22 LINE",
"254 33 LINE SMOOTH",
"212 43 OFFCURVE",
"207 50 OFFCURVE",
"224 92 CURVE SMOOTH",
"305 294 LINE",
"336 294 LINE SMOOTH",
"411 294 OFFCURVE",
"443 221 OFFCURVE",
"482 146 CURVE SMOOTH",
"537 41 OFFCURVE",
"580 -16 OFFCURVE",
"665 -16 CURVE SMOOTH"
);
},
{
closed = 1;
nodes = (
"445 640 LINE",
"467 640 LINE SMOOTH",
"558 640 OFFCURVE",
"608 604 OFFCURVE",
"608 543 CURVE SMOOTH",
"608 413 OFFCURVE",
"486 327 OFFCURVE",
"354 327 CURVE SMOOTH",
"319 327 LINE"
);
}
);
width = 839;
}
);
leftKerningGroup = H;
leftMetricsKey = H;
rightKerningGroup = R;
unicode = 0052;
},
{
glyphname = S;
lastChange = "2015-12-04 17:57:05 +0000";
layers = (
{
anchors = (
{
name = topcase;
position = "{457, 690}";
}
);
background = {
paths = (
{
closed = 1;
nodes = (
"382 -8 OFFCURVE",
"526 63 OFFCURVE",
"526 215 CURVE SMOOTH",
"526 311 OFFCURVE",
"439 351 OFFCURVE",
"378 385 CURVE SMOOTH",
"316 419 OFFCURVE",
"253 441 OFFCURVE",
"253 504 CURVE SMOOTH",
"253 602 OFFCURVE",
"324 659 OFFCURVE",
"411 659 CURVE SMOOTH",
"527 659 OFFCURVE",
"583 574 OFFCURVE",
"570 460 CURVE",
"592 459 LINE",
"600 521 OFFCURVE",
"606 572 OFFCURVE",
"643 627 CURVE",
"639 631 LINE",
"630 629 OFFCURVE",
"622 628 OFFCURVE",
"614 628 CURVE SMOOTH",
"597 628 OFFCURVE",
"578 641 OFFCURVE",
"559 651 CURVE SMOOTH",
"518 674 OFFCURVE",
"474 685 OFFCURVE",
"427 685 CURVE SMOOTH",
"302 685 OFFCURVE",
"178 608 OFFCURVE",
"178 482 CURVE SMOOTH",
"178 387 OFFCURVE",
"248 350 OFFCURVE",
"314 314 CURVE SMOOTH",
"373 282 OFFCURVE",
"434 253 OFFCURVE",
"434 182 CURVE SMOOTH",
"434 71 OFFCURVE",
"348 15 OFFCURVE",
"245 15 CURVE SMOOTH",
"138 15 OFFCURVE",
"98 85 OFFCURVE",
"98 175 CURVE SMOOTH",
"98 202 OFFCURVE",
"102 231 OFFCURVE",
"108 260 CURVE",
"79 263 LINE",
"73 200 OFFCURVE",
"47 135 OFFCURVE",
"17 79 CURVE",
"32 70 OFFCURVE",
"51 55 OFFCURVE",
"71 41 CURVE SMOOTH",
"118 9 OFFCURVE",
"177 -8 OFFCURVE",
"235 -8 CURVE"
);
},
{
closed = 1;
nodes = (
"382 -8 OFFCURVE",
"526 63 OFFCURVE",
"526 215 CURVE SMOOTH",
"526 311 OFFCURVE",
"439 351 OFFCURVE",
"378 385 CURVE SMOOTH",
"316 419 OFFCURVE",
"253 441 OFFCURVE",
"253 504 CURVE SMOOTH",
"253 602 OFFCURVE",
"324 659 OFFCURVE",
"411 659 CURVE SMOOTH",
"527 659 OFFCURVE",
"583 574 OFFCURVE",
"570 460 CURVE",
"592 459 LINE",
"600 521 OFFCURVE",
"606 572 OFFCURVE",
"643 627 CURVE",
"639 631 LINE",
"630 629 OFFCURVE",
"622 628 OFFCURVE",
"614 628 CURVE SMOOTH",
"597 628 OFFCURVE",
"578 641 OFFCURVE",
"559 651 CURVE SMOOTH",
"518 674 OFFCURVE",
"474 685 OFFCURVE",
"427 685 CURVE SMOOTH",
"302 685 OFFCURVE",
"178 608 OFFCURVE",
"178 482 CURVE SMOOTH",
"178 387 OFFCURVE",
"248 350 OFFCURVE",
"314 314 CURVE SMOOTH",
"373 282 OFFCURVE",
"434 253 OFFCURVE",
"434 182 CURVE SMOOTH",
"434 71 OFFCURVE",
"348 15 OFFCURVE",
"245 15 CURVE SMOOTH",
"138 15 OFFCURVE",
"95 76 OFFCURVE",
"95 166 CURVE SMOOTH",
"95 193 OFFCURVE",
"99 222 OFFCURVE",
"105 251 CURVE",
"76 254 LINE",
"70 191 OFFCURVE",
"44 126 OFFCURVE",
"14 70 CURVE",
"29 61 OFFCURVE",
"48 43 OFFCURVE",
"68 32 CURVE SMOOTH",
"115 7 OFFCURVE",
"177 -8 OFFCURVE",
"235 -8 CURVE"
);
}
);
};
layerId = "A0758A2D-FE5C-4D8D-B7A5-83FAC1CB14BB";
paths = (
{
closed = 1;
nodes = (
"382 -8 OFFCURVE",
"526 63 OFFCURVE",
"526 215 CURVE SMOOTH",
"526 311 OFFCURVE",
"439 351 OFFCURVE",
"378 385 CURVE SMOOTH",
"316 419 OFFCURVE",
"253 441 OFFCURVE",
"253 504 CURVE SMOOTH",
"253 602 OFFCURVE",
"330 659 OFFCURVE",
"417 659 CURVE SMOOTH",
"533 659 OFFCURVE",
"595 574 OFFCURVE",
"582 460 CURVE",
"604 459 LINE",
"612 521 OFFCURVE",
"618 572 OFFCURVE",
"655 627 CURVE",
"651 631 LINE",
"642 629 OFFCURVE",
"634 628 OFFCURVE",
"626 628 CURVE SMOOTH",
"609 628 OFFCURVE",
"590 641 OFFCURVE",
"571 651 CURVE SMOOTH",
"530 674 OFFCURVE",
"480 685 OFFCURVE",
"433 685 CURVE SMOOTH",
"308 685 OFFCURVE",
"178 608 OFFCURVE",
"178 482 CURVE SMOOTH",
"178 387 OFFCURVE",
"248 350 OFFCURVE",
"314 314 CURVE SMOOTH",
"373 282 OFFCURVE",
"434 253 OFFCURVE",
"434 182 CURVE SMOOTH",
"434 71 OFFCURVE",
"348 15 OFFCURVE",
"245 15 CURVE SMOOTH",
"138 15 OFFCURVE",
"95 76 OFFCURVE",
"95 166 CURVE SMOOTH",
"95 193 OFFCURVE",
"99 222 OFFCURVE",
"105 251 CURVE",
"76 254 LINE",
"70 191 OFFCURVE",
"44 126 OFFCURVE",
"14 70 CURVE",
"63 26 OFFCURVE",
"124 -8 OFFCURVE",
"235 -8 CURVE"
);
}
);
width = 587;
},
{
anchors = (
{
name = topcase;
position = "{449, 690}";
}
);
background = {
paths = (
{
closed = 1;
nodes = (
"410 -8 OFFCURVE",
"554 63 OFFCURVE",
"554 215 CURVE SMOOTH",
"554 311 OFFCURVE",
"467 351 OFFCURVE",
"406 385 CURVE SMOOTH",
"344 419 OFFCURVE",
"281 441 OFFCURVE",
"281 504 CURVE SMOOTH",
"281 602 OFFCURVE",
"358 659 OFFCURVE",
"445 659 CURVE SMOOTH",
"561 659 OFFCURVE",
"623 574 OFFCURVE",
"610 460 CURVE",
"632 459 LINE",
"640 521 OFFCURVE",
"646 572 OFFCURVE",
"683 627 CURVE",
"679 631 LINE",
"670 629 OFFCURVE",
"662 628 OFFCURVE",
"654 628 CURVE SMOOTH",
"637 628 OFFCURVE",
"618 641 OFFCURVE",
"599 651 CURVE SMOOTH",
"558 674 OFFCURVE",
"508 685 OFFCURVE",
"461 685 CURVE SMOOTH",
"336 685 OFFCURVE",
"206 608 OFFCURVE",
"206 482 CURVE SMOOTH",
"206 387 OFFCURVE",
"276 350 OFFCURVE",
"342 314 CURVE SMOOTH",
"401 282 OFFCURVE",
"462 253 OFFCURVE",
"462 182 CURVE SMOOTH",
"462 71 OFFCURVE",
"376 15 OFFCURVE",
"273 15 CURVE SMOOTH",
"166 15 OFFCURVE",
"123 76 OFFCURVE",
"123 166 CURVE SMOOTH",
"123 193 OFFCURVE",
"127 222 OFFCURVE",
"133 251 CURVE",
"104 254 LINE",
"98 191 OFFCURVE",
"72 126 OFFCURVE",
"42 70 CURVE",
"91 26 OFFCURVE",
"152 -8 OFFCURVE",
"263 -8 CURVE"
);
},
{
closed = 0;
nodes = (
"718 585 LINE SMOOTH",
"518 88 LINE SMOOTH"
);
}
);
};
layerId = "B3FC2A1D-D4D8-43EF-896F-5E7A9998234E";
paths = (
{
closed = 1;
nodes = (
"408 -10 OFFCURVE",
"554 72 OFFCURVE",
"554 224 CURVE SMOOTH",
"554 326 OFFCURVE",
"465 368 OFFCURVE",
"395 398 CURVE SMOOTH",
"329 426 OFFCURVE",
"274 455 OFFCURVE",
"274 511 CURVE SMOOTH",
"274 600 OFFCURVE",
"351 651 OFFCURVE",
"437 651 CURVE SMOOTH",
"531 651 OFFCURVE",
"609 592 OFFCURVE",
"600 459 CURVE",
"631 459 LINE",
"635 527 OFFCURVE",
"646 581 OFFCURVE",
"682 626 CURVE",
"678 630 LINE",
"669 628 OFFCURVE",
"661 627 OFFCURVE",
"653 627 CURVE SMOOTH",
"635 627 OFFCURVE",
"615 640 OFFCURVE",
"595 650 CURVE SMOOTH",
"551 673 OFFCURVE",
"496 684 OFFCURVE",
"446 684 CURVE SMOOTH",
"309 684 OFFCURVE",
"166 604 OFFCURVE",
"166 472 CURVE SMOOTH",
"166 373 OFFCURVE",
"239 327 OFFCURVE",
"319 291 CURVE SMOOTH",
"421 245 OFFCURVE",
"449 222 OFFCURVE",
"449 165 CURVE SMOOTH",
"449 73 OFFCURVE",
"358 23 OFFCURVE",
"270 23 CURVE SMOOTH",
"183 23 OFFCURVE",
"90 63 OFFCURVE",
"90 167 CURVE SMOOTH",
"90 195 OFFCURVE",
"95 225 OFFCURVE",
"106 256 CURVE",
"70 256 LINE",
"57 178 OFFCURVE",
"42 131 OFFCURVE",
"11 70 CURVE",
"76 17 OFFCURVE",
"151 -10 OFFCURVE",
"261 -10 CURVE SMOOTH"
);
}
);
width = 620;
}
);
leftKerningGroup = S;
rightKerningGroup = S;
unicode = 0053;
},
{
glyphname = T;
lastChange = "2015-12-04 17:57:05 +0000";
layers = (
{
anchors = (
{
name = topcase;
position = "{549, 690}";
}
);
layerId = "A0758A2D-FE5C-4D8D-B7A5-83FAC1CB14BB";
paths = (
{
closed = 1;
nodes = (
"431 0 LINE",
"438 18 LINE",
"382 29 LINE SMOOTH",
"331 39 OFFCURVE",
"325 46 OFFCURVE",
"342 88 CURVE SMOOTH",
"568 649 LINE",
"663 649 LINE",
"761 649 OFFCURVE",
"782 581 OFFCURVE",
"772 496 CURVE",
"793 496 LINE",
"811 573 OFFCURVE",
"823 617 OFFCURVE",
"854 673 CURVE",
"211 673 LINE",
"196 617 OFFCURVE",
"175 573 OFFCURVE",
"129 496 CURVE",
"150 496 LINE",
"210 581 OFFCURVE",
"285 649 OFFCURVE",
"383 649 CURVE SMOOTH",
"478 649 LINE",
"252 88 LINE SMOOTH",
"235 46 OFFCURVE",
"223 39 OFFCURVE",
"164 29 CURVE SMOOTH",
"98 18 LINE",
"91 0 LINE"
);
}
);
width = 694;
},
{
anchors = (
{
name = topcase;
position = "{543, 690}";
}
);
layerId = "B3FC2A1D-D4D8-43EF-896F-5E7A9998234E";
paths = (
{
closed = 1;
nodes = (
"438 0 LINE",
"447 22 LINE",
"400 33 LINE SMOOTH",
"358 43 OFFCURVE",
"353 50 OFFCURVE",
"370 92 CURVE SMOOTH",
"592 640 LINE",
"665 640 LINE SMOOTH",
"752 640 OFFCURVE",
"784 564 OFFCURVE",
"770 476 CURVE",
"797 476 LINE",
"808 530 OFFCURVE",
"831 613 OFFCURVE",
"865 673 CURVE",
"205 673 LINE",
"191 613 OFFCURVE",
"146 530 OFFCURVE",
"113 476 CURVE",
"140 476 LINE",
"198 564 OFFCURVE",
"292 640 OFFCURVE",
"379 640 CURVE",
"452 640 LINE",
"230 92 LINE SMOOTH",
"213 50 OFFCURVE",
"202 43 OFFCURVE",
"152 33 CURVE SMOOTH",
"97 22 LINE",
"88 0 LINE"
);
}
);
width = 704;
}
);
leftKerningGroup = T;
rightKerningGroup = T;
unicode = 0054;
},
{
glyphname = Tbar;
lastChange = "2015-12-04 17:57:05 +0000";
layers = (
{
background = {
paths = (
{
closed = 1;
nodes = (
"601 322 LINE",
"616 360 LINE",
"196 360 LINE",
"181 322 LINE"
);
},
{
closed = 1;
nodes = (
"431 0 LINE",
"438 18 LINE",
"382 29 LINE SMOOTH",
"331 39 OFFCURVE",
"325 46 OFFCURVE",
"342 88 CURVE SMOOTH",
"568 649 LINE",
"663 649 LINE",
"761 649 OFFCURVE",
"782 581 OFFCURVE",
"772 496 CURVE",
"793 496 LINE",
"811 573 OFFCURVE",
"823 617 OFFCURVE",
"854 673 CURVE",
"211 673 LINE",
"196 617 OFFCURVE",
"175 573 OFFCURVE",
"129 496 CURVE",
"150 496 LINE",
"210 581 OFFCURVE",
"285 649 OFFCURVE",
"383 649 CURVE SMOOTH",
"478 649 LINE",
"252 88 LINE SMOOTH",
"235 46 OFFCURVE",
"223 39 OFFCURVE",
"164 29 CURVE SMOOTH",
"98 18 LINE",
"91 0 LINE"
);
}
);
};
components = (
{
name = T;
}
);
layerId = "A0758A2D-FE5C-4D8D-B7A5-83FAC1CB14BB";
paths = (
{
closed = 1;
nodes = (
"602 322 LINE",
"617 360 LINE",
"197 360 LINE",
"182 322 LINE"
);
}
);
width = 694;
},
{
components = (
{
name = T;
}
);
layerId = "B3FC2A1D-D4D8-43EF-896F-5E7A9998234E";
paths = (
{
closed = 1;
nodes = (
"584 312 LINE",
"606 367 LINE",
"216 367 LINE",
"194 312 LINE"
);
}
);
width = 704;
}
);
leftKerningGroup = T;
rightKerningGroup = T;
unicode = 0166;
},
{
glyphname = U;
lastChange = "2015-12-04 17:57:05 +0000";
layers = (
{
anchors = (
{
name = topcase;
position = "{618, 690}";
}
);
background = {
anchors = (
{
name = topcase;
position = "{619, 690}";
}
);
paths = (
{
closed = 1;
nodes = (
"404 -13 OFFCURVE",
"467 28 OFFCURVE",
"514 63 CURVE SMOOTH",
"549 88 OFFCURVE",
"575 110 OFFCURVE",
"602 110 CURVE",
"792 581 LINE SMOOTH",
"809 623 OFFCURVE",
"823 634 OFFCURVE",
"882 644 CURVE SMOOTH",
"947 655 LINE",
"955 673 LINE",
"676 673 LINE",
"668 655 LINE",
"725 644 LINE SMOOTH",
"776 634 OFFCURVE",
"779 620 OFFCURVE",
"762 578 CURVE SMOOTH",
"624 236 LINE SMOOTH",
"574 112 OFFCURVE",
"477 37 OFFCURVE",
"356 37 CURVE SMOOTH",
"244 37 OFFCURVE",
"199 107 OFFCURVE",
"249 232 CURVE SMOOTH",
"392 585 LINE SMOOTH",
"409 627 OFFCURVE",
"421 634 OFFCURVE",
"480 644 CURVE SMOOTH",
"545 655 LINE",
"553 673 LINE",
"213 673 LINE",
"205 655 LINE",
"262 644 LINE SMOOTH",
"313 634 OFFCURVE",
"319 627 OFFCURVE",
"302 585 CURVE SMOOTH",
"159 231 LINE SMOOTH",
"98 79 OFFCURVE",
"166 -13 OFFCURVE",
"306 -13 CURVE SMOOTH"
);
},
{
closed = 1;
nodes = (
"422 -13 OFFCURVE",
"488 39 OFFCURVE",
"537 80 CURVE SMOOTH",
"570 108 OFFCURVE",
"595 131 OFFCURVE",
"611 131 CURVE",
"791 581 LINE SMOOTH",
"808 623 OFFCURVE",
"821 634 OFFCURVE",
"880 644 CURVE SMOOTH",
"946 655 LINE",
"953 673 LINE",
"674 673 LINE",
"667 655 LINE",
"723 644 LINE SMOOTH",
"774 634 OFFCURVE",
"778 620 OFFCURVE",
"761 578 CURVE SMOOTH",
"623 236 LINE SMOOTH",
"573 112 OFFCURVE",
"475 37 OFFCURVE",
"354 37 CURVE SMOOTH",
"230 37 OFFCURVE",
"200 113 OFFCURVE",
"248 232 CURVE SMOOTH",
"391 585 LINE SMOOTH",
"408 627 OFFCURVE",
"419 634 OFFCURVE",
"478 644 CURVE SMOOTH",
"544 655 LINE",
"551 673 LINE",
"211 673 LINE",
"204 655 LINE",
"260 644 LINE SMOOTH",
"311 634 OFFCURVE",
"318 627 OFFCURVE",
"301 585 CURVE SMOOTH",
"158 231 LINE SMOOTH",
"100 93 OFFCURVE",
"156 -13 OFFCURVE",
"313 -13 CURVE SMOOTH"
);
}
);
};
layerId = "A0758A2D-FE5C-4D8D-B7A5-83FAC1CB14BB";
paths = (
{
closed = 1;
nodes = (
"409 -13 OFFCURVE",
"471 29 OFFCURVE",
"518 63 CURVE SMOOTH",
"552 88 OFFCURVE",
"577 110 OFFCURVE",
"602 110 CURVE",
"791 581 LINE SMOOTH",
"808 623 OFFCURVE",
"821 634 OFFCURVE",
"880 644 CURVE SMOOTH",
"946 655 LINE",
"953 673 LINE",
"674 673 LINE",
"667 655 LINE",
"723 644 LINE SMOOTH",
"774 634 OFFCURVE",
"778 620 OFFCURVE",
"761 578 CURVE SMOOTH",
"623 236 LINE SMOOTH",
"573 112 OFFCURVE",
"475 37 OFFCURVE",
"354 37 CURVE SMOOTH",
"230 37 OFFCURVE",
"200 113 OFFCURVE",
"248 232 CURVE SMOOTH",
"391 585 LINE SMOOTH",
"408 627 OFFCURVE",
"419 634 OFFCURVE",
"478 644 CURVE SMOOTH",
"544 655 LINE",
"551 673 LINE",
"211 673 LINE",
"204 655 LINE",
"260 644 LINE SMOOTH",
"311 634 OFFCURVE",
"318 627 OFFCURVE",
"301 585 CURVE SMOOTH",
"158 231 LINE SMOOTH",
"100 93 OFFCURVE",
"156 -13 OFFCURVE",
"313 -13 CURVE SMOOTH"
);
}
);
width = 792;
},
{
anchors = (
{
name = topcase;
position = "{600, 690}";
}
);
background = {
paths = (
{
closed = 1;
nodes = (
"401 -11 OFFCURVE",
"467 33 OFFCURVE",
"512 67 CURVE SMOOTH",
"544 90 OFFCURVE",
"566 109 OFFCURVE",
"587 109 CURVE",
"778 581 LINE SMOOTH",
"793 617 OFFCURVE",
"816 630 OFFCURVE",
"855 638 CURVE SMOOTH",
"918 651 LINE",
"927 673 LINE",
"652 673 LINE",
"643 651 LINE",
"710 636 LINE SMOOTH",
"743 629 OFFCURVE",
"755 614 OFFCURVE",
"742 581 CURVE SMOOTH",
"595 216 LINE SMOOTH",
"557 124 OFFCURVE",
"457 57 OFFCURVE",
"360 57 CURVE SMOOTH",
"250 57 OFFCURVE",
"219 120 OFFCURVE",
"259 220 CURVE SMOOTH",
"405 581 LINE SMOOTH",
"422 623 OFFCURVE",
"433 630 OFFCURVE",
"483 640 CURVE SMOOTH",
"538 651 LINE",
"547 673 LINE",
"197 673 LINE",
"188 651 LINE",
"235 640 LINE SMOOTH",
"277 630 OFFCURVE",
"282 623 OFFCURVE",
"265 581 CURVE SMOOTH",
"117 215 LINE SMOOTH",
"63 82 OFFCURVE",
"151 -11 OFFCURVE",
"280 -11 CURVE SMOOTH"
);
}
);
};
layerId = "B3FC2A1D-D4D8-43EF-896F-5E7A9998234E";
paths = (
{
closed = 1;
nodes = (
"398 -11 OFFCURVE",
"463 30 OFFCURVE",
"509 65 CURVE SMOOTH",
"542 89 OFFCURVE",
"565 109 OFFCURVE",
"587 109 CURVE",
"779 581 LINE SMOOTH",
"794 617 OFFCURVE",
"816 630 OFFCURVE",
"856 638 CURVE SMOOTH",
"919 651 LINE",
"928 673 LINE",
"653 673 LINE",
"644 651 LINE",
"711 636 LINE SMOOTH",
"744 629 OFFCURVE",
"756 614 OFFCURVE",
"743 581 CURVE SMOOTH",
"595 216 LINE SMOOTH",
"558 124 OFFCURVE",
"458 57 OFFCURVE",
"361 57 CURVE SMOOTH",
"251 57 OFFCURVE",
"219 120 OFFCURVE",
"260 220 CURVE SMOOTH",
"406 581 LINE SMOOTH",
"423 623 OFFCURVE",
"433 630 OFFCURVE",
"483 640 CURVE SMOOTH",
"539 651 LINE",
"548 673 LINE",
"198 673 LINE",
"189 651 LINE",
"235 640 LINE SMOOTH",
"277 630 OFFCURVE",
"283 623 OFFCURVE",
"266 581 CURVE SMOOTH",
"133 252 LINE SMOOTH",
"73 105 OFFCURVE",
"146 -11 OFFCURVE",
"290 -11 CURVE SMOOTH"
);
}
);
width = 765;
}
);
leftKerningGroup = U;
rightKerningGroup = U;
unicode = 0055;
},
{
glyphname = V;
lastChange = "2016-03-16 14:50:50 +0000";
layers = (
{
layerId = "A0758A2D-FE5C-4D8D-B7A5-83FAC1CB14BB";
paths = (
{
closed = 1;
nodes = (
"314 -15 LINE",
"782 576 LINE SMOOTH",
"824 628 OFFCURVE",
"848 635 OFFCURVE",
"892 645 CURVE SMOOTH",
"938 655 LINE",
"945 673 LINE",
"695 673 LINE",
"688 655 LINE",
"731 646 LINE SMOOTH",
"761 640 OFFCURVE",
"773 635 OFFCURVE",
"773 624 CURVE SMOOTH",
"773 614 OFFCURVE",
"766 602 OFFCURVE",
"752 584 CURVE SMOOTH",
"378 111 LINE",
"386 111 LINE",
"367 571 LINE SMOOTH",
"366 585 OFFCURVE",
"368 605 OFFCURVE",
"372 616 CURVE",
"381 636 OFFCURVE",
"413 641 OFFCURVE",
"448 647 CURVE SMOOTH",
"498 655 LINE",
"505 673 LINE",
"191 673 LINE",
"184 655 LINE",
"223 647 LINE SMOOTH",
"269 637 OFFCURVE",
"277 623 OFFCURVE",
"279 577 CURVE SMOOTH",
"306 -15 LINE"
);
}
);
width = 764;
},
{
background = {
paths = (
{
closed = 1;
nodes = (
"488 55 LINE",
"488 79 LINE",
"441 72 LINE SMOOTH",
"398 65 OFFCURVE",
"391 70 OFFCURVE",
"391 115 CURVE SMOOTH",
"391 643 LINE SMOOTH",
"391 688 OFFCURVE",
"399 699 OFFCURVE",
"442 726 CURVE SMOOTH",
"488 757 LINE",
"489 781 LINE",
"164 650 LINE",
"164 626 LINE",
"211 633 LINE SMOOTH",
"254 640 OFFCURVE",
"261 635 OFFCURVE",
"261 590 CURVE SMOOTH",
"261 62 LINE SMOOTH",
"261 17 OFFCURVE",
"253 6 OFFCURVE",
"210 -21 CURVE SMOOTH",
"164 -52 LINE",
"163 -76 LINE"
);
},
{
closed = 1;
nodes = (
"304 -15 LINE",
"803 602 LINE SMOOTH",
"822 625 OFFCURVE",
"842 633 OFFCURVE",
"870 638 CURVE SMOOTH",
"938 651 LINE",
"947 673 LINE",
"668 673 LINE",
"659 651 LINE",
"727 634 LINE SMOOTH",
"754 628 OFFCURVE",
"765 619 OFFCURVE",
"758 602 CURVE SMOOTH",
"756 597 OFFCURVE",
"752 591 OFFCURVE",
"747 585 CURVE SMOOTH",
"371 121 LINE",
"398 121 LINE",
"405 582 LINE SMOOTH",
"405 590 OFFCURVE",
"407 598 OFFCURVE",
"409 604 CURVE SMOOTH",
"417 623 OFFCURVE",
"437 633 OFFCURVE",
"473 640 CURVE SMOOTH",
"528 651 LINE",
"537 673 LINE",
"177 673 LINE",
"168 651 LINE",
"218 639 LINE SMOOTH",
"233 636 OFFCURVE",
"245 629 OFFCURVE",
"245 614 CURVE SMOOTH",
"256 -15 LINE"
);
}
);
};
layerId = "B3FC2A1D-D4D8-43EF-896F-5E7A9998234E";
paths = (
{
closed = 1;
nodes = (
"304 -15 LINE",
"803 602 LINE SMOOTH",
"822 625 OFFCURVE",
"842 633 OFFCURVE",
"870 638 CURVE SMOOTH",
"938 651 LINE",
"947 673 LINE",
"666 673 LINE",
"657 651 LINE",
"725 634 LINE SMOOTH",
"752 628 OFFCURVE",
"763 619 OFFCURVE",
"756 602 CURVE SMOOTH",
"754 597 OFFCURVE",
"750 591 OFFCURVE",
"745 585 CURVE SMOOTH",
"371 121 LINE",
"391 121 LINE",
"395 582 LINE SMOOTH",
"395 590 OFFCURVE",
"397 598 OFFCURVE",
"399 604 CURVE SMOOTH",
"407 623 OFFCURVE",
"427 633 OFFCURVE",
"463 640 CURVE SMOOTH",
"518 651 LINE",
"527 673 LINE",
"188 673 LINE",
"179 651 LINE",
"229 639 LINE SMOOTH",
"244 636 OFFCURVE",
"256 629 OFFCURVE",
"256 614 CURVE SMOOTH",
"261 -15 LINE"
);
}
);
width = 769;
}
);
unicode = 0056;
},
{
glyphname = W;
lastChange = "2016-03-16 14:50:56 +0000";
layers = (
{
anchors = (
{
name = topcase;
position = "{788, 690}";
}
);
background = {
paths = (
{
closed = 1;
nodes = (
"269 -9 LINE",
"695 535 LINE",
"667 -9 LINE",
"674 -9 LINE",
"1131 574 LINE SMOOTH",
"1166 619 OFFCURVE",
"1193 640 OFFCURVE",
"1245 647 CURVE SMOOTH",
"1303 655 LINE",
"1310 673 LINE",
"1041 673 LINE",
"1034 655 LINE",
"1093 643 LINE SMOOTH",
"1120 637 OFFCURVE",
"1130 631 OFFCURVE",
"1123 615 CURVE SMOOTH",
"1120 607 OFFCURVE",
"1113 597 OFFCURVE",
"1103 584 CURVE SMOOTH",
"748 130 LINE",
"764 124 LINE",
"785 577 LINE SMOOTH",
"786 594 OFFCURVE",
"786 607 OFFCURVE",
"790 616 CURVE SMOOTH",
"796 631 OFFCURVE",
"810 637 OFFCURVE",
"844 643 CURVE SMOOTH",
"916 655 LINE",
"923 673 LINE",
"637 673 LINE",
"630 655 LINE",
"686 643 LINE SMOOTH",
"716 636 OFFCURVE",
"725 629 OFFCURVE",
"719 615 CURVE SMOOTH",
"716 606 OFFCURVE",
"705 592 OFFCURVE",
"691 574 CURVE SMOOTH",
"342 130 LINE",
"355 124 LINE",
"370 584 LINE SMOOTH",
"370 597 OFFCURVE",
"371 607 OFFCURVE",
"374 615 CURVE SMOOTH",
"381 631 OFFCURVE",
"396 638 OFFCURVE",
"428 643 CURVE SMOOTH",
"501 655 LINE",
"508 673 LINE",
"191 673 LINE",
"184 655 LINE",
"222 647 LINE SMOOTH",
"268 638 OFFCURVE",
"279 619 OFFCURVE",
"278 574 CURVE SMOOTH",
"262 -9 LINE"
);
}
);
};
layerId = "A0758A2D-FE5C-4D8D-B7A5-83FAC1CB14BB";
paths = (
{
closed = 1;
nodes = (
"269 -9 LINE",
"695 535 LINE",
"667 -9 LINE",
"674 -9 LINE",
"1131 574 LINE SMOOTH",
"1166 619 OFFCURVE",
"1193 640 OFFCURVE",
"1245 647 CURVE SMOOTH",
"1303 655 LINE",
"1310 673 LINE",
"1041 673 LINE",
"1034 655 LINE",
"1093 643 LINE SMOOTH",
"1133 634 OFFCURVE",
"1135 625 OFFCURVE",
"1103 584 CURVE SMOOTH",
"748 130 LINE",
"764 124 LINE",
"785 577 LINE SMOOTH",
"788 625 OFFCURVE",
"789 633 OFFCURVE",
"844 643 CURVE SMOOTH",
"916 655 LINE",
"923 673 LINE",
"637 673 LINE",
"630 655 LINE",
"686 643 LINE SMOOTH",
"734 632 OFFCURVE",
"729 622 OFFCURVE",
"691 574 CURVE SMOOTH",
"342 130 LINE",
"355 124 LINE",
"370 584 LINE SMOOTH",
"370 624 OFFCURVE",
"380 636 OFFCURVE",
"428 643 CURVE SMOOTH",
"501 655 LINE",
"508 673 LINE",
"191 673 LINE",
"184 655 LINE",
"222 647 LINE SMOOTH",
"268 638 OFFCURVE",
"279 619 OFFCURVE",
"278 574 CURVE SMOOTH",
"262 -9 LINE"
);
}
);
width = 1129;
},
{
anchors = (
{
name = topcase;
position = "{763, 690}";
}
);
background = {
paths = (
{
closed = 1;
nodes = (
"294 -15 LINE",
"643 481 LINE",
"632 -15 LINE",
"680 -15 LINE",
"1151 597 LINE SMOOTH",
"1168 620 OFFCURVE",
"1192 632 OFFCURVE",
"1220 637 CURVE SMOOTH",
"1289 651 LINE",
"1297 673 LINE",
"1018 673 LINE",
"1010 651 LINE",
"1066 637 LINE SMOOTH",
"1118 624 OFFCURVE",
"1123 618 OFFCURVE",
"1106 595 CURVE SMOOTH",
"766 153 LINE",
"772 591 LINE SMOOTH",
"772 620 OFFCURVE",
"797 633 OFFCURVE",
"823 638 CURVE SMOOTH",
"892 651 LINE",
"900 673 LINE",
"603 673 LINE",
"595 651 LINE",
"659 638 LINE SMOOTH",
"683 633 OFFCURVE",
"690 618 OFFCURVE",
"672 591 CURVE SMOOTH",
"381 161 LINE",
"387 582 LINE SMOOTH",
"387 616 OFFCURVE",
"406 631 OFFCURVE",
"454 640 CURVE SMOOTH",
"510 651 LINE",
"518 673 LINE",
"191 673 LINE",
"183 651 LINE",
"233 639 LINE",
"248 636 OFFCURVE",
"260 629 OFFCURVE",
"260 614 CURVE SMOOTH",
"246 -15 LINE"
);
}
);
};
layerId = "B3FC2A1D-D4D8-43EF-896F-5E7A9998234E";
paths = (
{
closed = 1;
nodes = (
"294 -15 LINE",
"643 481 LINE",
"632 -15 LINE",
"680 -15 LINE",
"1151 597 LINE SMOOTH",
"1168 620 OFFCURVE",
"1192 632 OFFCURVE",
"1220 637 CURVE SMOOTH",
"1289 651 LINE",
"1297 673 LINE",
"1018 673 LINE",
"1010 651 LINE",
"1066 637 LINE SMOOTH",
"1118 624 OFFCURVE",
"1123 618 OFFCURVE",
"1106 595 CURVE SMOOTH",
"740 117 LINE",
"765 107 LINE",
"772 591 LINE SMOOTH",
"772 620 OFFCURVE",
"797 633 OFFCURVE",
"823 638 CURVE SMOOTH",
"892 651 LINE",
"900 673 LINE",
"603 673 LINE",
"595 651 LINE",
"659 638 LINE SMOOTH",
"683 633 OFFCURVE",
"690 618 OFFCURVE",
"672 591 CURVE SMOOTH",
"355 123 LINE",
"380 115 LINE",
"387 582 LINE SMOOTH",
"387 616 OFFCURVE",
"406 631 OFFCURVE",
"454 640 CURVE SMOOTH",
"510 651 LINE",
"518 673 LINE",
"191 673 LINE",
"183 651 LINE",
"233 639 LINE SMOOTH",
"257 634 OFFCURVE",
"261 624 OFFCURVE",
"260 597 CURVE SMOOTH",
"246 -15 LINE"
);
}
);
width = 1123;
}
);
leftKerningGroup = W;
rightKerningGroup = W;
unicode = 0057;
},
{
glyphname = X;
lastChange = "2015-12-04 17:57:05 +0000";
layers = (
{
background = {
paths = (
{
closed = 1;
nodes = (
"212 0 LINE",
"219 18 LINE",
"157 32 LINE SMOOTH",
"127 39 OFFCURVE",
"129 55 OFFCURVE",
"159 81 CURVE SMOOTH",
"418 302 LINE",
"486 96 LINE SMOOTH",
"501 50 OFFCURVE",
"486 36 OFFCURVE",
"428 27 CURVE SMOOTH",
"370 18 LINE",
"363 0 LINE",
"684 0 LINE",
"692 19 LINE",
"664 24 LINE SMOOTH",
"608 34 OFFCURVE",
"586 60 OFFCURVE",
"564 127 CURVE SMOOTH",
"489 355 LINE",
"769 589 LINE SMOOTH",
"813 625 OFFCURVE",
"856 642 OFFCURVE",
"906 649 CURVE SMOOTH",
"952 655 LINE",
"959 673 LINE",
"675 673 LINE",
"668 655 LINE",
"730 641 LINE SMOOTH",
"762 634 OFFCURVE",
"755 612 OFFCURVE",
"727 588 CURVE SMOOTH",
"480 381 LINE",
"416 580 LINE SMOOTH",
"402 624 OFFCURVE",
"424 638 OFFCURVE",
"483 647 CURVE SMOOTH",
"541 655 LINE",
"548 673 LINE",
"226 673 LINE",
"218 654 LINE",
"246 649 LINE SMOOTH",
"299 639 OFFCURVE",
"314 619 OFFCURVE",
"327 580 CURVE SMOOTH",
"409 333 LINE",
"113 80 LINE SMOOTH",
"73 46 OFFCURVE",
"27 31 OFFCURVE",
"-23 24 CURVE SMOOTH",
"-69 18 LINE",
"-76 0 LINE"
);
}
);
};
layerId = "A0758A2D-FE5C-4D8D-B7A5-83FAC1CB14BB";
paths = (
{
closed = 1;
nodes = (
"684 0 LINE",
"692 19 LINE",
"664 24 LINE SMOOTH",
"608 34 OFFCURVE",
"586 60 OFFCURVE",
"564 127 CURVE",
"487 362 LINE",
"484 371 LINE",
"416 580 LINE",
"402 624 OFFCURVE",
"424 638 OFFCURVE",
"483 647 CURVE SMOOTH",
"541 655 LINE",
"548 673 LINE",
"226 673 LINE",
"218 654 LINE",
"246 649 LINE SMOOTH",
"299 639 OFFCURVE",
"314 619 OFFCURVE",
"327 580 CURVE",
"411 323 LINE",
"414 314 LINE",
"486 96 LINE",
"501 50 OFFCURVE",
"486 36 OFFCURVE",
"428 27 CURVE SMOOTH",
"370 18 LINE",
"363 0 LINE"
);
},
{
closed = 1;
nodes = (
"212 0 LINE",
"219 18 LINE",
"157 32 LINE SMOOTH",
"127 39 OFFCURVE",
"128 55 OFFCURVE",
"159 81 CURVE SMOOTH",
"432 315 LINE",
"420 343 LINE",
"113 80 LINE SMOOTH",
"73 46 OFFCURVE",
"27 31 OFFCURVE",
"-23 24 CURVE SMOOTH",
"-69 18 LINE",
"-76 0 LINE"
);
},
{
closed = 1;
nodes = (
"769 589 LINE SMOOTH",
"813 626 OFFCURVE",
"856 642 OFFCURVE",
"906 649 CURVE SMOOTH",
"952 655 LINE",
"959 673 LINE",
"675 673 LINE",
"668 655 LINE",
"730 641 LINE SMOOTH",
"762 634 OFFCURVE",
"755 612 OFFCURVE",
"727 588 CURVE SMOOTH",
"463 365 LINE",
"473 340 LINE"
);
}
);
width = 783;
},
{
layerId = "B3FC2A1D-D4D8-43EF-896F-5E7A9998234E";
paths = (
{
closed = 1;
nodes = (
"704 0 LINE",
"712 22 LINE",
"669 32 LINE SMOOTH",
"651 36 OFFCURVE",
"642 46 OFFCURVE",
"632 70 CURVE SMOOTH",
"507 365 LINE",
"500 375 LINE",
"410 597 LINE SMOOTH",
"404 613 OFFCURVE",
"412 627 OFFCURVE",
"439 632 CURVE SMOOTH",
"532 651 LINE",
"540 673 LINE",
"198 673 LINE",
"190 651 LINE",
"234 641 LINE SMOOTH",
"257 635 OFFCURVE",
"263 626 OFFCURVE",
"270 607 CURVE SMOOTH",
"390 310 LINE",
"402 300 LINE",
"487 91 LINE SMOOTH",
"497 66 OFFCURVE",
"486 46 OFFCURVE",
"420 33 CURVE SMOOTH",
"364 22 LINE",
"356 0 LINE"
);
},
{
closed = 1;
nodes = (
"203 0 LINE",
"211 22 LINE",
"143 39 LINE SMOOTH",
"120 45 OFFCURVE",
"122 63 OFFCURVE",
"150 85 CURVE SMOOTH",
"415 300 LINE",
"395 332 LINE",
"79 71 LINE SMOOTH",
"56 52 OFFCURVE",
"27 40 OFFCURVE",
"-1 35 CURVE SMOOTH",
"-70 22 LINE",
"-78 0 LINE"
);
},
{
closed = 1;
nodes = (
"796 602 LINE SMOOTH",
"819 622 OFFCURVE",
"849 633 OFFCURVE",
"877 638 CURVE SMOOTH",
"946 651 LINE",
"954 673 LINE",
"672 673 LINE",
"664 651 LINE",
"732 634 LINE SMOOTH",
"755 628 OFFCURVE",
"752 611 OFFCURVE",
"725 588 CURVE SMOOTH",
"470 369 LINE",
"491 336 LINE"
);
}
);
width = 803;
}
);
unicode = 0058;
},
{
glyphname = Y;
lastChange = "2015-12-04 17:57:05 +0000";
layers = (
{
anchors = (
{
name = topcase;
position = "{568, 690}";
}
);
background = {
paths = (
{
closed = 1;
nodes = (
"438 321 LINE",
"720 588 LINE SMOOTH",
"764 630 OFFCURVE",
"799 643 OFFCURVE",
"839 649 CURVE SMOOTH",
"880 655 LINE",
"887 673 LINE",
"635 673 LINE",
"628 655 LINE",
"685 641 LINE SMOOTH",
"716 633 OFFCURVE",
"711 616 OFFCURVE",
"680 587 CURVE SMOOTH",
"434 352 LINE",
"452 352 LINE",
"376 580 LINE SMOOTH",
"362 622 OFFCURVE",
"382 640 OFFCURVE",
"439 648 CURVE SMOOTH",
"494 656 LINE",
"501 673 LINE",
"187 673 LINE",
"179 654 LINE",
"207 649 LINE SMOOTH",
"240 643 OFFCURVE",
"252 631 OFFCURVE",
"261 604 CURVE SMOOTH",
"362 305 LINE"
);
},
{
closed = 1;
nodes = (
"263 88 LINE SMOOTH",
"246 46 OFFCURVE",
"234 39 OFFCURVE",
"175 29 CURVE SMOOTH",
"109 18 LINE",
"102 0 LINE",
"442 0 LINE",
"449 18 LINE",
"393 29 LINE SMOOTH",
"342 39 OFFCURVE",
"336 46 OFFCURVE",
"353 88 CURVE SMOOTH",
"454 340 LINE",
"360 330 LINE"
);
}
);
};
layerId = "A0758A2D-FE5C-4D8D-B7A5-83FAC1CB14BB";
paths = (
{
closed = 1;
nodes = (
"438 321 LINE",
"720 588 LINE SMOOTH",
"764 630 OFFCURVE",
"799 643 OFFCURVE",
"839 649 CURVE SMOOTH",
"880 655 LINE",
"887 673 LINE",
"633 673 LINE",
"626 655 LINE",
"683 641 LINE SMOOTH",
"714 633 OFFCURVE",
"709 616 OFFCURVE",
"678 587 CURVE SMOOTH",
"432 352 LINE",
"441 352 LINE",
"365 580 LINE SMOOTH",
"351 622 OFFCURVE",
"371 640 OFFCURVE",
"428 648 CURVE SMOOTH",
"483 656 LINE",
"490 673 LINE",
"191 673 LINE",
"183 654 LINE",
"211 649 LINE SMOOTH",
"244 643 OFFCURVE",
"256 631 OFFCURVE",
"265 604 CURVE SMOOTH",
"366 305 LINE"
);
},
{
closed = 1;
nodes = (
"442 0 LINE",
"449 18 LINE",
"393 29 LINE SMOOTH",
"342 39 OFFCURVE",
"336 46 OFFCURVE",
"353 88 CURVE SMOOTH",
"454 340 LINE",
"360 330 LINE",
"263 88 LINE SMOOTH",
"246 46 OFFCURVE",
"234 39 OFFCURVE",
"175 29 CURVE SMOOTH",
"109 18 LINE",
"102 0 LINE"
);
}
);
width = 706;
},
{
anchors = (
{
name = topcase;
position = "{576, 690}";
}
);
background = {
paths = (
{
closed = 1;
nodes = (
"381 257 LINE",
"756 602 LINE",
"775 625 OFFCURVE",
"795 633 OFFCURVE",
"823 638 CURVE SMOOTH",
"891 651 LINE",
"900 673 LINE",
"621 673 LINE",
"612 651 LINE",
"689 632 LINE SMOOTH",
"718 625 OFFCURVE",
"715 612 OFFCURVE",
"698 596 CURVE SMOOTH",
"453 373 LINE",
"455 373 LINE",
"407 585 LINE SMOOTH",
"400 618 OFFCURVE",
"428 633 OFFCURVE",
"463 640 CURVE SMOOTH",
"518 651 LINE",
"527 673 LINE",
"198 673 LINE",
"189 651 LINE",
"237 639 LINE",
"252 636 OFFCURVE",
"260 627 OFFCURVE",
"264 614 CURVE",
"351 250 LINE"
);
},
{
closed = 1;
nodes = (
"434 0 LINE",
"443 22 LINE",
"396 33 LINE SMOOTH",
"354 43 OFFCURVE",
"349 50 OFFCURVE",
"366 92 CURVE SMOOTH",
"475 361 LINE",
"332 353 LINE",
"226 92 LINE SMOOTH",
"209 50 OFFCURVE",
"198 43 OFFCURVE",
"148 33 CURVE SMOOTH",
"93 22 LINE",
"84 0 LINE"
);
}
);
};
layerId = "B3FC2A1D-D4D8-43EF-896F-5E7A9998234E";
paths = (
{
closed = 1;
nodes = (
"381 257 LINE",
"756 602 LINE SMOOTH",
"778 623 OFFCURVE",
"803 633 OFFCURVE",
"831 639 CURVE SMOOTH",
"891 651 LINE",
"900 673 LINE",
"621 673 LINE",
"612 651 LINE",
"689 632 LINE SMOOTH",
"716 625 OFFCURVE",
"714 611 OFFCURVE",
"698 596 CURVE SMOOTH",
"453 373 LINE",
"455 373 LINE",
"407 585 LINE SMOOTH",
"400 614 OFFCURVE",
"416 631 OFFCURVE",
"463 640 CURVE SMOOTH",
"518 651 LINE",
"527 673 LINE",
"198 673 LINE",
"189 651 LINE",
"237 639 LINE SMOOTH",
"252 636 OFFCURVE",
"260 629 OFFCURVE",
"264 614 CURVE SMOOTH",
"351 250 LINE"
);
},
{
closed = 1;
nodes = (
"434 0 LINE",
"443 22 LINE",
"396 33 LINE SMOOTH",
"354 43 OFFCURVE",
"349 50 OFFCURVE",
"366 92 CURVE SMOOTH",
"475 361 LINE",
"332 353 LINE",
"226 92 LINE SMOOTH",
"209 50 OFFCURVE",
"198 43 OFFCURVE",
"148 33 CURVE SMOOTH",
"93 22 LINE",
"84 0 LINE"
);
}
);
width = 732;
}
);
leftKerningGroup = Y;
rightKerningGroup = Y;
unicode = 0059;
},
{
glyphname = Z;
lastChange = "2015-12-04 17:57:05 +0000";
layers = (
{
anchors = (
{
name = topcase;
position = "{526, 690}";
}
);
background = {
paths = (
{
closed = 1;
nodes = (
"533 0 LINE",
"558 63 OFFCURVE",
"591 122 OFFCURVE",
"634 187 CURVE",
"614 187 LINE",
"544 97 OFFCURVE",
"429 25 OFFCURVE",
"324 25 CURVE SMOOTH",
"92 25 LINE",
"804 668 LINE",
"806 673 LINE",
"271 673 LINE",
"266 655 OFFCURVE",
"262 638 OFFCURVE",
"255 621 CURVE SMOOTH",
"237 577 OFFCURVE",
"212 530 OFFCURVE",
"187 489 CURVE",
"206 489 LINE",
"290 596 OFFCURVE",
"356 649 OFFCURVE",
"461 649 CURVE SMOOTH",
"660 649 LINE",
"-44 5 LINE",
"-46 0 LINE"
);
}
);
};
layerId = "A0758A2D-FE5C-4D8D-B7A5-83FAC1CB14BB";
paths = (
{
closed = 1;
nodes = (
"533 0 LINE",
"558 63 OFFCURVE",
"591 122 OFFCURVE",
"634 187 CURVE",
"614 187 LINE",
"544 97 OFFCURVE",
"429 25 OFFCURVE",
"324 25 CURVE SMOOTH",
"92 25 LINE",
"804 668 LINE",
"806 673 LINE",
"271 673 LINE",
"266 655 OFFCURVE",
"262 638 OFFCURVE",
"255 621 CURVE SMOOTH",
"237 577 OFFCURVE",
"212 530 OFFCURVE",
"187 489 CURVE",
"207 489 LINE",
"287 592 OFFCURVE",
"366 649 OFFCURVE",
"471 649 CURVE SMOOTH",
"660 649 LINE",
"-44 5 LINE",
"-46 0 LINE"
);
}
);
width = 680;
},
{
anchors = (
{
name = topcase;
position = "{523, 690}";
}
);
background = {
paths = (
{
closed = 1;
nodes = (
"535 0 LINE",
"563 69 OFFCURVE",
"599 133 OFFCURVE",
"644 204 CURVE",
"622 204 LINE",
"547 106 OFFCURVE",
"427 33 OFFCURVE",
"313 33 CURVE SMOOTH",
"149 33 LINE",
"799 652 LINE",
"808 673 LINE",
"253 673 LINE",
"247 653 OFFCURVE",
"243 635 OFFCURVE",
"235 616 CURVE SMOOTH",
"216 568 OFFCURVE",
"189 516 OFFCURVE",
"160 471 CURVE",
"181 471 LINE",
"274 588 OFFCURVE",
"350 640 OFFCURVE",
"466 640 CURVE SMOOTH",
"606 640 LINE",
"-57 18 LINE",
"-64 0 LINE"
);
}
);
};
layerId = "B3FC2A1D-D4D8-43EF-896F-5E7A9998234E";
paths = (
{
closed = 1;
nodes = (
"535 0 LINE",
"563 69 OFFCURVE",
"599 133 OFFCURVE",
"644 204 CURVE",
"622 204 LINE",
"547 106 OFFCURVE",
"427 33 OFFCURVE",
"313 33 CURVE SMOOTH",
"149 33 LINE",
"799 652 LINE",
"808 673 LINE",
"253 673 LINE",
"247 653 OFFCURVE",
"243 635 OFFCURVE",
"235 616 CURVE SMOOTH",
"216 568 OFFCURVE",
"189 516 OFFCURVE",
"160 471 CURVE",
"182 471 LINE",
"260 568 OFFCURVE",
"350 640 OFFCURVE",
"481 640 CURVE SMOOTH",
"606 640 LINE",
"-57 18 LINE",
"-64 0 LINE"
);
}
);
width = 666;
}
);
leftKerningGroup = Z;
rightKerningGroup = Z;
unicode = 005A;
},
{
glyphname = a;
lastChange = "2019-09-13 03:18:25 +0000";
layers = (
{
anchors = (
{
name = top;
position = "{335, 470}";
}
);
background = {
paths = (
{
closed = 1;
nodes = (
"135 -7 OFFCURVE",
"218 59 OFFCURVE",
"266 123 CURVE",
"272 123 LINE",
"251 65 LINE SMOOTH",
"233 15 OFFCURVE",
"255 -7 OFFCURVE",
"283 -7 CURVE SMOOTH",
"323 -7 OFFCURVE",
"383 38 OFFCURVE",
"467 168 CURVE",
"451 178 LINE",
"395 92 OFFCURVE",
"342 43 OFFCURVE",
"319 43 CURVE SMOOTH",
"309 43 OFFCURVE",
"301 56 OFFCURVE",
"313 85 CURVE SMOOTH",
"460 449 LINE",
"450 449 LINE",
"393 407 LINE",
"389 407 LINE",
"380 426 OFFCURVE",
"363 438 OFFCURVE",
"335 438 CURVE SMOOTH",
"220 438 OFFCURVE",
"1 210 OFFCURVE",
"1 70 CURVE SMOOTH",
"1 11 OFFCURVE",
"31 -7 OFFCURVE",
"65 -7 CURVE SMOOTH"
);
},
{
closed = 1;
nodes = (
"93 45 OFFCURVE",
"76 61 OFFCURVE",
"76 102 CURVE SMOOTH",
"76 179 OFFCURVE",
"114 257 OFFCURVE",
"169 316 CURVE SMOOTH",
"213 364 OFFCURVE",
"260 389 OFFCURVE",
"295 389 CURVE SMOOTH",
"327 389 OFFCURVE",
"341 372 OFFCURVE",
"341 339 CURVE SMOOTH",
"341 244 OFFCURVE",
"206 45 OFFCURVE",
"119 45 CURVE SMOOTH"
);
}
);
};
guideLines = (
{
angle = 90;
position = "{139, 347}";
},
{
angle = 68;
position = "{352, 196}";
}
);
layerId = "A0758A2D-FE5C-4D8D-B7A5-83FAC1CB14BB";
paths = (
{
closed = 1;
nodes = (
"137 -8 OFFCURVE",
"218 59 OFFCURVE",
"266 123 CURVE",
"272 123 LINE",
"251 65 LINE SMOOTH",
"234 15 OFFCURVE",
"255 -7 OFFCURVE",
"281 -7 CURVE SMOOTH",
"320 -7 OFFCURVE",
"379 38 OFFCURVE",
"462 168 CURVE",
"446 178 LINE",
"390 92 OFFCURVE",
"337 43 OFFCURVE",
"314 43 CURVE SMOOTH",
"304 43 OFFCURVE",
"296 56 OFFCURVE",
"308 85 CURVE SMOOTH",
"455 449 LINE",
"445 449 LINE",
"391 410 LINE",
"389 410 LINE",
"378 425 OFFCURVE",
"361 434 OFFCURVE",
"335 434 CURVE SMOOTH",
"279 434 OFFCURVE",
"201 389 OFFCURVE",
"139 322 CURVE SMOOTH",
"65 242 OFFCURVE",
"1 145 OFFCURVE",
"1 70 CURVE SMOOTH",
"1 10 OFFCURVE",
"31 -8 OFFCURVE",
"65 -8 CURVE SMOOTH"
);
},
{
closed = 1;
nodes = (
"93 44 OFFCURVE",
"76 60 OFFCURVE",
"76 102 CURVE SMOOTH",
"76 179 OFFCURVE",
"114 257 OFFCURVE",
"169 316 CURVE SMOOTH",
"213 364 OFFCURVE",
"260 389 OFFCURVE",
"295 389 CURVE SMOOTH",
"327 389 OFFCURVE",
"341 372 OFFCURVE",
"341 339 CURVE SMOOTH",
"341 244 OFFCURVE",
"206 44 OFFCURVE",
"119 44 CURVE SMOOTH"
);
}
);
width = 490;
},
{
anchors = (
{
name = top;
position = "{330, 470}";
}
);
background = {
paths = (
{
closed = 1;
nodes = (
"122 -8 OFFCURVE",
"211 51 OFFCURVE",
"257 126 CURVE",
"262 126 LINE",
"242 76 LINE SMOOTH",
"224 32 OFFCURVE",
"240 -8 OFFCURVE",
"293 -8 CURVE",
"343 -8 OFFCURVE",
"399 48 OFFCURVE",
"479 167 CURVE",
"459 180 LINE",
"427 131 OFFCURVE",
"370 63 OFFCURVE",
"352 63 CURVE SMOOTH",
"337 63 OFFCURVE",
"334 81 OFFCURVE",
"344 105 CURVE SMOOTH",
"544 609 LINE SMOOTH",
"556 640 OFFCURVE",
"571 675 OFFCURVE",
"589 705 CURVE",
"575 712 LINE",
"520 689 OFFCURVE",
"477 685 OFFCURVE",
"407 673 CURVE",
"402 655 LINE",
"427 648 LINE SMOOTH",
"443 644 OFFCURVE",
"454 634 OFFCURVE",
"444 608 CURVE SMOOTH",
"375 438 LINE",
"364 446 OFFCURVE",
"349 451 OFFCURVE",
"331 451 CURVE",
"272 451 OFFCURVE",
"210 405 OFFCURVE",
"145 344 CURVE SMOOTH",
"54 258 OFFCURVE",
"-14 141 OFFCURVE",
"-14 64 CURVE SMOOTH",
"-14 17 OFFCURVE",
"8 -8 OFFCURVE",
"58 -8 CURVE SMOOTH"
);
},
{
closed = 1;
nodes = (
"105 81 OFFCURVE",
"86 100 OFFCURVE",
"86 145 CURVE SMOOTH",
"86 208 OFFCURVE",
"124 277 OFFCURVE",
"173 327 CURVE SMOOTH",
"209 365 OFFCURVE",
"256 389 OFFCURVE",
"289 389 CURVE SMOOTH",
"316 389 OFFCURVE",
"331 377 OFFCURVE",
"331 346 CURVE SMOOTH",
"331 257 OFFCURVE",
"223 81 OFFCURVE",
"137 81 CURVE SMOOTH"
);
}
);
};
layerId = "B3FC2A1D-D4D8-43EF-896F-5E7A9998234E";
paths = (
{
closed = 1;
nodes = (
"122 -8 OFFCURVE",
"211 51 OFFCURVE",
"257 126 CURVE",
"262 126 LINE",
"242 76 LINE SMOOTH",
"224 32 OFFCURVE",
"240 -8 OFFCURVE",
"293 -8 CURVE SMOOTH",
"343 -8 OFFCURVE",
"399 48 OFFCURVE",
"479 167 CURVE",
"459 180 LINE",
"427 131 OFFCURVE",
"370 63 OFFCURVE",
"352 63 CURVE SMOOTH",
"337 63 OFFCURVE",
"334 82 OFFCURVE",
"344 105 CURVE SMOOTH",
"483 456 LINE",
"470 456 LINE",
"400 412 LINE",
"397 412 LINE",
"385 435 OFFCURVE",
"365 451 OFFCURVE",
"331 451 CURVE SMOOTH",
"272 451 OFFCURVE",
"210 405 OFFCURVE",
"145 344 CURVE SMOOTH",
"54 258 OFFCURVE",
"-14 141 OFFCURVE",
"-14 64 CURVE SMOOTH",
"-14 17 OFFCURVE",
"8 -8 OFFCURVE",
"58 -8 CURVE SMOOTH"
);
},
{
closed = 1;
nodes = (
"105 81 OFFCURVE",
"86 100 OFFCURVE",
"86 145 CURVE SMOOTH",
"86 208 OFFCURVE",
"124 277 OFFCURVE",
"173 327 CURVE SMOOTH",
"209 365 OFFCURVE",
"256 389 OFFCURVE",
"289 389 CURVE SMOOTH",
"316 389 OFFCURVE",
"331 377 OFFCURVE",
"331 346 CURVE SMOOTH",
"331 257 OFFCURVE",
"223 81 OFFCURVE",
"137 81 CURVE SMOOTH"
);
}
);
width = 509;
}
);
leftKerningGroup = a;
rightKerningGroup = a;
rightMetricsKey = u;
unicode = 0061;
},
{
color = 4;
glyphname = ae;
lastChange = "2017-01-02 17:26:00 +0000";
layers = (
{
background = {
paths = (
{
closed = 1;
nodes = (
"137 -8 OFFCURVE",
"218 59 OFFCURVE",
"266 123 CURVE",
"272 123 LINE",
"251 65 LINE SMOOTH",
"234 15 OFFCURVE",
"255 -7 OFFCURVE",
"281 -7 CURVE SMOOTH",
"320 -7 OFFCURVE",
"379 38 OFFCURVE",
"462 168 CURVE",
"446 178 LINE",
"390 92 OFFCURVE",
"337 43 OFFCURVE",
"314 43 CURVE SMOOTH",
"304 43 OFFCURVE",
"296 56 OFFCURVE",
"308 85 CURVE SMOOTH",
"455 449 LINE",
"445 449 LINE",
"391 410 LINE",
"389 410 LINE",
"378 425 OFFCURVE",
"361 434 OFFCURVE",
"335 434 CURVE SMOOTH",
"279 434 OFFCURVE",
"201 389 OFFCURVE",
"139 322 CURVE SMOOTH",
"65 242 OFFCURVE",
"1 145 OFFCURVE",
"1 70 CURVE SMOOTH",
"1 10 OFFCURVE",
"31 -8 OFFCURVE",
"65 -8 CURVE SMOOTH"
);
},
{
closed = 1;
nodes = (
"93 44 OFFCURVE",
"76 60 OFFCURVE",
"76 102 CURVE SMOOTH",
"76 179 OFFCURVE",
"114 257 OFFCURVE",
"169 316 CURVE SMOOTH",
"213 364 OFFCURVE",
"260 389 OFFCURVE",
"295 389 CURVE SMOOTH",
"327 389 OFFCURVE",
"341 372 OFFCURVE",
"341 339 CURVE SMOOTH",
"341 244 OFFCURVE",
"206 44 OFFCURVE",
"119 44 CURVE SMOOTH"
);
},
{
closed = 1;
nodes = (
"436 -8 OFFCURVE",
"531 72 OFFCURVE",
"583 166 CURVE",
"564 177 LINE",
"521 98 OFFCURVE",
"453 46 OFFCURVE",
"411 46 CURVE SMOOTH",
"363 46 OFFCURVE",
"355 84 OFFCURVE",
"355 137 CURVE SMOOTH",
"355 312 OFFCURVE",
"477 392 OFFCURVE",
"535 392 CURVE SMOOTH",
"558 392 OFFCURVE",
"570 380 OFFCURVE",
"570 359 CURVE SMOOTH",
"570 315 OFFCURVE",
"503 239 OFFCURVE",
"355 227 CURVE",
"351 204 LINE",
"551 226 OFFCURVE",
"636 312 OFFCURVE",
"636 377 CURVE SMOOTH",
"636 409 OFFCURVE",
"615 434 OFFCURVE",
"572 434 CURVE SMOOTH",
"521 434 OFFCURVE",
"472 411 OFFCURVE",
"429 376 CURVE SMOOTH",
"345 307 OFFCURVE",
"286 190 OFFCURVE",
"286 93 CURVE SMOOTH",
"286 35 OFFCURVE",
"311 -8 OFFCURVE",
"368 -8 CURVE SMOOTH"
);
}
);
};
components = (
{
name = e;
transform = "{1, 0, 0, 1, 262, 0}";
}
);
layerId = "A0758A2D-FE5C-4D8D-B7A5-83FAC1CB14BB";
paths = (
{
closed = 1;
nodes = (
"148 -8 OFFCURVE",
"245 79 OFFCURVE",
"306 179 CURVE",
"344 175 LINE",
"455 449 LINE",
"445 449 LINE",
"391 410 LINE",
"389 410 LINE",
"378 425 OFFCURVE",
"361 434 OFFCURVE",
"335 434 CURVE SMOOTH",
"279 434 OFFCURVE",
"201 389 OFFCURVE",
"139 322 CURVE SMOOTH",
"65 242 OFFCURVE",
"1 145 OFFCURVE",
"1 70 CURVE SMOOTH",
"1 10 OFFCURVE",
"31 -8 OFFCURVE",
"65 -8 CURVE SMOOTH"
);
},
{
closed = 1;
nodes = (
"93 44 OFFCURVE",
"76 60 OFFCURVE",
"76 102 CURVE SMOOTH",
"76 179 OFFCURVE",
"114 257 OFFCURVE",
"169 316 CURVE SMOOTH",
"213 364 OFFCURVE",
"260 389 OFFCURVE",
"295 389 CURVE SMOOTH",
"327 389 OFFCURVE",
"341 372 OFFCURVE",
"341 339 CURVE SMOOTH",
"341 244 OFFCURVE",
"206 44 OFFCURVE",
"119 44 CURVE SMOOTH"
);
}
);
width = 635;
},
{
background = {
paths = (
{
closed = 1;
nodes = (
"122 -8 OFFCURVE",
"211 51 OFFCURVE",
"257 126 CURVE",
"262 126 LINE",
"242 76 LINE SMOOTH",
"224 32 OFFCURVE",
"240 -8 OFFCURVE",
"293 -8 CURVE SMOOTH",
"343 -8 OFFCURVE",
"399 48 OFFCURVE",
"479 167 CURVE",
"459 180 LINE",
"427 131 OFFCURVE",
"370 63 OFFCURVE",
"352 63 CURVE SMOOTH",
"337 63 OFFCURVE",
"334 82 OFFCURVE",
"344 105 CURVE SMOOTH",
"483 456 LINE",
"470 456 LINE",
"400 412 LINE",
"397 412 LINE",
"385 435 OFFCURVE",
"365 451 OFFCURVE",
"331 451 CURVE SMOOTH",
"272 451 OFFCURVE",
"210 405 OFFCURVE",
"145 344 CURVE SMOOTH",
"54 258 OFFCURVE",
"-14 141 OFFCURVE",
"-14 64 CURVE SMOOTH",
"-14 17 OFFCURVE",
"8 -8 OFFCURVE",
"58 -8 CURVE SMOOTH"
);
},
{
closed = 1;
nodes = (
"105 81 OFFCURVE",
"86 100 OFFCURVE",
"86 145 CURVE SMOOTH",
"86 208 OFFCURVE",
"124 277 OFFCURVE",
"173 327 CURVE SMOOTH",
"209 365 OFFCURVE",
"256 389 OFFCURVE",
"289 389 CURVE SMOOTH",
"316 389 OFFCURVE",
"331 377 OFFCURVE",
"331 346 CURVE SMOOTH",
"331 257 OFFCURVE",
"223 81 OFFCURVE",
"137 81 CURVE SMOOTH"
);
}
);
};
components = (
{
name = e;
transform = "{1, 0, 0, 1, 272, 0}";
}
);
layerId = "B3FC2A1D-D4D8-43EF-896F-5E7A9998234E";
paths = (
{
closed = 1;
nodes = (
"156 -8 OFFCURVE",
"252 100 OFFCURVE",
"307 198 CURVE",
"374 189 LINE",
"480 456 LINE",
"467 456 LINE",
"400 412 LINE",
"397 412 LINE",
"385 435 OFFCURVE",
"365 451 OFFCURVE",
"331 451 CURVE SMOOTH",
"272 451 OFFCURVE",
"210 405 OFFCURVE",
"145 344 CURVE SMOOTH",
"54 258 OFFCURVE",
"-14 141 OFFCURVE",
"-14 64 CURVE SMOOTH",
"-14 17 OFFCURVE",
"7 -8 OFFCURVE",
"57 -8 CURVE SMOOTH"
);
},
{
closed = 1;
nodes = (
"105 81 OFFCURVE",
"86 100 OFFCURVE",
"86 145 CURVE SMOOTH",
"86 208 OFFCURVE",
"124 277 OFFCURVE",
"173 327 CURVE SMOOTH",
"209 365 OFFCURVE",
"256 389 OFFCURVE",
"289 389 CURVE SMOOTH",
"316 389 OFFCURVE",
"331 377 OFFCURVE",
"331 346 CURVE SMOOTH",
"331 257 OFFCURVE",
"223 81 OFFCURVE",
"137 81 CURVE SMOOTH"
);
}
);
width = 632;
}
);
leftKerningGroup = a;
leftMetricsKey = a;
rightKerningGroup = e;
rightMetricsKey = e;
unicode = 00E6;
},
{
glyphname = b;
lastChange = "2019-09-13 01:38:39 +0000";
layers = (
{
background = {
paths = (
{
closed = 1;
nodes = (
"229 -11 OFFCURVE",
"448 217 OFFCURVE",
"448 357 CURVE SMOOTH",
"448 416 OFFCURVE",
"418 434 OFFCURVE",
"384 434 CURVE SMOOTH",
"329 434 OFFCURVE",
"267 394 OFFCURVE",
"219 346 CURVE",
"214 346 LINE",
"320 625 LINE SMOOTH",
"330 651 OFFCURVE",
"343 681 OFFCURVE",
"358 706 CURVE",
"346 712 LINE",
"300 693 OFFCURVE",
"250 681 OFFCURVE",
"196 673 CURVE",
"192 662 LINE",
"232 658 LINE SMOOTH",
"261 655 OFFCURVE",
"269 649 OFFCURVE",
"262 631 CURVE SMOOTH",
"61 111 LINE SMOOTH",
"35 45 OFFCURVE",
"56 -11 OFFCURVE",
"114 -11 CURVE SMOOTH"
);
},
{
closed = 1;
nodes = (
"122 38 OFFCURVE",
"108 55 OFFCURVE",
"108 88 CURVE SMOOTH",
"108 183 OFFCURVE",
"243 382 OFFCURVE",
"330 382 CURVE SMOOTH",
"359 382 OFFCURVE",
"375 369 OFFCURVE",
"375 329 CURVE SMOOTH",
"375 252 OFFCURVE",
"335 170 OFFCURVE",
"280 111 CURVE SMOOTH",
"236 63 OFFCURVE",
"189 38 OFFCURVE",
"154 38 CURVE SMOOTH"
);
}
);
};
layerId = "A0758A2D-FE5C-4D8D-B7A5-83FAC1CB14BB";
paths = (
{
closed = 1;
nodes = (
"251 -8 OFFCURVE",
"458 219 OFFCURVE",
"458 357 CURVE SMOOTH",
"458 416 OFFCURVE",
"428 434 OFFCURVE",
"394 434 CURVE SMOOTH",
"333 434 OFFCURVE",
"261 384 OFFCURVE",
"212 328 CURVE",
"207 328 LINE",
"320 625 LINE SMOOTH",
"330 651 OFFCURVE",
"343 681 OFFCURVE",
"358 706 CURVE",
"346 712 LINE",
"300 693 OFFCURVE",
"250 681 OFFCURVE",
"196 673 CURVE",
"192 662 LINE",
"232 658 LINE SMOOTH",
"265 655 OFFCURVE",
"267 644 OFFCURVE",
"262 631 CURVE SMOOTH",
"66 127 LINE SMOOTH",
"58 106 OFFCURVE",
"54 86 OFFCURVE",
"54 69 CURVE SMOOTH",
"54 22 OFFCURVE",
"82 -8 OFFCURVE",
"124 -8 CURVE SMOOTH"
);
},
{
closed = 1;
nodes = (
"135 40 OFFCURVE",
"118 55 OFFCURVE",
"118 91 CURVE SMOOTH",
"118 204 OFFCURVE",
"261 382 OFFCURVE",
"337 382 CURVE SMOOTH",
"363 382 OFFCURVE",
"383 367 OFFCURVE",
"383 325 CURVE SMOOTH",
"383 239 OFFCURVE",
"338 163 OFFCURVE",
"288 111 CURVE SMOOTH",
"246 67 OFFCURVE",
"200 40 OFFCURVE",
"165 40 CURVE SMOOTH"
);
}
);
width = 459;
},
{
background = {
paths = (
{
closed = 1;
nodes = (
"353 451 OFFCURVE",
"264 392 OFFCURVE",
"218 317 CURVE",
"213 317 LINE",
"233 367 LINE SMOOTH",
"251 411 OFFCURVE",
"235 451 OFFCURVE",
"182 451 CURVE SMOOTH",
"132 451 OFFCURVE",
"76 395 OFFCURVE",
"-4 276 CURVE",
"16 263 LINE",
"48 312 OFFCURVE",
"105 380 OFFCURVE",
"123 380 CURVE SMOOTH",
"138 380 OFFCURVE",
"141 361 OFFCURVE",
"131 338 CURVE SMOOTH",
"-8 -13 LINE",
"5 -13 LINE",
"75 31 LINE",
"78 31 LINE",
"90 8 OFFCURVE",
"110 -8 OFFCURVE",
"144 -8 CURVE SMOOTH",
"203 -8 OFFCURVE",
"265 38 OFFCURVE",
"330 99 CURVE SMOOTH",
"421 185 OFFCURVE",
"489 302 OFFCURVE",
"489 379 CURVE SMOOTH",
"489 426 OFFCURVE",
"467 451 OFFCURVE",
"417 451 CURVE SMOOTH"
);
},
{
closed = 1;
nodes = (
"372 359 OFFCURVE",
"389 340 OFFCURVE",
"389 298 CURVE SMOOTH",
"389 235 OFFCURVE",
"351 166 OFFCURVE",
"302 116 CURVE SMOOTH",
"266 78 OFFCURVE",
"219 54 OFFCURVE",
"186 54 CURVE SMOOTH",
"159 54 OFFCURVE",
"144 66 OFFCURVE",
"144 97 CURVE SMOOTH",
"144 186 OFFCURVE",
"254 359 OFFCURVE",
"340 359 CURVE SMOOTH"
);
}
);
};
layerId = "B3FC2A1D-D4D8-43EF-896F-5E7A9998234E";
paths = (
{
closed = 1;
nodes = (
"271 -8 OFFCURVE",
"489 243 OFFCURVE",
"489 376 CURVE SMOOTH",
"489 435 OFFCURVE",
"458 451 OFFCURVE",
"420 451 CURVE SMOOTH",
"351 451 OFFCURVE",
"276 398 OFFCURVE",
"215 316 CURVE",
"213 316 LINE",
"332 609 LINE SMOOTH",
"344 639 OFFCURVE",
"359 675 OFFCURVE",
"377 705 CURVE",
"363 712 LINE",
"308 689 OFFCURVE",
"263 685 OFFCURVE",
"193 673 CURVE",
"188 655 LINE",
"213 648 LINE SMOOTH",
"229 644 OFFCURVE",
"240 633 OFFCURVE",
"230 608 CURVE SMOOTH",
"55 161 LINE SMOOTH",
"43 130 OFFCURVE",
"37 107 OFFCURVE",
"37 84 CURVE SMOOTH",
"37 28 OFFCURVE",
"76 -8 OFFCURVE",
"137 -8 CURVE SMOOTH"
);
},
{
closed = 1;
nodes = (
"159 54 OFFCURVE",
"144 66 OFFCURVE",
"144 97 CURVE SMOOTH",
"144 186 OFFCURVE",
"252 360 OFFCURVE",
"338 360 CURVE SMOOTH",
"376 360 OFFCURVE",
"390 335 OFFCURVE",
"390 300 CURVE SMOOTH",
"390 246 OFFCURVE",
"352 166 OFFCURVE",
"302 116 CURVE SMOOTH",
"266 78 OFFCURVE",
"219 54 OFFCURVE",
"186 54 CURVE SMOOTH"
);
}
);
width = 475;
}
);
leftKerningGroup = b;
leftMetricsKey = h;
rightKerningGroup = b;
rightMetricsKey = "=|a";
unicode = 0062;
},
{
glyphname = c;
lastChange = "2016-01-04 10:23:45 +0000";
layers = (
{
anchors = (
{
name = top;
position = "{327, 470}";
}
);
background = {
paths = (
{
closed = 1;
nodes = (
"207 -8 OFFCURVE",
"289 80 OFFCURVE",
"339 166 CURVE",
"320 177 LINE",
"273 94 OFFCURVE",
"220 43 OFFCURVE",
"174 43 CURVE SMOOTH",
"141 43 OFFCURVE",
"114 68 OFFCURVE",
"114 144 CURVE SMOOTH",
"114 308 OFFCURVE",
"235 394 OFFCURVE",
"301 394 CURVE SMOOTH",
"320 394 OFFCURVE",
"326 389 OFFCURVE",
"326 375 CURVE SMOOTH",
"326 367 OFFCURVE",
"322 358 OFFCURVE",
"322 351 CURVE SMOOTH",
"322 333 OFFCURVE",
"337 322 OFFCURVE",
"362 322 CURVE SMOOTH",
"383 322 OFFCURVE",
"398 338 OFFCURVE",
"398 364 CURVE SMOOTH",
"398 411 OFFCURVE",
"365 434 OFFCURVE",
"322 434 CURVE SMOOTH",
"225 434 OFFCURVE",
"51 283 OFFCURVE",
"51 87 CURVE SMOOTH",
"51 26 OFFCURVE",
"85 -8 OFFCURVE",
"131 -8 CURVE SMOOTH"
);
},
{
closed = 1;
nodes = (
"182 -34 OFFCURVE",
"273 55 OFFCURVE",
"325 145 CURVE",
"307 157 LINE",
"261 89 OFFCURVE",
"211 56 OFFCURVE",
"178 56 CURVE SMOOTH",
"146 56 OFFCURVE",
"123 71 OFFCURVE",
"123 131 CURVE SMOOTH",
"123 256 OFFCURVE",
"192 372 OFFCURVE",
"269 372 CURVE SMOOTH",
"278 372 OFFCURVE",
"288 368 OFFCURVE",
"288 356 CURVE SMOOTH",
"288 347 OFFCURVE",
"284 337 OFFCURVE",
"284 329 CURVE SMOOTH",
"284 307 OFFCURVE",
"300 291 OFFCURVE",
"334 291 CURVE SMOOTH",
"362 291 OFFCURVE",
"382 319 OFFCURVE",
"382 354 CURVE SMOOTH",
"382 392 OFFCURVE",
"360 425 OFFCURVE",
"306 425 CURVE SMOOTH",
"271 425 OFFCURVE",
"228 405 OFFCURVE",
"184 367 CURVE SMOOTH",
"108 300 OFFCURVE",
"20 202 OFFCURVE",
"20 65 CURVE SMOOTH",
"20 1 OFFCURVE",
"55 -34 OFFCURVE",
"103 -34 CURVE SMOOTH"
);
}
);
};
guideLines = (
{
angle = 90;
position = "{183, 399}";
}
);
layerId = "A0758A2D-FE5C-4D8D-B7A5-83FAC1CB14BB";
paths = (
{
closed = 1;
nodes = (
"179 -8 OFFCURVE",
"269 80 OFFCURVE",
"319 166 CURVE",
"301 177 LINE",
"254 94 OFFCURVE",
"190 46 OFFCURVE",
"144 46 CURVE SMOOTH",
"111 46 OFFCURVE",
"90 68 OFFCURVE",
"90 144 CURVE SMOOTH",
"90 288 OFFCURVE",
"215 394 OFFCURVE",
"281 394 CURVE SMOOTH",
"305 394 OFFCURVE",
"308 378 OFFCURVE",
"310 362 CURVE SMOOTH",
"312 345 OFFCURVE",
"315 329 OFFCURVE",
"345 329 CURVE SMOOTH",
"366 329 OFFCURVE",
"378 343 OFFCURVE",
"378 371 CURVE SMOOTH",
"378 405 OFFCURVE",
"352 434 OFFCURVE",
"302 434 CURVE SMOOTH",
"263 434 OFFCURVE",
"210 410 OFFCURVE",
"163 367 CURVE SMOOTH",
"95 304 OFFCURVE",
"22 204 OFFCURVE",
"22 87 CURVE SMOOTH",
"22 26 OFFCURVE",
"57 -8 OFFCURVE",
"103 -8 CURVE SMOOTH"
);
}
);
width = 368;
},
{
anchors = (
{
name = top;
position = "{311, 470}";
}
);
background = {
anchors = (
{
name = top;
position = "{311, 470}";
}
);
paths = (
{
closed = 1;
nodes = (
"194 -8 OFFCURVE",
"274 81 OFFCURVE",
"326 171 CURVE",
"306 183 LINE",
"257 113 OFFCURVE",
"214 81 OFFCURVE",
"172 81 CURVE SMOOTH",
"140 81 OFFCURVE",
"110 95 OFFCURVE",
"110 158 CURVE SMOOTH",
"110 290 OFFCURVE",
"203 393 OFFCURVE",
"272 393 CURVE SMOOTH",
"293 393 OFFCURVE",
"296 381 OFFCURVE",
"299 363 CURVE SMOOTH",
"303 342 OFFCURVE",
"307 322 OFFCURVE",
"339 322 CURVE SMOOTH",
"371 322 OFFCURVE",
"385 344 OFFCURVE",
"385 375 CURVE SMOOTH",
"385 415 OFFCURVE",
"360 451 OFFCURVE",
"308 451 CURVE SMOOTH",
"266 451 OFFCURVE",
"213 422 OFFCURVE",
"163 377 CURVE SMOOTH",
"82 304 OFFCURVE",
"10 197 OFFCURVE",
"10 92 CURVE SMOOTH",
"10 25 OFFCURVE",
"50 -8 OFFCURVE",
"104 -8 CURVE SMOOTH"
);
}
);
};
layerId = "B3FC2A1D-D4D8-43EF-896F-5E7A9998234E";
paths = (
{
closed = 1;
nodes = (
"194 -8 OFFCURVE",
"274 81 OFFCURVE",
"326 171 CURVE",
"306 183 LINE",
"257 113 OFFCURVE",
"214 81 OFFCURVE",
"172 81 CURVE SMOOTH",
"140 81 OFFCURVE",
"110 95 OFFCURVE",
"110 158 CURVE SMOOTH",
"110 290 OFFCURVE",
"203 393 OFFCURVE",
"272 393 CURVE SMOOTH",
"293 393 OFFCURVE",
"296 381 OFFCURVE",
"299 363 CURVE SMOOTH",
"303 342 OFFCURVE",
"307 322 OFFCURVE",
"339 322 CURVE SMOOTH",
"371 322 OFFCURVE",
"385 344 OFFCURVE",
"385 375 CURVE SMOOTH",
"385 415 OFFCURVE",
"358 451 OFFCURVE",
"305 451 CURVE SMOOTH",
"263 451 OFFCURVE",
"213 422 OFFCURVE",
"163 377 CURVE SMOOTH",
"82 304 OFFCURVE",
"10 197 OFFCURVE",
"10 92 CURVE SMOOTH",
"10 25 OFFCURVE",
"50 -8 OFFCURVE",
"104 -8 CURVE SMOOTH"
);
}
);
width = 366;
}
);
leftKerningGroup = c;
leftMetricsKey = o;
rightKerningGroup = c;
unicode = 0063;
},
{
glyphname = d;
lastChange = "2015-08-12 21:05:18 +0000";
layers = (
{
background = {
paths = (
{
closed = 1;
nodes = (
"134 -7 OFFCURVE",
"217 59 OFFCURVE",
"265 123 CURVE",
"271 123 LINE",
"250 65 LINE SMOOTH",
"232 15 OFFCURVE",
"254 -7 OFFCURVE",
"282 -7 CURVE SMOOTH",
"322 -7 OFFCURVE",
"382 38 OFFCURVE",
"466 168 CURVE",
"450 178 LINE",
"394 92 OFFCURVE",
"341 43 OFFCURVE",
"318 43 CURVE SMOOTH",
"308 43 OFFCURVE",
"299 56 OFFCURVE",
"311 85 CURVE",
"524 625 LINE SMOOTH",
"534 651 OFFCURVE",
"547 681 OFFCURVE",
"562 706 CURVE",
"550 712 LINE",
"504 693 OFFCURVE",
"454 681 OFFCURVE",
"400 673 CURVE",
"396 662 LINE",
"436 658 LINE SMOOTH",
"465 655 OFFCURVE",
"473 649 OFFCURVE",
"466 631 CURVE SMOOTH",
"380 416 LINE",
"369 430 OFFCURVE",
"351 438 OFFCURVE",
"334 438 CURVE SMOOTH",
"219 438 OFFCURVE",
"0 210 OFFCURVE",
"0 70 CURVE SMOOTH",
"0 11 OFFCURVE",
"30 -7 OFFCURVE",
"64 -7 CURVE SMOOTH"
);
},
{
closed = 1;
nodes = (
"92 45 OFFCURVE",
"75 61 OFFCURVE",
"75 102 CURVE SMOOTH",
"75 179 OFFCURVE",
"113 257 OFFCURVE",
"168 316 CURVE SMOOTH",
"212 364 OFFCURVE",
"259 389 OFFCURVE",
"294 389 CURVE SMOOTH",
"326 389 OFFCURVE",
"340 372 OFFCURVE",
"340 339 CURVE SMOOTH",
"340 244 OFFCURVE",
"205 45 OFFCURVE",
"118 45 CURVE SMOOTH"
);
}
);
};
layerId = "A0758A2D-FE5C-4D8D-B7A5-83FAC1CB14BB";
paths = (
{
closed = 1;
nodes = (
"137 -8 OFFCURVE",
"218 59 OFFCURVE",
"266 123 CURVE",
"272 123 LINE",
"251 65 LINE SMOOTH",
"234 15 OFFCURVE",
"255 -7 OFFCURVE",
"281 -7 CURVE SMOOTH",
"320 -7 OFFCURVE",
"379 38 OFFCURVE",
"462 168 CURVE",
"446 178 LINE",
"390 92 OFFCURVE",
"337 43 OFFCURVE",
"314 43 CURVE SMOOTH",
"304 43 OFFCURVE",
"296 56 OFFCURVE",
"308 85 CURVE SMOOTH",
"524 625 LINE SMOOTH",
"534 651 OFFCURVE",
"547 681 OFFCURVE",
"562 706 CURVE",
"550 712 LINE",
"504 693 OFFCURVE",
"454 681 OFFCURVE",
"400 673 CURVE",
"396 662 LINE",
"436 658 LINE SMOOTH",
"465 655 OFFCURVE",
"473 649 OFFCURVE",
"466 631 CURVE SMOOTH",
"381 419 LINE",
"370 428 OFFCURVE",
"356 434 OFFCURVE",
"335 434 CURVE",
"279 434 OFFCURVE",
"201 389 OFFCURVE",
"139 322 CURVE SMOOTH",
"65 242 OFFCURVE",
"1 145 OFFCURVE",
"1 70 CURVE SMOOTH",
"1 10 OFFCURVE",
"31 -8 OFFCURVE",
"65 -8 CURVE"
);
},
{
closed = 1;
nodes = (
"93 44 OFFCURVE",
"76 60 OFFCURVE",
"76 102 CURVE SMOOTH",
"76 179 OFFCURVE",
"114 257 OFFCURVE",
"169 316 CURVE SMOOTH",
"213 364 OFFCURVE",
"260 389 OFFCURVE",
"295 389 CURVE SMOOTH",
"327 389 OFFCURVE",
"341 372 OFFCURVE",
"341 339 CURVE SMOOTH",
"341 244 OFFCURVE",
"206 44 OFFCURVE",
"119 44 CURVE SMOOTH"
);
}
);
width = 490;
},
{
background = {
paths = (
{
closed = 1;
nodes = (
"122 -8 OFFCURVE",
"211 51 OFFCURVE",
"257 126 CURVE",
"262 126 LINE",
"242 76 LINE SMOOTH",
"224 32 OFFCURVE",
"240 -8 OFFCURVE",
"293 -8 CURVE SMOOTH",
"343 -8 OFFCURVE",
"399 48 OFFCURVE",
"479 167 CURVE",
"459 180 LINE",
"427 131 OFFCURVE",
"370 63 OFFCURVE",
"352 63 CURVE SMOOTH",
"337 63 OFFCURVE",
"334 82 OFFCURVE",
"344 105 CURVE SMOOTH",
"483 456 LINE",
"470 456 LINE",
"400 412 LINE",
"397 412 LINE",
"385 435 OFFCURVE",
"365 451 OFFCURVE",
"331 451 CURVE SMOOTH",
"272 451 OFFCURVE",
"210 405 OFFCURVE",
"145 344 CURVE SMOOTH",
"54 258 OFFCURVE",
"-14 141 OFFCURVE",
"-14 64 CURVE SMOOTH",
"-14 17 OFFCURVE",
"8 -8 OFFCURVE",
"58 -8 CURVE SMOOTH"
);
},
{
closed = 1;
nodes = (
"103 84 OFFCURVE",
"86 103 OFFCURVE",
"86 145 CURVE SMOOTH",
"86 208 OFFCURVE",
"124 277 OFFCURVE",
"173 327 CURVE SMOOTH",
"209 365 OFFCURVE",
"256 389 OFFCURVE",
"289 389 CURVE SMOOTH",
"316 389 OFFCURVE",
"331 377 OFFCURVE",
"331 346 CURVE SMOOTH",
"331 257 OFFCURVE",
"221 84 OFFCURVE",
"135 84 CURVE SMOOTH"
);
}
);
};
layerId = "B3FC2A1D-D4D8-43EF-896F-5E7A9998234E";
paths = (
{
closed = 1;
nodes = (
"122 -8 OFFCURVE",
"211 51 OFFCURVE",
"257 126 CURVE",
"262 126 LINE",
"242 76 LINE SMOOTH",
"224 32 OFFCURVE",
"240 -8 OFFCURVE",
"293 -8 CURVE",
"343 -8 OFFCURVE",
"399 48 OFFCURVE",
"479 167 CURVE",
"459 180 LINE",
"427 131 OFFCURVE",
"370 63 OFFCURVE",
"352 63 CURVE SMOOTH",
"337 63 OFFCURVE",
"334 81 OFFCURVE",
"344 105 CURVE SMOOTH",
"544 609 LINE SMOOTH",
"556 640 OFFCURVE",
"571 675 OFFCURVE",
"589 705 CURVE",
"575 712 LINE",
"520 689 OFFCURVE",
"477 685 OFFCURVE",
"407 673 CURVE",
"402 655 LINE",
"427 648 LINE SMOOTH",
"443 644 OFFCURVE",
"454 634 OFFCURVE",
"444 608 CURVE SMOOTH",
"375 438 LINE",
"364 446 OFFCURVE",
"349 451 OFFCURVE",
"331 451 CURVE",
"272 451 OFFCURVE",
"210 405 OFFCURVE",
"145 344 CURVE SMOOTH",
"54 258 OFFCURVE",
"-14 141 OFFCURVE",
"-14 64 CURVE SMOOTH",
"-14 17 OFFCURVE",
"8 -8 OFFCURVE",
"58 -8 CURVE SMOOTH"
);
},
{
closed = 1;
nodes = (
"105 81 OFFCURVE",
"86 100 OFFCURVE",
"86 145 CURVE SMOOTH",
"86 208 OFFCURVE",
"124 277 OFFCURVE",
"173 327 CURVE SMOOTH",
"209 365 OFFCURVE",
"256 389 OFFCURVE",
"289 389 CURVE SMOOTH",
"316 389 OFFCURVE",
"331 377 OFFCURVE",
"331 346 CURVE SMOOTH",
"331 257 OFFCURVE",
"223 81 OFFCURVE",
"137 81 CURVE SMOOTH"
);
}
);
width = 509;
}
);
leftKerningGroup = a;
leftMetricsKey = a;
rightKerningGroup = a;
rightMetricsKey = a;
unicode = 0064;
},
{
color = 4;
glyphname = eth;
lastChange = "2015-09-02 17:49:20 +0000";
layers = (
{
components = (
{
name = partialdiff;
transform = "{1, 0, 0, 1, -10, 0}";
}
);
layerId = "A0758A2D-FE5C-4D8D-B7A5-83FAC1CB14BB";
paths = (
{
closed = 1;
nodes = (
"642 592 LINE",
"633 616 LINE",
"315 497 LINE",
"323 472 LINE"
);
}
);
width = 494;
},
{
components = (
{
name = partialdiff;
}
);
layerId = "B3FC2A1D-D4D8-43EF-896F-5E7A9998234E";
paths = (
{
closed = 1;
nodes = (
"723 593 LINE",
"710 626 LINE",
"372 499 LINE",
"384 465 LINE"
);
}
);
width = 578;
}
);
leftKerningGroup = d;
unicode = 00F0;
},
{
glyphname = dcaron;
lastChange = "2015-12-06 18:59:19 +0000";
layers = (
{
background = {
paths = (
{
closed = 1;
nodes = (
"87 -8 OFFCURVE",
"104 -2 OFFCURVE",
"115 3 CURVE",
"228 50 LINE",
"232 50 LINE",
"217 -4 LINE",
"224 -8 LINE",
"269 -3 OFFCURVE",
"313 3 OFFCURVE",
"357 5 CURVE",
"364 24 LINE",
"308 21 OFFCURVE",
"285 34 OFFCURVE",
"300 73 CURVE SMOOTH",
"514 602 LINE SMOOTH",
"533 648 OFFCURVE",
"545 676 OFFCURVE",
"568 706 CURVE",
"561 712 LINE",
"508 689 OFFCURVE",
"447 678 OFFCURVE",
"395 668 CURVE",
"391 658 LINE",
"441 646 LINE SMOOTH",
"457 642 OFFCURVE",
"459 632 OFFCURVE",
"449 606 CURVE SMOOTH",
"366 401 LINE",
"348 419 OFFCURVE",
"307 434 OFFCURVE",
"256 434 CURVE SMOOTH",
"111 434 OFFCURVE",
"-4 317 OFFCURVE",
"-50 204 CURVE SMOOTH",
"-95 93 OFFCURVE",
"-69 -8 OFFCURVE",
"74 -8 CURVE SMOOTH"
);
},
{
closed = 1;
nodes = (
"2 39 OFFCURVE",
"-12 124 OFFCURVE",
"33 236 CURVE SMOOTH",
"69 326 OFFCURVE",
"147 408 OFFCURVE",
"244 408 CURVE SMOOTH",
"311 408 OFFCURVE",
"346 348 OFFCURVE",
"316 273 CURVE SMOOTH",
"259 132 LINE SMOOTH",
"240 84 OFFCURVE",
"177 39 OFFCURVE",
"112 39 CURVE SMOOTH"
);
},
{
closed = 1;
nodes = (
"710 643 LINE SMOOTH",
"715 649 OFFCURVE",
"722 656 OFFCURVE",
"725 665 CURVE SMOOTH",
"732 682 OFFCURVE",
"727 699 OFFCURVE",
"704 699 CURVE SMOOTH",
"689 699 OFFCURVE",
"671 688 OFFCURVE",
"662 673 CURVE SMOOTH",
"537 479 LINE",
"559 473 LINE"
);
}
);
};
components = (
{
alignment = -1;
name = d;
},
{
name = caroncomb.alt;
transform = "{1, 0, 0, 1, 238, 0}";
}
);
layerId = "A0758A2D-FE5C-4D8D-B7A5-83FAC1CB14BB";
width = 554;
},
{
background = {
paths = (
{
closed = 1;
nodes = (
"727 641 LINE SMOOTH",
"737 652 OFFCURVE",
"743 661 OFFCURVE",
"747 670 CURVE SMOOTH",
"757 695 OFFCURVE",
"747 713 OFFCURVE",
"723 713 CURVE SMOOTH",
"698 713 OFFCURVE",
"674 699 OFFCURVE",
"654 667 CURVE SMOOTH",
"548 479 LINE",
"570 473 LINE"
);
},
{
closed = 1;
nodes = (
"357 0 LINE",
"364 17 LINE",
"337 29 LINE SMOOTH",
"327 33 OFFCURVE",
"315 43 OFFCURVE",
"323 62 CURVE SMOOTH",
"548 618 LINE SMOOTH",
"562 654 OFFCURVE",
"581 687 OFFCURVE",
"596 702 CURVE",
"589 710 LINE",
"522 689 OFFCURVE",
"474 682 OFFCURVE",
"393 672 CURVE",
"386 654 LINE",
"415 646 LINE SMOOTH",
"430 642 OFFCURVE",
"438 636 OFFCURVE",
"427 608 CURVE SMOOTH",
"209 69 LINE SMOOTH",
"201 50 OFFCURVE",
"187 36 OFFCURVE",
"166 29 CURVE SMOOTH",
"129 17 LINE",
"122 0 LINE"
);
}
);
};
components = (
{
name = d;
},
{
alignment = -1;
name = caroncomb.alt;
transform = "{1, 0, 0, 1, 247, 0}";
}
);
layerId = "B3FC2A1D-D4D8-43EF-896F-5E7A9998234E";
width = 509;
}
);
leftKerningGroup = a;
leftMetricsKey = d;
rightKerningGroup = dcaron;
unicode = 010F;
},
{
color = 4;
glyphname = dcroat;
lastChange = "2015-08-27 11:55:36 +0000";
layers = (
{
layerId = "A0758A2D-FE5C-4D8D-B7A5-83FAC1CB14BB";
paths = (
{
closed = 1;
nodes = (
"136 -8 OFFCURVE",
"217 59 OFFCURVE",
"265 123 CURVE",
"271 123 LINE",
"250 65 LINE SMOOTH",
"233 15 OFFCURVE",
"254 -7 OFFCURVE",
"280 -7 CURVE SMOOTH",
"319 -7 OFFCURVE",
"378 38 OFFCURVE",
"461 168 CURVE",
"445 178 LINE",
"389 92 OFFCURVE",
"336 43 OFFCURVE",
"313 43 CURVE SMOOTH",
"303 43 OFFCURVE",
"295 56 OFFCURVE",
"307 85 CURVE SMOOTH",
"523 625 LINE SMOOTH",
"533 651 OFFCURVE",
"546 681 OFFCURVE",
"561 706 CURVE",
"549 712 LINE",
"503 693 OFFCURVE",
"453 681 OFFCURVE",
"399 673 CURVE",
"395 662 LINE",
"435 658 LINE SMOOTH",
"464 655 OFFCURVE",
"472 649 OFFCURVE",
"465 631 CURVE SMOOTH",
"376 409 LINE",
"365 418 OFFCURVE",
"351 424 OFFCURVE",
"330 424 CURVE SMOOTH",
"275 424 OFFCURVE",
"198 380 OFFCURVE",
"136 315 CURVE SMOOTH",
"63 237 OFFCURVE",
"0 143 OFFCURVE",
"0 70 CURVE SMOOTH",
"0 10 OFFCURVE",
"30 -8 OFFCURVE",
"64 -8 CURVE SMOOTH"
);
},
{
closed = 1;
nodes = (
"92 44 OFFCURVE",
"75 61 OFFCURVE",
"75 102 CURVE SMOOTH",
"75 176 OFFCURVE",
"113 252 OFFCURVE",
"167 309 CURVE SMOOTH",
"211 355 OFFCURVE",
"257 379 OFFCURVE",
"292 379 CURVE SMOOTH",
"324 379 OFFCURVE",
"338 362 OFFCURVE",
"338 330 CURVE SMOOTH",
"338 238 OFFCURVE",
"204 44 OFFCURVE",
"118 44 CURVE SMOOTH"
);
},
{
closed = 1;
nodes = (
"557 536 LINE",
"569 566 LINE",
"243 566 LINE",
"231 536 LINE"
);
}
);
width = 489;
},
{
layerId = "B3FC2A1D-D4D8-43EF-896F-5E7A9998234E";
paths = (
{
closed = 1;
nodes = (
"121 -8 OFFCURVE",
"210 51 OFFCURVE",
"256 126 CURVE",
"261 126 LINE",
"241 76 LINE SMOOTH",
"223 32 OFFCURVE",
"239 -8 OFFCURVE",
"292 -8 CURVE SMOOTH",
"342 -8 OFFCURVE",
"398 48 OFFCURVE",
"478 167 CURVE",
"458 180 LINE",
"426 131 OFFCURVE",
"369 63 OFFCURVE",
"351 63 CURVE SMOOTH",
"336 63 OFFCURVE",
"333 81 OFFCURVE",
"343 105 CURVE SMOOTH",
"543 609 LINE SMOOTH",
"555 640 OFFCURVE",
"570 675 OFFCURVE",
"588 705 CURVE",
"574 712 LINE",
"519 689 OFFCURVE",
"476 685 OFFCURVE",
"406 673 CURVE",
"401 655 LINE",
"426 648 LINE SMOOTH",
"442 644 OFFCURVE",
"453 634 OFFCURVE",
"443 608 CURVE SMOOTH",
"370 429 LINE",
"359 437 OFFCURVE",
"344 442 OFFCURVE",
"326 442 CURVE SMOOTH",
"268 442 OFFCURVE",
"206 397 OFFCURVE",
"142 337 CURVE SMOOTH",
"52 253 OFFCURVE",
"-15 139 OFFCURVE",
"-15 64 CURVE SMOOTH",
"-15 18 OFFCURVE",
"7 -8 OFFCURVE",
"57 -8 CURVE SMOOTH"
);
},
{
closed = 1;
nodes = (
"105 81 OFFCURVE",
"85 99 OFFCURVE",
"85 143 CURVE SMOOTH",
"85 204 OFFCURVE",
"123 271 OFFCURVE",
"171 319 CURVE SMOOTH",
"207 356 OFFCURVE",
"253 379 OFFCURVE",
"286 379 CURVE SMOOTH",
"312 379 OFFCURVE",
"327 367 OFFCURVE",
"327 337 CURVE SMOOTH",
"327 251 OFFCURVE",
"221 81 OFFCURVE",
"136 81 CURVE SMOOTH"
);
},
{
closed = 1;
nodes = (
"570 526 LINE",
"589 573 LINE",
"251 573 LINE",
"232 526 LINE"
);
}
);
width = 508;
}
);
leftKerningGroup = a;
leftMetricsKey = d;
rightMetricsKey = d;
unicode = 0111;
},
{
glyphname = e;
lastChange = "2015-09-02 17:34:26 +0000";
layers = (
{
anchors = (
{
name = top;
position = "{302, 470}";
}
);
background = {
paths = (
{
closed = 1;
nodes = (
"181 -8 OFFCURVE",
"271 80 OFFCURVE",
"321 166 CURVE",
"303 177 LINE",
"256 94 OFFCURVE",
"192 46 OFFCURVE",
"146 46 CURVE SMOOTH",
"113 46 OFFCURVE",
"92 68 OFFCURVE",
"92 144 CURVE SMOOTH",
"92 288 OFFCURVE",
"217 394 OFFCURVE",
"283 394 CURVE SMOOTH",
"302 394 OFFCURVE",
"308 389 OFFCURVE",
"308 375 CURVE SMOOTH",
"308 367 OFFCURVE",
"304 358 OFFCURVE",
"304 351 CURVE SMOOTH",
"304 333 OFFCURVE",
"319 322 OFFCURVE",
"344 322 CURVE SMOOTH",
"365 322 OFFCURVE",
"380 338 OFFCURVE",
"380 364 CURVE SMOOTH",
"380 411 OFFCURVE",
"347 434 OFFCURVE",
"304 434 CURVE SMOOTH",
"265 434 OFFCURVE",
"213 409 OFFCURVE",
"165 367 CURVE SMOOTH",
"95 305 OFFCURVE",
"24 204 OFFCURVE",
"24 87 CURVE SMOOTH",
"24 26 OFFCURVE",
"59 -8 OFFCURVE",
"105 -8 CURVE SMOOTH"
);
},
{
closed = 1;
nodes = (
"175 -8 OFFCURVE",
"270 72 OFFCURVE",
"322 166 CURVE",
"303 177 LINE",
"260 98 OFFCURVE",
"192 46 OFFCURVE",
"150 46 CURVE SMOOTH",
"102 46 OFFCURVE",
"94 84 OFFCURVE",
"94 137 CURVE SMOOTH",
"94 312 OFFCURVE",
"205 392 OFFCURVE",
"263 392 CURVE SMOOTH",
"286 392 OFFCURVE",
"298 380 OFFCURVE",
"298 359 CURVE SMOOTH",
"298 315 OFFCURVE",
"242 239 OFFCURVE",
"94 227 CURVE",
"90 204 LINE",
"290 226 OFFCURVE",
"364 312 OFFCURVE",
"364 377 CURVE SMOOTH",
"364 409 OFFCURVE",
"343 434 OFFCURVE",
"300 434 CURVE SMOOTH",
"254 434 OFFCURVE",
"210 415 OFFCURVE",
"172 384 CURVE SMOOTH",
"85 313 OFFCURVE",
"25 184 OFFCURVE",
"25 93 CURVE SMOOTH",
"25 35 OFFCURVE",
"50 -8 OFFCURVE",
"107 -8 CURVE SMOOTH"
);
}
);
};
guideLines = (
{
position = "{95, 376}";
}
);
layerId = "A0758A2D-FE5C-4D8D-B7A5-83FAC1CB14BB";
paths = (
{
closed = 1;
nodes = (
"175 -8 OFFCURVE",
"270 72 OFFCURVE",
"322 166 CURVE",
"303 177 LINE",
"260 98 OFFCURVE",
"192 46 OFFCURVE",
"150 46 CURVE SMOOTH",
"102 46 OFFCURVE",
"94 84 OFFCURVE",
"94 137 CURVE SMOOTH",
"94 312 OFFCURVE",
"216 392 OFFCURVE",
"274 392 CURVE SMOOTH",
"297 392 OFFCURVE",
"309 380 OFFCURVE",
"309 359 CURVE SMOOTH",
"309 315 OFFCURVE",
"242 239 OFFCURVE",
"94 227 CURVE",
"90 204 LINE",
"290 226 OFFCURVE",
"375 312 OFFCURVE",
"375 377 CURVE SMOOTH",
"375 409 OFFCURVE",
"354 434 OFFCURVE",
"311 434 CURVE SMOOTH",
"260 434 OFFCURVE",
"211 411 OFFCURVE",
"168 376 CURVE SMOOTH",
"84 307 OFFCURVE",
"25 190 OFFCURVE",
"25 93 CURVE SMOOTH",
"25 35 OFFCURVE",
"50 -8 OFFCURVE",
"107 -8 CURVE SMOOTH"
);
}
);
width = 373;
},
{
associatedMasterId = "A0758A2D-FE5C-4D8D-B7A5-83FAC1CB14BB";
background = {
paths = (
{
closed = 1;
nodes = (
"364 415 OFFCURVE",
"337 434 OFFCURVE",
"298 434 CURVE SMOOTH",
"199 434 OFFCURVE",
"25 269 OFFCURVE",
"25 84 CURVE SMOOTH",
"25 35 OFFCURVE",
"53 -8 OFFCURVE",
"105 -8 CURVE SMOOTH",
"184 -8 OFFCURVE",
"261 78 OFFCURVE",
"316 177 CURVE",
"289 177 LINE",
"262 129 OFFCURVE",
"214 43 OFFCURVE",
"160 43 CURVE SMOOTH",
"113 43 OFFCURVE",
"97 98 OFFCURVE",
"97 147 CURVE SMOOTH",
"97 171 OFFCURVE",
"101 193 OFFCURVE",
"106 208 CURVE",
"157 211 OFFCURVE",
"364 254 OFFCURVE",
"364 375 CURVE SMOOTH"
);
},
{
closed = 1;
nodes = (
"277 385 OFFCURVE",
"283 364 OFFCURVE",
"283 350 CURVE SMOOTH",
"283 295 OFFCURVE",
"201 243 OFFCURVE",
"116 238 CURVE",
"123 275 OFFCURVE",
"183 385 OFFCURVE",
"246 385 CURVE SMOOTH"
);
},
{
closed = 1;
nodes = (
"288 226 OFFCURVE",
"363 315 OFFCURVE",
"363 380 CURVE SMOOTH",
"363 414 OFFCURVE",
"343 434 OFFCURVE",
"298 434 CURVE SMOOTH",
"199 434 OFFCURVE",
"25 278 OFFCURVE",
"25 90 CURVE SMOOTH",
"25 38 OFFCURVE",
"50 -8 OFFCURVE",
"105 -8 CURVE SMOOTH",
"173 -8 OFFCURVE",
"260 72 OFFCURVE",
"312 166 CURVE",
"293 177 LINE",
"250 98 OFFCURVE",
"193 43 OFFCURVE",
"151 43 CURVE SMOOTH",
"116 43 OFFCURVE",
"92 72 OFFCURVE",
"92 147 CURVE SMOOTH",
"92 291 OFFCURVE",
"197 385 OFFCURVE",
"250 385 CURVE SMOOTH",
"272 385 OFFCURVE",
"283 373 OFFCURVE",
"283 356 CURVE SMOOTH",
"283 312 OFFCURVE",
"240 247 OFFCURVE",
"92 235 CURVE",
"88 204 LINE"
);
}
);
};
layerId = "E2F23145-0329-495D-BB78-D29746C06BF4";
name = "Regular Italic Jun 1 15, 23:39";
paths = (
{
closed = 1;
nodes = (
"288 226 OFFCURVE",
"362 312 OFFCURVE",
"362 377 CURVE SMOOTH",
"362 409 OFFCURVE",
"341 434 OFFCURVE",
"298 434 CURVE SMOOTH",
"199 434 OFFCURVE",
"25 278 OFFCURVE",
"25 90 CURVE SMOOTH",
"25 38 OFFCURVE",
"50 -8 OFFCURVE",
"105 -8 CURVE SMOOTH",
"173 -8 OFFCURVE",
"260 72 OFFCURVE",
"312 166 CURVE",
"293 177 LINE",
"250 98 OFFCURVE",
"193 43 OFFCURVE",
"151 43 CURVE SMOOTH",
"116 43 OFFCURVE",
"92 72 OFFCURVE",
"92 147 CURVE SMOOTH",
"92 294 OFFCURVE",
"205 392 OFFCURVE",
"261 392 CURVE SMOOTH",
"284 392 OFFCURVE",
"296 380 OFFCURVE",
"296 359 CURVE SMOOTH",
"296 315 OFFCURVE",
"240 247 OFFCURVE",
"92 235 CURVE",
"88 204 LINE"
);
}
);
width = 364;
},
{
associatedMasterId = "A0758A2D-FE5C-4D8D-B7A5-83FAC1CB14BB";
background = {
paths = (
{
closed = 1;
nodes = (
"279 72 OFFCURVE",
"207 -8 OFFCURVE",
"138 -8 CURVE SMOOTH",
"68 -8 OFFCURVE",
"38 46 OFFCURVE",
"38 117 CURVE SMOOTH",
"38 263 OFFCURVE",
"147 434 OFFCURVE",
"284 434 CURVE SMOOTH",
"339 434 OFFCURVE",
"367 406 OFFCURVE",
"367 370 CURVE SMOOTH",
"367 305 OFFCURVE",
"285 217 OFFCURVE",
"85 195 CURVE",
"86 206 LINE",
"273 235 OFFCURVE",
"319 333 OFFCURVE",
"319 375 CURVE SMOOTH",
"319 397 OFFCURVE",
"306 413 OFFCURVE",
"282 413 CURVE SMOOTH",
"204 413 OFFCURVE",
"99 218 OFFCURVE",
"99 94 CURVE SMOOTH",
"99 53 OFFCURVE",
"119 23 OFFCURVE",
"155 23 CURVE SMOOTH",
"211 23 OFFCURVE",
"265 87 OFFCURVE",
"307 176 CURVE",
"326 166 LINE"
);
}
);
};
layerId = "810E214A-938D-4C58-BA4B-2B9A84D7B9B9";
name = "Regular Italic Jun 2 15, 00:49";
paths = (
{
closed = 1;
nodes = (
"279 72 OFFCURVE",
"207 -8 OFFCURVE",
"138 -8 CURVE SMOOTH",
"68 -8 OFFCURVE",
"38 46 OFFCURVE",
"38 117 CURVE SMOOTH",
"38 263 OFFCURVE",
"147 434 OFFCURVE",
"284 434 CURVE SMOOTH",
"339 434 OFFCURVE",
"370 409 OFFCURVE",
"370 371 CURVE SMOOTH",
"370 306 OFFCURVE",
"289 215 OFFCURVE",
"85 195 CURVE",
"86 206 LINE",
"269 238 OFFCURVE",
"318 333 OFFCURVE",
"318 375 CURVE SMOOTH",
"318 398 OFFCURVE",
"305 413 OFFCURVE",
"282 413 CURVE SMOOTH",
"204 413 OFFCURVE",
"99 218 OFFCURVE",
"99 94 CURVE SMOOTH",
"99 53 OFFCURVE",
"119 23 OFFCURVE",
"155 23 CURVE SMOOTH",
"211 23 OFFCURVE",
"265 87 OFFCURVE",
"307 176 CURVE",
"326 166 LINE"
);
}
);
width = 380;
},
{
anchors = (
{
name = top;
position = "{312, 470}";
}
);
background = {
paths = (
{
closed = 1;
nodes = (
"185 -8 OFFCURVE",
"280 72 OFFCURVE",
"332 166 CURVE",
"313 177 LINE",
"270 98 OFFCURVE",
"202 46 OFFCURVE",
"160 46 CURVE SMOOTH",
"112 46 OFFCURVE",
"104 84 OFFCURVE",
"104 137 CURVE SMOOTH",
"104 312 OFFCURVE",
"226 392 OFFCURVE",
"284 392 CURVE SMOOTH",
"307 392 OFFCURVE",
"319 380 OFFCURVE",
"319 359 CURVE SMOOTH",
"319 315 OFFCURVE",
"252 239 OFFCURVE",
"104 227 CURVE",
"100 204 LINE",
"300 226 OFFCURVE",
"385 312 OFFCURVE",
"385 377 CURVE SMOOTH",
"385 409 OFFCURVE",
"364 434 OFFCURVE",
"321 434 CURVE SMOOTH",
"270 434 OFFCURVE",
"221 411 OFFCURVE",
"178 376 CURVE SMOOTH",
"94 307 OFFCURVE",
"35 190 OFFCURVE",
"35 93 CURVE SMOOTH",
"35 35 OFFCURVE",
"60 -8 OFFCURVE",
"117 -8 CURVE SMOOTH"
);
},
{
closed = 1;
nodes = (
"172 -8 OFFCURVE",
"270 75 OFFCURVE",
"326 173 CURVE",
"307 185 LINE",
"264 113 OFFCURVE",
"216 80 OFFCURVE",
"175 80 CURVE SMOOTH",
"135 80 OFFCURVE",
"114 106 OFFCURVE",
"114 158 CURVE SMOOTH",
"114 264 OFFCURVE",
"190 393 OFFCURVE",
"253 393 CURVE SMOOTH",
"274 393 OFFCURVE",
"284 383 OFFCURVE",
"284 366 CURVE SMOOTH",
"284 321 OFFCURVE",
"219 250 OFFCURVE",
"87 241 CURVE",
"85 212 LINE",
"308 241 OFFCURVE",
"384 320 OFFCURVE",
"384 392 CURVE SMOOTH",
"384 425 OFFCURVE",
"359 451 OFFCURVE",
"309 451 CURVE SMOOTH",
"272 451 OFFCURVE",
"223 430 OFFCURVE",
"179 393 CURVE SMOOTH",
"99 325 OFFCURVE",
"14 220 OFFCURVE",
"14 94 CURVE SMOOTH",
"14 37 OFFCURVE",
"41 -8 OFFCURVE",
"100 -8 CURVE SMOOTH"
);
}
);
};
guideLines = (
{
angle = 90;
position = "{179, 418}";
}
);
layerId = "B3FC2A1D-D4D8-43EF-896F-5E7A9998234E";
paths = (
{
closed = 1;
nodes = (
"172 -8 OFFCURVE",
"270 75 OFFCURVE",
"326 173 CURVE",
"307 185 LINE",
"264 113 OFFCURVE",
"216 80 OFFCURVE",
"175 80 CURVE SMOOTH",
"135 80 OFFCURVE",
"114 106 OFFCURVE",
"114 158 CURVE SMOOTH",
"114 264 OFFCURVE",
"187 393 OFFCURVE",
"258 393 CURVE SMOOTH",
"277 393 OFFCURVE",
"284 382 OFFCURVE",
"284 366 CURVE SMOOTH",
"284 321 OFFCURVE",
"219 250 OFFCURVE",
"87 241 CURVE",
"85 212 LINE",
"308 241 OFFCURVE",
"384 320 OFFCURVE",
"384 392 CURVE SMOOTH",
"384 425 OFFCURVE",
"359 451 OFFCURVE",
"309 451 CURVE SMOOTH",
"272 451 OFFCURVE",
"223 430 OFFCURVE",
"179 393 CURVE SMOOTH",
"99 325 OFFCURVE",
"14 220 OFFCURVE",
"14 94 CURVE SMOOTH",
"14 37 OFFCURVE",
"41 -8 OFFCURVE",
"100 -8 CURVE SMOOTH"
);
}
);
width = 360;
}
);
leftKerningGroup = c;
leftMetricsKey = o;
rightKerningGroup = e;
unicode = 0065;
},
{
glyphname = f;
lastChange = "2019-09-13 01:44:53 +0000";
layers = (
{
background = {
paths = (
{
closed = 1;
nodes = (
"-37 -247 OFFCURVE",
"-3 -210 OFFCURVE",
"19 -178 CURVE SMOOTH",
"34 -156 OFFCURVE",
"50 -149 OFFCURVE",
"53 -138 CURVE SMOOTH",
"251 516 LINE SMOOTH",
"287 636 OFFCURVE",
"315 685 OFFCURVE",
"376 685 CURVE SMOOTH",
"399 685 OFFCURVE",
"416 674 OFFCURVE",
"416 655 CURVE SMOOTH",
"416 651 OFFCURVE",
"414 643 OFFCURVE",
"414 636 CURVE SMOOTH",
"414 612 OFFCURVE",
"430 596 OFFCURVE",
"462 596 CURVE SMOOTH",
"490 596 OFFCURVE",
"502 617 OFFCURVE",
"502 634 CURVE SMOOTH",
"502 677 OFFCURVE",
"458 711 OFFCURVE",
"384 711 CURVE SMOOTH",
"287 711 OFFCURVE",
"232 654 OFFCURVE",
"186 501 CURVE SMOOTH",
"-8 -137 LINE SMOOTH",
"-26 -195 OFFCURVE",
"-52 -222 OFFCURVE",
"-82 -222 CURVE SMOOTH",
"-100 -222 OFFCURVE",
"-113 -212 OFFCURVE",
"-113 -187 CURVE SMOOTH",
"-113 -138 OFFCURVE",
"-134 -127 OFFCURVE",
"-157 -127 CURVE SMOOTH",
"-180 -127 OFFCURVE",
"-201 -142 OFFCURVE",
"-201 -173 CURVE SMOOTH",
"-201 -213 OFFCURVE",
"-146 -247 OFFCURVE",
"-92 -247 CURVE SMOOTH"
);
},
{
closed = 1;
nodes = (
"327 398 LINE",
"339 426 LINE",
"95 426 LINE",
"83 398 LINE"
);
}
);
};
layerId = "A0758A2D-FE5C-4D8D-B7A5-83FAC1CB14BB";
paths = (
{
closed = 1;
nodes = (
"-37 -247 OFFCURVE",
"-3 -210 OFFCURVE",
"19 -178 CURVE SMOOTH",
"34 -156 OFFCURVE",
"40 -138 OFFCURVE",
"55 -138 CURVE",
"253 516 LINE SMOOTH",
"289 636 OFFCURVE",
"316 685 OFFCURVE",
"376 685 CURVE SMOOTH",
"399 685 OFFCURVE",
"416 674 OFFCURVE",
"416 655 CURVE SMOOTH",
"416 651 OFFCURVE",
"414 643 OFFCURVE",
"414 636 CURVE SMOOTH",
"414 612 OFFCURVE",
"430 596 OFFCURVE",
"462 596 CURVE SMOOTH",
"490 596 OFFCURVE",
"502 617 OFFCURVE",
"502 634 CURVE SMOOTH",
"502 677 OFFCURVE",
"458 711 OFFCURVE",
"384 711 CURVE SMOOTH",
"287 711 OFFCURVE",
"232 654 OFFCURVE",
"186 501 CURVE SMOOTH",
"-8 -137 LINE SMOOTH",
"-26 -195 OFFCURVE",
"-52 -222 OFFCURVE",
"-82 -222 CURVE SMOOTH",
"-100 -222 OFFCURVE",
"-113 -212 OFFCURVE",
"-113 -187 CURVE SMOOTH",
"-113 -138 OFFCURVE",
"-134 -127 OFFCURVE",
"-157 -127 CURVE SMOOTH",
"-180 -127 OFFCURVE",
"-201 -142 OFFCURVE",
"-201 -173 CURVE SMOOTH",
"-201 -213 OFFCURVE",
"-146 -247 OFFCURVE",
"-92 -247 CURVE SMOOTH"
);
},
{
closed = 1;
nodes = (
"327 398 LINE",
"339 426 LINE",
"95 426 LINE",
"83 398 LINE"
);
}
);
width = 305;
},
{
background = {
paths = (
{
closed = 1;
nodes = (
"-17 -247 OFFCURVE",
"21 -211 OFFCURVE",
"43 -178 CURVE SMOOTH",
"58 -156 OFFCURVE",
"62 -138 OFFCURVE",
"80 -138 CURVE",
"278 517 LINE SMOOTH",
"312 630 OFFCURVE",
"333 677 OFFCURVE",
"384 677 CURVE SMOOTH",
"403 677 OFFCURVE",
"418 668 OFFCURVE",
"418 651 CURVE SMOOTH",
"418 648 OFFCURVE",
"417 641 OFFCURVE",
"417 634 CURVE SMOOTH",
"417 601 OFFCURVE",
"438 581 OFFCURVE",
"479 581 CURVE SMOOTH",
"516 581 OFFCURVE",
"531 610 OFFCURVE",
"531 634 CURVE SMOOTH",
"531 677 OFFCURVE",
"483 711 OFFCURVE",
"401 711 CURVE SMOOTH",
"294 711 OFFCURVE",
"230 655 OFFCURVE",
"183 501 CURVE SMOOTH",
"-11 -137 LINE SMOOTH",
"-27 -190 OFFCURVE",
"-42 -216 OFFCURVE",
"-63 -216 CURVE SMOOTH",
"-76 -216 OFFCURVE",
"-85 -207 OFFCURVE",
"-85 -187 CURVE SMOOTH",
"-85 -130 OFFCURVE",
"-111 -116 OFFCURVE",
"-140 -116 CURVE SMOOTH",
"-168 -116 OFFCURVE",
"-194 -135 OFFCURVE",
"-194 -173 CURVE SMOOTH",
"-194 -213 OFFCURVE",
"-135 -247 OFFCURVE",
"-76 -247 CURVE SMOOTH"
);
},
{
closed = 1;
nodes = (
"352 391 LINE",
"367 426 LINE",
"102 426 LINE",
"88 391 LINE"
);
}
);
};
layerId = "B3FC2A1D-D4D8-43EF-896F-5E7A9998234E";
paths = (
{
closed = 1;
nodes = (
"-17 -247 OFFCURVE",
"21 -211 OFFCURVE",
"43 -178 CURVE SMOOTH",
"58 -156 OFFCURVE",
"68 -138 OFFCURVE",
"86 -138 CURVE",
"284 517 LINE SMOOTH",
"318 630 OFFCURVE",
"339 677 OFFCURVE",
"390 677 CURVE SMOOTH",
"409 677 OFFCURVE",
"424 668 OFFCURVE",
"424 651 CURVE SMOOTH",
"424 648 OFFCURVE",
"423 641 OFFCURVE",
"423 634 CURVE SMOOTH",
"423 601 OFFCURVE",
"444 581 OFFCURVE",
"485 581 CURVE SMOOTH",
"522 581 OFFCURVE",
"537 610 OFFCURVE",
"537 634 CURVE SMOOTH",
"537 677 OFFCURVE",
"488 711 OFFCURVE",
"405 711 CURVE SMOOTH",
"296 711 OFFCURVE",
"230 655 OFFCURVE",
"183 501 CURVE SMOOTH",
"-11 -137 LINE SMOOTH",
"-27 -190 OFFCURVE",
"-42 -216 OFFCURVE",
"-63 -216 CURVE SMOOTH",
"-76 -216 OFFCURVE",
"-85 -207 OFFCURVE",
"-85 -187 CURVE SMOOTH",
"-85 -130 OFFCURVE",
"-111 -116 OFFCURVE",
"-140 -116 CURVE SMOOTH",
"-168 -116 OFFCURVE",
"-194 -135 OFFCURVE",
"-194 -173 CURVE SMOOTH",
"-194 -213 OFFCURVE",
"-135 -247 OFFCURVE",
"-76 -247 CURVE SMOOTH"
);
},
{
closed = 1;
nodes = (
"359 407 LINE",
"374 442 LINE",
"99 442 LINE",
"85 407 LINE"
);
}
);
width = 335;
}
);
leftKerningGroup = f;
rightKerningGroup = f;
unicode = 0066;
},
{
glyphname = g;
lastChange = "2016-01-04 10:31:29 +0000";
layers = (
{
anchors = (
{
name = top;
position = "{298, 470}";
}
);
background = {
paths = (
{
closed = 1;
nodes = (
"225 -259 OFFCURVE",
"361 -185 OFFCURVE",
"361 -94 CURVE SMOOTH",
"361 -36 OFFCURVE",
"316 -3 OFFCURVE",
"192 22 CURVE SMOOTH",
"78 45 OFFCURVE",
"58 53 OFFCURVE",
"58 78 CURVE SMOOTH",
"58 112 OFFCURVE",
"127 127 OFFCURVE",
"193 129 CURVE SMOOTH",
"141 143 LINE",
"40 126 OFFCURVE",
"-13 93 OFFCURVE",
"-13 60 CURVE SMOOTH",
"-13 20 OFFCURVE",
"19 -3 OFFCURVE",
"144 -29 CURVE SMOOTH",
"275 -56 OFFCURVE",
"295 -82 OFFCURVE",
"295 -118 CURVE SMOOTH",
"295 -185 OFFCURVE",
"211 -225 OFFCURVE",
"97 -225 CURVE SMOOTH",
"26 -225 OFFCURVE",
"-35 -200 OFFCURVE",
"-35 -144 CURVE SMOOTH",
"-35 -71 OFFCURVE",
"39 -26 OFFCURVE",
"142 -3 CURVE",
"93 11 LINE",
"-22 -21 OFFCURVE",
"-111 -69 OFFCURVE",
"-111 -159 CURVE SMOOTH",
"-111 -221 OFFCURVE",
"-36 -259 OFFCURVE",
"61 -259 CURVE SMOOTH"
);
},
{
closed = 1;
nodes = (
"207 22 OFFCURVE",
"280 38 OFFCURVE",
"346 50 CURVE",
"343 65 LINE",
"258 52 OFFCURVE",
"171 38 OFFCURVE",
"93 17 CURVE",
"142 3 LINE"
);
},
{
closed = 1;
nodes = (
"450 326 OFFCURVE",
"493 368 OFFCURVE",
"493 430 CURVE SMOOTH",
"493 449 OFFCURVE",
"482 462 OFFCURVE",
"462 462 CURVE SMOOTH",
"437 462 OFFCURVE",
"418 448 OFFCURVE",
"418 416 CURVE SMOOTH",
"418 404 OFFCURVE",
"423 391 OFFCURVE",
"423 379 CURVE SMOOTH",
"423 365 OFFCURVE",
"417 352 OFFCURVE",
"400 352 CURVE SMOOTH",
"388 352 OFFCURVE",
"376 363 OFFCURVE",
"370 380 CURVE",
"373 332 LINE",
"382 328 OFFCURVE",
"393 326 OFFCURVE",
"401 326 CURVE SMOOTH"
);
},
{
closed = 1;
nodes = (
"314 129 OFFCURVE",
"382 244 OFFCURVE",
"382 327 CURVE SMOOTH",
"382 397 OFFCURVE",
"331 435 OFFCURVE",
"261 435 CURVE",
"136 435 OFFCURVE",
"68 320 OFFCURVE",
"68 237 CURVE SMOOTH",
"68 167 OFFCURVE",
"119 129 OFFCURVE",
"189 129 CURVE"
);
},
{
closed = 1;
nodes = (
"301 411 OFFCURVE",
"320 373 OFFCURVE",
"320 337 CURVE SMOOTH",
"320 251 OFFCURVE",
"254 151 OFFCURVE",
"193 151 CURVE SMOOTH",
"149 151 OFFCURVE",
"130 189 OFFCURVE",
"130 225 CURVE SMOOTH",
"130 311 OFFCURVE",
"196 411 OFFCURVE",
"257 411 CURVE"
);
}
);
};
layerId = "A0758A2D-FE5C-4D8D-B7A5-83FAC1CB14BB";
paths = (
{
closed = 1;
nodes = (
"225 -259 OFFCURVE",
"361 -185 OFFCURVE",
"361 -94 CURVE SMOOTH",
"361 -36 OFFCURVE",
"316 -3 OFFCURVE",
"192 22 CURVE SMOOTH",
"78 45 OFFCURVE",
"58 53 OFFCURVE",
"58 78 CURVE SMOOTH",
"58 112 OFFCURVE",
"127 127 OFFCURVE",
"193 129 CURVE",
"141 143 LINE",
"40 126 OFFCURVE",
"-13 93 OFFCURVE",
"-13 60 CURVE SMOOTH",
"-13 20 OFFCURVE",
"19 -3 OFFCURVE",
"144 -29 CURVE SMOOTH",
"275 -56 OFFCURVE",
"295 -82 OFFCURVE",
"295 -118 CURVE SMOOTH",
"295 -185 OFFCURVE",
"211 -225 OFFCURVE",
"97 -225 CURVE SMOOTH",
"26 -225 OFFCURVE",
"-35 -200 OFFCURVE",
"-35 -144 CURVE SMOOTH",
"-35 -71 OFFCURVE",
"39 -26 OFFCURVE",
"142 -3 CURVE",
"93 11 LINE",
"-22 -21 OFFCURVE",
"-111 -69 OFFCURVE",
"-111 -159 CURVE SMOOTH",
"-111 -221 OFFCURVE",
"-36 -259 OFFCURVE",
"61 -259 CURVE SMOOTH"
);
},
{
closed = 1;
nodes = (
"207 22 OFFCURVE",
"280 38 OFFCURVE",
"346 50 CURVE",
"343 65 LINE",
"258 52 OFFCURVE",
"171 38 OFFCURVE",
"93 17 CURVE",
"142 3 LINE"
);
},
{
closed = 1;
nodes = (
"148 150 OFFCURVE",
"130 187 OFFCURVE",
"130 225 CURVE SMOOTH",
"130 311 OFFCURVE",
"195 413 OFFCURVE",
"261 413 CURVE SMOOTH",
"276 413 OFFCURVE",
"289 410 OFFCURVE",
"300 404 CURVE",
"314 386 OFFCURVE",
"322 363 OFFCURVE",
"322 339 CURVE SMOOTH",
"322 254 OFFCURVE",
"254 150 OFFCURVE",
"192 150 CURVE SMOOTH"
);
},
{
closed = 1;
nodes = (
"304 129 OFFCURVE",
"381 237 OFFCURVE",
"381 321 CURVE SMOOTH",
"381 349 OFFCURVE",
"371 374 OFFCURVE",
"350 392 CURVE",
"352 397 LINE",
"364 389 OFFCURVE",
"380 385 OFFCURVE",
"395 385 CURVE SMOOTH",
"463 385 OFFCURVE",
"501 442 OFFCURVE",
"501 484 CURVE SMOOTH",
"501 506 OFFCURVE",
"489 524 OFFCURVE",
"464 524 CURVE SMOOTH",
"441 524 OFFCURVE",
"420 507 OFFCURVE",
"420 472 CURVE SMOOTH",
"420 460 OFFCURVE",
"425 450 OFFCURVE",
"425 440 CURVE SMOOTH",
"425 419 OFFCURVE",
"412 413 OFFCURVE",
"394 413 CURVE SMOOTH",
"376 413 OFFCURVE",
"353 418 OFFCURVE",
"330 423 CURVE SMOOTH",
"306 428 OFFCURVE",
"281 434 OFFCURVE",
"259 434 CURVE SMOOTH",
"134 434 OFFCURVE",
"68 320 OFFCURVE",
"68 237 CURVE SMOOTH",
"68 167 OFFCURVE",
"119 129 OFFCURVE",
"189 129 CURVE SMOOTH"
);
}
);
width = 457;
},
{
anchors = (
{
name = top;
position = "{295, 470}";
}
);
associatedMasterId = "A0758A2D-FE5C-4D8D-B7A5-83FAC1CB14BB";
background = {
paths = (
{
closed = 1;
nodes = (
"222 -259 OFFCURVE",
"358 -185 OFFCURVE",
"358 -94 CURVE SMOOTH",
"358 -36 OFFCURVE",
"321 -3 OFFCURVE",
"190 20 CURVE SMOOTH",
"76 40 OFFCURVE",
"55 53 OFFCURVE",
"55 78 CURVE SMOOTH",
"55 112 OFFCURVE",
"126 129 OFFCURVE",
"192 131 CURVE",
"123 139 LINE",
"34 122 OFFCURVE",
"-16 93 OFFCURVE",
"-16 60 CURVE SMOOTH",
"-16 20 OFFCURVE",
"16 -2 OFFCURVE",
"141 -25 CURVE SMOOTH",
"272 -49 OFFCURVE",
"292 -82 OFFCURVE",
"292 -118 CURVE SMOOTH",
"292 -185 OFFCURVE",
"208 -225 OFFCURVE",
"94 -225 CURVE SMOOTH",
"23 -225 OFFCURVE",
"-38 -202 OFFCURVE",
"-38 -146 CURVE SMOOTH",
"-38 -64 OFFCURVE",
"74 -28 OFFCURVE",
"147 -23 CURVE",
"143 -10 LINE",
"39 -15 OFFCURVE",
"-114 -64 OFFCURVE",
"-114 -159 CURVE SMOOTH",
"-114 -230 OFFCURVE",
"-39 -259 OFFCURVE",
"52 -259 CURVE SMOOTH"
);
},
{
closed = 1;
nodes = (
"311 129 OFFCURVE",
"387 239 OFFCURVE",
"387 329 CURVE SMOOTH",
"387 407 OFFCURVE",
"327 435 OFFCURVE",
"268 435 CURVE SMOOTH",
"138 435 OFFCURVE",
"63 311 OFFCURVE",
"63 228 CURVE SMOOTH",
"63 170 OFFCURVE",
"112 129 OFFCURVE",
"182 129 CURVE SMOOTH"
);
},
{
closed = 1;
nodes = (
"153 151 OFFCURVE",
"131 171 OFFCURVE",
"131 202 CURVE SMOOTH",
"131 291 OFFCURVE",
"196 411 OFFCURVE",
"265 411 CURVE SMOOTH",
"302 411 OFFCURVE",
"320 390 OFFCURVE",
"320 352 CURVE SMOOTH",
"320 262 OFFCURVE",
"250 151 OFFCURVE",
"185 151 CURVE SMOOTH"
);
},
{
closed = 1;
nodes = (
"454 326 OFFCURVE",
"512 368 OFFCURVE",
"512 433 CURVE SMOOTH",
"512 449 OFFCURVE",
"501 462 OFFCURVE",
"481 462 CURVE SMOOTH",
"456 462 OFFCURVE",
"437 448 OFFCURVE",
"437 416 CURVE SMOOTH",
"437 407 OFFCURVE",
"442 391 OFFCURVE",
"442 379 CURVE SMOOTH",
"442 365 OFFCURVE",
"435 352 OFFCURVE",
"413 352 CURVE SMOOTH",
"399 352 OFFCURVE",
"383 364 OFFCURVE",
"375 381 CURVE",
"379 332 LINE",
"389 328 OFFCURVE",
"401 326 OFFCURVE",
"410 326 CURVE SMOOTH"
);
},
{
closed = 1;
nodes = (
"174 -17 LINE",
"203 -2 OFFCURVE",
"244 12 OFFCURVE",
"294 25 CURVE",
"290 41 LINE",
"238 28 OFFCURVE",
"196 14 OFFCURVE",
"164 0 CURVE"
);
}
);
};
layerId = "2BAD883C-613D-4879-B293-077DD2B5F91D";
name = "Regular Italic Jun 10 15, 17:39";
paths = (
{
closed = 1;
nodes = (
"222 -259 OFFCURVE",
"358 -185 OFFCURVE",
"358 -94 CURVE SMOOTH",
"358 -36 OFFCURVE",
"321 -3 OFFCURVE",
"190 20 CURVE SMOOTH",
"76 40 OFFCURVE",
"55 53 OFFCURVE",
"55 78 CURVE SMOOTH",
"55 112 OFFCURVE",
"126 129 OFFCURVE",
"192 131 CURVE",
"123 139 LINE",
"34 122 OFFCURVE",
"-16 93 OFFCURVE",
"-16 60 CURVE SMOOTH",
"-16 20 OFFCURVE",
"16 -2 OFFCURVE",
"141 -25 CURVE SMOOTH",
"272 -49 OFFCURVE",
"292 -82 OFFCURVE",
"292 -118 CURVE SMOOTH",
"292 -185 OFFCURVE",
"208 -225 OFFCURVE",
"94 -225 CURVE SMOOTH",
"23 -225 OFFCURVE",
"-38 -202 OFFCURVE",
"-38 -146 CURVE SMOOTH",
"-38 -64 OFFCURVE",
"74 -28 OFFCURVE",
"147 -23 CURVE",
"143 -10 LINE",
"39 -15 OFFCURVE",
"-114 -64 OFFCURVE",
"-114 -159 CURVE SMOOTH",
"-114 -230 OFFCURVE",
"-39 -259 OFFCURVE",
"52 -259 CURVE SMOOTH"
);
},
{
closed = 1;
nodes = (
"311 129 OFFCURVE",
"387 239 OFFCURVE",
"387 329 CURVE SMOOTH",
"387 407 OFFCURVE",
"327 435 OFFCURVE",
"268 435 CURVE SMOOTH",
"138 435 OFFCURVE",
"63 311 OFFCURVE",
"63 228 CURVE SMOOTH",
"63 170 OFFCURVE",
"112 129 OFFCURVE",
"182 129 CURVE SMOOTH"
);
},
{
closed = 1;
nodes = (
"153 151 OFFCURVE",
"131 171 OFFCURVE",
"131 202 CURVE SMOOTH",
"131 291 OFFCURVE",
"196 411 OFFCURVE",
"265 411 CURVE SMOOTH",
"302 411 OFFCURVE",
"320 390 OFFCURVE",
"320 352 CURVE SMOOTH",
"320 262 OFFCURVE",
"250 151 OFFCURVE",
"185 151 CURVE SMOOTH"
);
},
{
closed = 1;
nodes = (
"454 326 OFFCURVE",
"512 368 OFFCURVE",
"512 433 CURVE SMOOTH",
"512 449 OFFCURVE",
"501 462 OFFCURVE",
"481 462 CURVE SMOOTH",
"456 462 OFFCURVE",
"437 448 OFFCURVE",
"437 416 CURVE SMOOTH",
"437 407 OFFCURVE",
"442 391 OFFCURVE",
"442 379 CURVE SMOOTH",
"442 365 OFFCURVE",
"435 352 OFFCURVE",
"413 352 CURVE SMOOTH",
"399 352 OFFCURVE",
"383 364 OFFCURVE",
"375 381 CURVE",
"379 332 LINE",
"389 328 OFFCURVE",
"401 326 OFFCURVE",
"410 326 CURVE SMOOTH"
);
}
);
width = 494;
},
{
anchors = (
{
name = top;
position = "{278, 470}";
}
);
background = {
paths = (
{
closed = 1;
nodes = (
"271 -259 OFFCURVE",
"426 -187 OFFCURVE",
"426 -88 CURVE SMOOTH",
"426 -28 OFFCURVE",
"375 5 OFFCURVE",
"227 30 CURVE SMOOTH",
"98 52 OFFCURVE",
"85 59 OFFCURVE",
"85 76 CURVE SMOOTH",
"85 97 OFFCURVE",
"136 105 OFFCURVE",
"200 107 CURVE",
"157 124 LINE",
"58 123 OFFCURVE",
"-14 91 OFFCURVE",
"-14 56 CURVE SMOOTH",
"-14 4 OFFCURVE",
"40 -22 OFFCURVE",
"165 -44 CURVE SMOOTH",
"296 -67 OFFCURVE",
"321 -87 OFFCURVE",
"321 -121 CURVE SMOOTH",
"321 -178 OFFCURVE",
"236 -219 OFFCURVE",
"107 -219 CURVE SMOOTH",
"38 -219 OFFCURVE",
"-19 -197 OFFCURVE",
"-19 -142 CURVE SMOOTH",
"-19 -71 OFFCURVE",
"62 -31 OFFCURVE",
"162 -3 CURVE",
"114 7 LINE",
"-7 -20 OFFCURVE",
"-112 -65 OFFCURVE",
"-112 -150 CURVE SMOOTH",
"-112 -221 OFFCURVE",
"-21 -259 OFFCURVE",
"78 -259 CURVE SMOOTH"
);
},
{
closed = 1;
nodes = (
"226 18 OFFCURVE",
"299 34 OFFCURVE",
"365 46 CURVE",
"361 68 LINE",
"276 55 OFFCURVE",
"189 41 OFFCURVE",
"111 20 CURVE",
"161 -1 LINE"
);
},
{
closed = 1;
nodes = (
"522 326 OFFCURVE",
"564 371 OFFCURVE",
"564 432 CURVE SMOOTH",
"564 461 OFFCURVE",
"546 474 OFFCURVE",
"522 474 CURVE SMOOTH",
"491 474 OFFCURVE",
"471 456 OFFCURVE",
"471 416 CURVE SMOOTH",
"471 408 OFFCURVE",
"475 394 OFFCURVE",
"475 380 CURVE SMOOTH",
"475 365 OFFCURVE",
"473 351 OFFCURVE",
"450 351 CURVE SMOOTH",
"437 351 OFFCURVE",
"427 364 OFFCURVE",
"419 382 CURVE",
"427 332 LINE",
"438 328 OFFCURVE",
"453 326 OFFCURVE",
"473 326 CURVE SMOOTH"
);
},
{
closed = 1;
nodes = (
"329 419 OFFCURVE",
"338 376 OFFCURVE",
"338 341 CURVE SMOOTH",
"338 265 OFFCURVE",
"288 140 OFFCURVE",
"209 140 CURVE SMOOTH",
"168 140 OFFCURVE",
"155 173 OFFCURVE",
"155 219 CURVE SMOOTH",
"155 294 OFFCURVE",
"205 419 OFFCURVE",
"284 419 CURVE SMOOTH"
);
},
{
closed = 1;
nodes = (
"430 417 OFFCURVE",
"356 451 OFFCURVE",
"282 451 CURVE SMOOTH",
"138 451 OFFCURVE",
"65 326 OFFCURVE",
"65 233 CURVE SMOOTH",
"65 150 OFFCURVE",
"138 106 OFFCURVE",
"212 106 CURVE SMOOTH",
"356 106 OFFCURVE",
"430 231 OFFCURVE",
"430 324 CURVE SMOOTH"
);
}
);
};
layerId = "B3FC2A1D-D4D8-43EF-896F-5E7A9998234E";
paths = (
{
closed = 1;
nodes = (
"271 -259 OFFCURVE",
"426 -187 OFFCURVE",
"426 -88 CURVE SMOOTH",
"426 -28 OFFCURVE",
"375 5 OFFCURVE",
"227 30 CURVE SMOOTH",
"98 52 OFFCURVE",
"85 59 OFFCURVE",
"85 76 CURVE SMOOTH",
"85 97 OFFCURVE",
"136 105 OFFCURVE",
"200 107 CURVE",
"157 124 LINE",
"58 123 OFFCURVE",
"-14 91 OFFCURVE",
"-14 56 CURVE SMOOTH",
"-14 4 OFFCURVE",
"40 -22 OFFCURVE",
"165 -44 CURVE SMOOTH",
"296 -67 OFFCURVE",
"321 -87 OFFCURVE",
"321 -121 CURVE SMOOTH",
"321 -178 OFFCURVE",
"236 -219 OFFCURVE",
"107 -219 CURVE SMOOTH",
"38 -219 OFFCURVE",
"-19 -197 OFFCURVE",
"-19 -142 CURVE SMOOTH",
"-19 -71 OFFCURVE",
"62 -31 OFFCURVE",
"162 -3 CURVE",
"114 7 LINE",
"-7 -20 OFFCURVE",
"-112 -65 OFFCURVE",
"-112 -150 CURVE SMOOTH",
"-112 -221 OFFCURVE",
"-21 -259 OFFCURVE",
"78 -259 CURVE SMOOTH"
);
},
{
closed = 1;
nodes = (
"226 18 OFFCURVE",
"299 34 OFFCURVE",
"365 46 CURVE",
"361 68 LINE",
"276 55 OFFCURVE",
"189 41 OFFCURVE",
"111 20 CURVE",
"161 -1 LINE"
);
},
{
closed = 1;
nodes = (
"163 140 OFFCURVE",
"151 173 OFFCURVE",
"153 219 CURVE SMOOTH",
"156 294 OFFCURVE",
"210 419 OFFCURVE",
"289 419 CURVE SMOOTH",
"305 419 OFFCURVE",
"320 415 OFFCURVE",
"328 407 CURVE",
"336 390 OFFCURVE",
"340 369 OFFCURVE",
"340 346 CURVE SMOOTH",
"340 256 OFFCURVE",
"281 140 OFFCURVE",
"204 140 CURVE SMOOTH"
);
},
{
closed = 1;
nodes = (
"353 106 OFFCURVE",
"426 223 OFFCURVE",
"426 309 CURVE SMOOTH",
"426 338 OFFCURVE",
"420 360 OFFCURVE",
"406 377 CURVE",
"408 383 LINE",
"420 377 OFFCURVE",
"428 374 OFFCURVE",
"442 374 CURVE SMOOTH",
"514 374 OFFCURVE",
"563 446 OFFCURVE",
"563 497 CURVE SMOOTH",
"563 522 OFFCURVE",
"549 541 OFFCURVE",
"520 541 CURVE SMOOTH",
"493 541 OFFCURVE",
"470 522 OFFCURVE",
"470 483 CURVE SMOOTH",
"470 471 OFFCURVE",
"479 458 OFFCURVE",
"479 448 CURVE SMOOTH",
"479 423 OFFCURVE",
"461 412 OFFCURVE",
"439 412 CURVE SMOOTH",
"416 412 OFFCURVE",
"395 422 OFFCURVE",
"373 430 CURVE SMOOTH",
"348 440 OFFCURVE",
"320 451 OFFCURVE",
"282 451 CURVE SMOOTH",
"138 451 OFFCURVE",
"65 326 OFFCURVE",
"65 233 CURVE SMOOTH",
"65 150 OFFCURVE",
"139 106 OFFCURVE",
"212 106 CURVE SMOOTH"
);
}
);
width = 523;
},
{
anchors = (
{
name = top;
position = "{303, 470}";
}
);
associatedMasterId = "A0758A2D-FE5C-4D8D-B7A5-83FAC1CB14BB";
background = {
paths = (
{
closed = 1;
nodes = (
"230 -259 OFFCURVE",
"366 -185 OFFCURVE",
"366 -94 CURVE SMOOTH",
"366 -36 OFFCURVE",
"321 -3 OFFCURVE",
"197 22 CURVE SMOOTH",
"83 45 OFFCURVE",
"63 53 OFFCURVE",
"63 78 CURVE SMOOTH",
"63 112 OFFCURVE",
"132 127 OFFCURVE",
"198 129 CURVE SMOOTH",
"146 143 LINE",
"45 126 OFFCURVE",
"-8 93 OFFCURVE",
"-8 60 CURVE SMOOTH",
"-8 20 OFFCURVE",
"24 -3 OFFCURVE",
"149 -29 CURVE SMOOTH",
"280 -56 OFFCURVE",
"300 -82 OFFCURVE",
"300 -118 CURVE SMOOTH",
"300 -185 OFFCURVE",
"216 -225 OFFCURVE",
"102 -225 CURVE SMOOTH",
"31 -225 OFFCURVE",
"-30 -200 OFFCURVE",
"-30 -144 CURVE SMOOTH",
"-30 -71 OFFCURVE",
"44 -26 OFFCURVE",
"147 -3 CURVE",
"98 11 LINE",
"-17 -21 OFFCURVE",
"-106 -69 OFFCURVE",
"-106 -159 CURVE SMOOTH",
"-106 -221 OFFCURVE",
"-31 -259 OFFCURVE",
"66 -259 CURVE SMOOTH"
);
},
{
closed = 1;
nodes = (
"212 22 OFFCURVE",
"285 38 OFFCURVE",
"351 50 CURVE",
"348 65 LINE",
"263 52 OFFCURVE",
"176 38 OFFCURVE",
"98 17 CURVE",
"147 3 LINE"
);
},
{
closed = 1;
nodes = (
"455 326 OFFCURVE",
"498 368 OFFCURVE",
"498 430 CURVE SMOOTH",
"498 449 OFFCURVE",
"487 462 OFFCURVE",
"467 462 CURVE SMOOTH",
"442 462 OFFCURVE",
"423 448 OFFCURVE",
"423 416 CURVE SMOOTH",
"423 404 OFFCURVE",
"428 391 OFFCURVE",
"428 379 CURVE SMOOTH",
"428 365 OFFCURVE",
"422 352 OFFCURVE",
"405 352 CURVE SMOOTH",
"393 352 OFFCURVE",
"381 363 OFFCURVE",
"375 380 CURVE",
"378 332 LINE",
"387 328 OFFCURVE",
"398 326 OFFCURVE",
"406 326 CURVE SMOOTH"
);
},
{
closed = 1;
nodes = (
"319 129 OFFCURVE",
"387 244 OFFCURVE",
"387 327 CURVE SMOOTH",
"387 397 OFFCURVE",
"336 435 OFFCURVE",
"266 435 CURVE",
"141 435 OFFCURVE",
"73 320 OFFCURVE",
"73 237 CURVE SMOOTH",
"73 167 OFFCURVE",
"124 129 OFFCURVE",
"194 129 CURVE"
);
},
{
closed = 1;
nodes = (
"306 411 OFFCURVE",
"325 373 OFFCURVE",
"325 337 CURVE SMOOTH",
"325 251 OFFCURVE",
"259 151 OFFCURVE",
"198 151 CURVE SMOOTH",
"154 151 OFFCURVE",
"135 189 OFFCURVE",
"135 225 CURVE SMOOTH",
"135 311 OFFCURVE",
"201 411 OFFCURVE",
"262 411 CURVE"
);
}
);
};
layerId = "CD5900C0-A0A5-43F8-9111-55A9C447CFC8";
name = "Regular Italic Aug 27 15, 12:06";
paths = (
{
closed = 1;
nodes = (
"230 -259 OFFCURVE",
"366 -185 OFFCURVE",
"366 -94 CURVE SMOOTH",
"366 -36 OFFCURVE",
"321 -3 OFFCURVE",
"197 22 CURVE SMOOTH",
"83 45 OFFCURVE",
"63 53 OFFCURVE",
"63 78 CURVE SMOOTH",
"63 112 OFFCURVE",
"132 127 OFFCURVE",
"198 129 CURVE SMOOTH",
"146 143 LINE",
"45 126 OFFCURVE",
"-8 93 OFFCURVE",
"-8 60 CURVE SMOOTH",
"-8 20 OFFCURVE",
"24 -3 OFFCURVE",
"149 -29 CURVE SMOOTH",
"280 -56 OFFCURVE",
"300 -82 OFFCURVE",
"300 -118 CURVE SMOOTH",
"300 -185 OFFCURVE",
"216 -225 OFFCURVE",
"102 -225 CURVE SMOOTH",
"31 -225 OFFCURVE",
"-30 -200 OFFCURVE",
"-30 -144 CURVE SMOOTH",
"-30 -71 OFFCURVE",
"44 -26 OFFCURVE",
"147 -3 CURVE",
"98 11 LINE",
"-17 -21 OFFCURVE",
"-106 -69 OFFCURVE",
"-106 -159 CURVE SMOOTH",
"-106 -221 OFFCURVE",
"-31 -259 OFFCURVE",
"66 -259 CURVE SMOOTH"
);
},
{
closed = 1;
nodes = (
"212 22 OFFCURVE",
"285 38 OFFCURVE",
"351 50 CURVE",
"348 65 LINE",
"263 52 OFFCURVE",
"176 38 OFFCURVE",
"98 17 CURVE",
"147 3 LINE"
);
},
{
closed = 1;
nodes = (
"455 326 OFFCURVE",
"498 368 OFFCURVE",
"498 430 CURVE SMOOTH",
"498 449 OFFCURVE",
"487 462 OFFCURVE",
"467 462 CURVE SMOOTH",
"442 462 OFFCURVE",
"423 448 OFFCURVE",
"423 416 CURVE SMOOTH",
"423 404 OFFCURVE",
"428 391 OFFCURVE",
"428 379 CURVE SMOOTH",
"428 365 OFFCURVE",
"422 352 OFFCURVE",
"405 352 CURVE SMOOTH",
"393 352 OFFCURVE",
"380 363 OFFCURVE",
"374 380 CURVE",
"378 332 LINE",
"387 328 OFFCURVE",
"398 326 OFFCURVE",
"406 326 CURVE SMOOTH"
);
},
{
closed = 1;
nodes = (
"153 150 OFFCURVE",
"135 187 OFFCURVE",
"135 225 CURVE SMOOTH",
"135 311 OFFCURVE",
"200 413 OFFCURVE",
"266 413 CURVE",
"307 413 OFFCURVE",
"325 379 OFFCURVE",
"325 337 CURVE SMOOTH",
"325 251 OFFCURVE",
"258 150 OFFCURVE",
"197 150 CURVE SMOOTH"
);
},
{
closed = 1;
nodes = (
"319 129 OFFCURVE",
"387 244 OFFCURVE",
"387 327 CURVE SMOOTH",
"387 397 OFFCURVE",
"334 434 OFFCURVE",
"264 434 CURVE SMOOTH",
"139 434 OFFCURVE",
"73 320 OFFCURVE",
"73 237 CURVE SMOOTH",
"73 167 OFFCURVE",
"124 129 OFFCURVE",
"194 129 CURVE"
);
}
);
width = 467;
}
);
leftKerningGroup = g;
rightKerningGroup = g;
unicode = 0067;
},
{
glyphname = h;
lastChange = "2015-08-30 18:02:39 +0000";
layers = (
{
background = {
paths = (
{
closed = 1;
nodes = (
"-66 -8 OFFCURVE",
"15 59 OFFCURVE",
"63 123 CURVE",
"69 123 LINE",
"48 65 LINE SMOOTH",
"31 15 OFFCURVE",
"52 -7 OFFCURVE",
"78 -7 CURVE SMOOTH",
"117 -7 OFFCURVE",
"176 38 OFFCURVE",
"259 168 CURVE",
"243 178 LINE",
"187 92 OFFCURVE",
"134 43 OFFCURVE",
"111 43 CURVE SMOOTH",
"101 43 OFFCURVE",
"93 56 OFFCURVE",
"105 85 CURVE SMOOTH",
"321 625 LINE SMOOTH",
"331 651 OFFCURVE",
"344 681 OFFCURVE",
"359 706 CURVE",
"347 712 LINE",
"301 693 OFFCURVE",
"251 681 OFFCURVE",
"197 673 CURVE",
"193 662 LINE",
"233 658 LINE SMOOTH",
"262 655 OFFCURVE",
"270 649 OFFCURVE",
"263 631 CURVE SMOOTH",
"178 419 LINE",
"167 428 OFFCURVE",
"153 434 OFFCURVE",
"132 434 CURVE SMOOTH",
"10 434 OFFCURVE",
"-202 209 OFFCURVE",
"-202 70 CURVE SMOOTH",
"-202 10 OFFCURVE",
"-172 -8 OFFCURVE",
"-138 -8 CURVE SMOOTH"
);
},
{
closed = 1;
nodes = (
"-110 44 OFFCURVE",
"-127 60 OFFCURVE",
"-127 102 CURVE SMOOTH",
"-127 179 OFFCURVE",
"-89 257 OFFCURVE",
"-34 316 CURVE SMOOTH",
"10 364 OFFCURVE",
"57 389 OFFCURVE",
"92 389 CURVE SMOOTH",
"124 389 OFFCURVE",
"138 372 OFFCURVE",
"138 339 CURVE SMOOTH",
"138 244 OFFCURVE",
"3 44 OFFCURVE",
"-84 44 CURVE SMOOTH"
);
}
);
};
guideLines = (
{
position = "{294, 74}";
}
);
layerId = "A0758A2D-FE5C-4D8D-B7A5-83FAC1CB14BB";
paths = (
{
closed = 1;
nodes = (
"83 0 LINE",
"162 212 OFFCURVE",
"322 382 OFFCURVE",
"376 382 CURVE SMOOTH",
"399 382 OFFCURVE",
"403 362 OFFCURVE",
"390 332 CURVE SMOOTH",
"281 74 LINE SMOOTH",
"259 22 OFFCURVE",
"279 -7 OFFCURVE",
"314 -7 CURVE SMOOTH",
"355 -7 OFFCURVE",
"419 38 OFFCURVE",
"505 168 CURVE",
"489 178 LINE",
"433 92 OFFCURVE",
"381 43 OFFCURVE",
"358 43 CURVE SMOOTH",
"345 43 OFFCURVE",
"340 57 OFFCURVE",
"350 82 CURVE SMOOTH",
"463 352 LINE SMOOTH",
"482 398 OFFCURVE",
"465 434 OFFCURVE",
"423 434 CURVE SMOOTH",
"322 434 OFFCURVE",
"200 264 OFFCURVE",
"155 184 CURVE",
"151 184 LINE",
"320 625 LINE SMOOTH",
"330 651 OFFCURVE",
"343 681 OFFCURVE",
"358 706 CURVE",
"346 712 LINE",
"300 693 OFFCURVE",
"250 681 OFFCURVE",
"196 673 CURVE",
"192 662 LINE",
"232 658 LINE SMOOTH",
"261 655 OFFCURVE",
"269 649 OFFCURVE",
"262 631 CURVE SMOOTH",
"13 -9 LINE"
);
}
);
width = 528;
},
{
background = {
paths = (
{
closed = 1;
nodes = (
"91 0 LINE",
"166 195 OFFCURVE",
"333 368 OFFCURVE",
"380 368 CURVE SMOOTH",
"396 368 OFFCURVE",
"401 356 OFFCURVE",
"392 336 CURVE SMOOTH",
"284 86 LINE SMOOTH",
"261 33 OFFCURVE",
"281 -8 OFFCURVE",
"334 -8 CURVE SMOOTH",
"387 -8 OFFCURVE",
"442 48 OFFCURVE",
"526 167 CURVE",
"506 180 LINE",
"474 131 OFFCURVE",
"417 63 OFFCURVE",
"399 63 CURVE SMOOTH",
"385 63 OFFCURVE",
"378 75 OFFCURVE",
"389 100 CURVE SMOOTH",
"503 362 LINE SMOOTH",
"525 412 OFFCURVE",
"509 451 OFFCURVE",
"460 451 CURVE SMOOTH",
"347 451 OFFCURVE",
"229 286 OFFCURVE",
"163 184 CURVE",
"161 184 LINE",
"330 609 LINE SMOOTH",
"342 640 OFFCURVE",
"357 675 OFFCURVE",
"375 705 CURVE",
"361 712 LINE",
"306 689 OFFCURVE",
"263 685 OFFCURVE",
"193 673 CURVE",
"188 655 LINE",
"213 648 LINE SMOOTH",
"229 644 OFFCURVE",
"240 634 OFFCURVE",
"230 608 CURVE SMOOTH",
"-14 -11 LINE"
);
}
);
};
layerId = "B3FC2A1D-D4D8-43EF-896F-5E7A9998234E";
paths = (
{
closed = 1;
nodes = (
"91 0 LINE",
"166 195 OFFCURVE",
"333 368 OFFCURVE",
"380 368 CURVE SMOOTH",
"396 368 OFFCURVE",
"401 356 OFFCURVE",
"392 336 CURVE SMOOTH",
"284 86 LINE SMOOTH",
"261 33 OFFCURVE",
"281 -8 OFFCURVE",
"334 -8 CURVE SMOOTH",
"387 -8 OFFCURVE",
"442 48 OFFCURVE",
"526 167 CURVE",
"506 180 LINE",
"474 131 OFFCURVE",
"417 63 OFFCURVE",
"399 63 CURVE SMOOTH",
"385 63 OFFCURVE",
"378 75 OFFCURVE",
"389 100 CURVE SMOOTH",
"503 362 LINE SMOOTH",
"525 412 OFFCURVE",
"509 451 OFFCURVE",
"460 451 CURVE SMOOTH",
"346 451 OFFCURVE",
"226 286 OFFCURVE",
"161 184 CURVE",
"159 184 LINE",
"330 609 LINE SMOOTH",
"342 640 OFFCURVE",
"357 675 OFFCURVE",
"375 705 CURVE",
"361 712 LINE",
"306 689 OFFCURVE",
"263 685 OFFCURVE",
"193 673 CURVE",
"188 655 LINE",
"213 648 LINE SMOOTH",
"229 644 OFFCURVE",
"240 634 OFFCURVE",
"230 608 CURVE SMOOTH",
"-14 -11 LINE"
);
}
);
width = 553;
}
);
leftKerningGroup = h;
rightKerningGroup = n;
rightMetricsKey = n;
unicode = 0068;
},
{
color = 4;
glyphname = hbar;
lastChange = "2015-08-27 11:42:05 +0000";
layers = (
{
background = {
paths = (
{
closed = 1;
nodes = (
"143 0 LINE",
"149 15 LINE",
"112 26 LINE SMOOTH",
"94 31 OFFCURVE",
"91 39 OFFCURVE",
"99 58 CURVE SMOOTH",
"320 602 LINE SMOOTH",
"339 648 OFFCURVE",
"351 676 OFFCURVE",
"374 706 CURVE",
"368 712 LINE",
"315 689 OFFCURVE",
"262 678 OFFCURVE",
"210 668 CURVE",
"206 658 LINE",
"245 646 LINE SMOOTH",
"261 641 OFFCURVE",
"264 632 OFFCURVE",
"253 606 CURVE SMOOTH",
"32 58 LINE SMOOTH",
"24 39 OFFCURVE",
"15 31 OFFCURVE",
"-7 26 CURVE SMOOTH",
"-54 15 LINE",
"-60 0 LINE"
);
},
{
closed = 1;
nodes = (
"424 0 LINE",
"430 15 LINE",
"393 26 LINE SMOOTH",
"375 31 OFFCURVE",
"372 39 OFFCURVE",
"380 58 CURVE SMOOTH",
"471 285 LINE SMOOTH",
"508 375 OFFCURVE",
"472 424 OFFCURVE",
"378 424 CURVE SMOOTH",
"374 424 OFFCURVE",
"368 422 OFFCURVE",
"360 419 CURVE SMOOTH",
"321 402 OFFCURVE",
"257 374 OFFCURVE",
"220 361 CURVE",
"195 361 LINE",
"182 262 LINE",
"206 321 OFFCURVE",
"271 371 OFFCURVE",
"336 371 CURVE SMOOTH",
"402 371 OFFCURVE",
"425 336 OFFCURVE",
"399 272 CURVE SMOOTH",
"313 58 LINE SMOOTH",
"305 39 OFFCURVE",
"296 31 OFFCURVE",
"274 26 CURVE SMOOTH",
"227 15 LINE",
"221 0 LINE"
);
}
);
};
layerId = "A0758A2D-FE5C-4D8D-B7A5-83FAC1CB14BB";
paths = (
{
closed = 1;
nodes = (
"83 0 LINE",
"162 212 OFFCURVE",
"317 372 OFFCURVE",
"371 372 CURVE SMOOTH",
"394 372 OFFCURVE",
"398 352 OFFCURVE",
"385 322 CURVE SMOOTH",
"281 74 LINE SMOOTH",
"259 22 OFFCURVE",
"279 -7 OFFCURVE",
"314 -7 CURVE SMOOTH",
"355 -7 OFFCURVE",
"419 38 OFFCURVE",
"505 168 CURVE",
"489 178 LINE",
"433 92 OFFCURVE",
"381 43 OFFCURVE",
"358 43 CURVE SMOOTH",
"345 43 OFFCURVE",
"340 57 OFFCURVE",
"350 82 CURVE SMOOTH",
"458 342 LINE SMOOTH",
"477 388 OFFCURVE",
"460 424 OFFCURVE",
"418 424 CURVE SMOOTH",
"317 424 OFFCURVE",
"200 264 OFFCURVE",
"155 184 CURVE",
"151 184 LINE",
"320 625 LINE SMOOTH",
"330 651 OFFCURVE",
"343 681 OFFCURVE",
"358 706 CURVE",
"346 712 LINE",
"300 693 OFFCURVE",
"250 681 OFFCURVE",
"196 673 CURVE",
"192 662 LINE",
"232 658 LINE SMOOTH",
"261 655 OFFCURVE",
"269 649 OFFCURVE",
"262 631 CURVE SMOOTH",
"13 -9 LINE"
);
},
{
closed = 1;
nodes = (
"483 536 LINE",
"495 566 LINE",
"169 566 LINE",
"157 536 LINE"
);
}
);
width = 528;
},
{
background = {
paths = (
{
closed = 1;
nodes = (
"162 0 LINE",
"168 17 LINE",
"141 29 LINE SMOOTH",
"132 33 OFFCURVE",
"120 43 OFFCURVE",
"128 62 CURVE SMOOTH",
"352 618 LINE SMOOTH",
"367 654 OFFCURVE",
"385 687 OFFCURVE",
"400 702 CURVE",
"393 710 LINE",
"327 689 OFFCURVE",
"278 682 OFFCURVE",
"198 672 CURVE",
"191 654 LINE",
"220 646 LINE SMOOTH",
"235 642 OFFCURVE",
"243 636 OFFCURVE",
"231 608 CURVE SMOOTH",
"13 69 LINE SMOOTH",
"6 50 OFFCURVE",
"-9 36 OFFCURVE",
"-30 29 CURVE SMOOTH",
"-67 17 LINE",
"-73 0 LINE"
);
},
{
closed = 1;
nodes = (
"457 0 LINE",
"463 17 LINE",
"436 29 LINE SMOOTH",
"427 33 OFFCURVE",
"415 43 OFFCURVE",
"423 62 CURVE SMOOTH",
"520 302 LINE SMOOTH",
"556 392 OFFCURVE",
"521 441 OFFCURVE",
"427 441 CURVE SMOOTH",
"419 441 OFFCURVE",
"407 439 OFFCURVE",
"399 435 CURVE SMOOTH",
"349 411 OFFCURVE",
"299 389 OFFCURVE",
"251 370 CURVE",
"237 370 LINE",
"210 265 LINE",
"232 320 OFFCURVE",
"281 359 OFFCURVE",
"338 359 CURVE SMOOTH",
"395 359 OFFCURVE",
"413 327 OFFCURVE",
"389 268 CURVE SMOOTH",
"308 69 LINE SMOOTH",
"301 50 OFFCURVE",
"286 36 OFFCURVE",
"265 29 CURVE SMOOTH",
"228 17 LINE",
"222 0 LINE"
);
}
);
};
layerId = "B3FC2A1D-D4D8-43EF-896F-5E7A9998234E";
paths = (
{
closed = 1;
nodes = (
"91 0 LINE",
"166 195 OFFCURVE",
"329 359 OFFCURVE",
"376 359 CURVE SMOOTH",
"392 359 OFFCURVE",
"397 347 OFFCURVE",
"388 327 CURVE SMOOTH",
"284 86 LINE SMOOTH",
"261 33 OFFCURVE",
"281 -8 OFFCURVE",
"334 -8 CURVE SMOOTH",
"387 -8 OFFCURVE",
"442 48 OFFCURVE",
"526 167 CURVE",
"506 180 LINE",
"474 131 OFFCURVE",
"417 63 OFFCURVE",
"399 63 CURVE SMOOTH",
"385 63 OFFCURVE",
"378 75 OFFCURVE",
"389 100 CURVE SMOOTH",
"499 353 LINE SMOOTH",
"521 403 OFFCURVE",
"505 442 OFFCURVE",
"456 442 CURVE SMOOTH",
"342 442 OFFCURVE",
"226 286 OFFCURVE",
"161 184 CURVE",
"159 184 LINE",
"330 609 LINE SMOOTH",
"342 640 OFFCURVE",
"357 675 OFFCURVE",
"375 705 CURVE",
"361 712 LINE",
"306 689 OFFCURVE",
"263 685 OFFCURVE",
"193 673 CURVE",
"188 655 LINE",
"213 648 LINE SMOOTH",
"229 644 OFFCURVE",
"240 634 OFFCURVE",
"230 608 CURVE SMOOTH",
"-14 -11 LINE"
);
},
{
closed = 1;
nodes = (
"477 526 LINE",
"496 573 LINE",
"158 573 LINE",
"139 526 LINE"
);
}
);
width = 553;
}
);
leftKerningGroup = h;
leftMetricsKey = h;
rightKerningGroup = n;
rightMetricsKey = h;
unicode = 0127;
},
{
glyphname = i;
lastChange = "2019-09-13 01:44:39 +0000";
layers = (
{
components = (
{
name = idotless;
},
{
name = dotaccentcomb;
transform = "{1, 0, 0, 1, -132, 0}";
}
);
layerId = "A0758A2D-FE5C-4D8D-B7A5-83FAC1CB14BB";
width = 319;
},
{
background = {
paths = (
{
closed = 1;
nodes = (
"158 -8 OFFCURVE",
"211 48 OFFCURVE",
"292 167 CURVE",
"272 180 LINE",
"240 131 OFFCURVE",
"183 63 OFFCURVE",
"165 63 CURVE SMOOTH",
"154 63 OFFCURVE",
"145 75 OFFCURVE",
"157 105 CURVE SMOOTH",
"259 362 LINE SMOOTH",
"282 421 OFFCURVE",
"252 451 OFFCURVE",
"217 451 CURVE SMOOTH",
"166 451 OFFCURVE",
"113 395 OFFCURVE",
"32 276 CURVE",
"52 263 LINE",
"84 312 OFFCURVE",
"140 380 OFFCURVE",
"158 380 CURVE SMOOTH",
"165 380 OFFCURVE",
"171 371 OFFCURVE",
"161 346 CURVE SMOOTH",
"54 76 LINE SMOOTH",
"36 30 OFFCURVE",
"62 -8 OFFCURVE",
"107 -8 CURVE SMOOTH"
);
},
{
closed = 1;
nodes = (
"326 549 OFFCURVE",
"357 580 OFFCURVE",
"357 616 CURVE SMOOTH",
"357 654 OFFCURVE",
"326 685 OFFCURVE",
"288 685 CURVE SMOOTH",
"252 685 OFFCURVE",
"221 654 OFFCURVE",
"221 616 CURVE SMOOTH",
"221 580 OFFCURVE",
"252 549 OFFCURVE",
"288 549 CURVE SMOOTH"
);
}
);
};
components = (
{
name = idotless;
},
{
name = dotaccentcomb;
transform = "{1, 0, 0, 1, -161, 0}";
}
);
layerId = "B3FC2A1D-D4D8-43EF-896F-5E7A9998234E";
width = 326;
}
);
leftKerningGroup = u;
leftMetricsKey = n;
rightKerningGroup = a;
rightMetricsKey = n;
unicode = 0069;
},
{
glyphname = idotless;
lastChange = "2019-09-13 00:11:37 +0000";
layers = (
{
anchors = (
{
name = top;
position = "{235, 470}";
}
);
layerId = "A0758A2D-FE5C-4D8D-B7A5-83FAC1CB14BB";
paths = (
{
closed = 1;
nodes = (
"146 -7 OFFCURVE",
"210 38 OFFCURVE",
"296 168 CURVE",
"280 178 LINE",
"224 92 OFFCURVE",
"171 43 OFFCURVE",
"148 43 CURVE SMOOTH",
"138 43 OFFCURVE",
"130 56 OFFCURVE",
"142 85 CURVE SMOOTH",
"249 354 LINE SMOOTH",
"270 407 OFFCURVE",
"242 434 OFFCURVE",
"210 434 CURVE SMOOTH",
"161 434 OFFCURVE",
"110 377 OFFCURVE",
"29 260 CURVE",
"45 251 LINE",
"89 314 OFFCURVE",
"148 384 OFFCURVE",
"172 384 CURVE SMOOTH",
"182 384 OFFCURVE",
"190 372 OFFCURVE",
"177 339 CURVE SMOOTH",
"66 59 LINE SMOOTH",
"52 23 OFFCURVE",
"71 -7 OFFCURVE",
"105 -7 CURVE SMOOTH"
);
}
);
width = 319;
},
{
anchors = (
{
name = top;
position = "{246, 470}";
}
);
layerId = "B3FC2A1D-D4D8-43EF-896F-5E7A9998234E";
paths = (
{
closed = 1;
nodes = (
"160 -8 OFFCURVE",
"215 48 OFFCURVE",
"299 167 CURVE",
"279 180 LINE",
"247 131 OFFCURVE",
"190 63 OFFCURVE",
"172 63 CURVE SMOOTH",
"161 63 OFFCURVE",
"152 75 OFFCURVE",
"164 105 CURVE SMOOTH",
"266 362 LINE SMOOTH",
"285 411 OFFCURVE",
"273 451 OFFCURVE",
"223 451 CURVE SMOOTH",
"164 451 OFFCURVE",
"114 395 OFFCURVE",
"30 276 CURVE",
"50 263 LINE",
"82 312 OFFCURVE",
"138 380 OFFCURVE",
"156 380 CURVE SMOOTH",
"163 380 OFFCURVE",
"170 374 OFFCURVE",
"159 346 CURVE SMOOTH",
"52 76 LINE SMOOTH",
"33 28 OFFCURVE",
"60 -8 OFFCURVE",
"107 -8 CURVE SMOOTH"
);
}
);
width = 326;
}
);
leftKerningGroup = u;
leftMetricsKey = n;
rightKerningGroup = a;
rightMetricsKey = n;
unicode = 0131;
},
{
glyphname = jdotless;
lastChange = "2016-03-30 08:23:45 +0000";
layers = (
{
anchors = (
{
name = top;
position = "{202, 470}";
}
);
layerId = "A0758A2D-FE5C-4D8D-B7A5-83FAC1CB14BB";
paths = (
{
closed = 1;
nodes = (
"-45 -258 OFFCURVE",
"-11 -210 OFFCURVE",
"15 -173 CURVE SMOOTH",
"32 -149 OFFCURVE",
"46 -129 OFFCURVE",
"62 -129 CURVE",
"240 354 LINE",
"261 407 OFFCURVE",
"233 434 OFFCURVE",
"201 434 CURVE SMOOTH",
"152 434 OFFCURVE",
"101 377 OFFCURVE",
"20 260 CURVE",
"36 251 LINE",
"80 314 OFFCURVE",
"139 384 OFFCURVE",
"163 384 CURVE SMOOTH",
"173 384 OFFCURVE",
"181 372 OFFCURVE",
"168 339 CURVE",
"7 -111 LINE SMOOTH",
"-24 -199 OFFCURVE",
"-58 -235 OFFCURVE",
"-90 -235 CURVE SMOOTH",
"-106 -235 OFFCURVE",
"-118 -228 OFFCURVE",
"-118 -206 CURVE SMOOTH",
"-118 -164 OFFCURVE",
"-137 -154 OFFCURVE",
"-162 -154 CURVE SMOOTH",
"-186 -154 OFFCURVE",
"-207 -167 OFFCURVE",
"-207 -194 CURVE SMOOTH",
"-207 -230 OFFCURVE",
"-163 -258 OFFCURVE",
"-103 -258 CURVE SMOOTH"
);
}
);
width = 261;
},
{
anchors = (
{
name = top;
position = "{239, 470}";
}
);
layerId = "B3FC2A1D-D4D8-43EF-896F-5E7A9998234E";
paths = (
{
closed = 1;
nodes = (
"-49 -259 OFFCURVE",
"-9 -213 OFFCURVE",
"20 -174 CURVE SMOOTH",
"39 -150 OFFCURVE",
"57 -128 OFFCURVE",
"74 -128 CURVE",
"255 362 LINE SMOOTH",
"273 411 OFFCURVE",
"262 451 OFFCURVE",
"212 451 CURVE SMOOTH",
"153 451 OFFCURVE",
"103 395 OFFCURVE",
"19 276 CURVE",
"39 263 LINE",
"71 312 OFFCURVE",
"127 380 OFFCURVE",
"145 380 CURVE SMOOTH",
"152 380 OFFCURVE",
"158 374 OFFCURVE",
"148 346 CURVE SMOOTH",
"-36 -149 LINE SMOOTH",
"-55 -201 OFFCURVE",
"-71 -232 OFFCURVE",
"-92 -232 CURVE SMOOTH",
"-105 -232 OFFCURVE",
"-113 -223 OFFCURVE",
"-113 -206 CURVE SMOOTH",
"-113 -155 OFFCURVE",
"-139 -142 OFFCURVE",
"-167 -142 CURVE SMOOTH",
"-192 -142 OFFCURVE",
"-215 -162 OFFCURVE",
"-215 -197 CURVE SMOOTH",
"-215 -233 OFFCURVE",
"-173 -259 OFFCURVE",
"-115 -259 CURVE SMOOTH"
);
}
);
width = 265;
}
);
leftKerningGroup = j;
rightKerningGroup = j;
unicode = 0237;
},
